<svg xmlns="http://www.w3.org/2000/svg" xmlns:xlink="http://www.w3.org/1999/xlink" viewBox="0 0 223.23 300.13"><defs><style>.cls-1{fill:#fff;}.cls-2{fill:url(#Degradado_sin_nombre);}.cls-3{fill:url(#Degradado_sin_nombre_2);}.cls-4{fill:url(#Degradado_sin_nombre_3);}.cls-5{fill:url(#Degradado_sin_nombre_4);}.cls-6{fill:#50e6ff;}.cls-7{fill:url(#Degradado_sin_nombre_5);}.cls-8{fill:#e6e6e6;}.cls-9{fill:#86d633;}.cls-10{fill:#ffca00;}.cls-11{fill:#b31b1b;}.cls-12{fill:#231f20;}.cls-13{fill:url(#Degradado_sin_nombre_6);}.cls-14{fill:#0072c6;}.cls-14,.cls-18{opacity:0.25;}.cls-14,.cls-15,.cls-16,.cls-17,.cls-18{isolation:isolate;}.cls-15{fill:#37c2b1;opacity:0.4;}.cls-16,.cls-18{fill:#3c3c41;}.cls-16{opacity:0.02;}.cls-17,.cls-19{fill:none;}.cls-17{stroke:#75757a;stroke-miterlimit:10;stroke-width:0.5px;opacity:0.5;}.cls-19{stroke:#231f20;}.cls-20,.cls-23{font-size:12px;}.cls-20,.cls-21,.cls-23{font-family:SegoeUI, Segoe UI;}.cls-21{font-size:11px;letter-spacing:-0.01em;}.cls-22{letter-spacing:-0.01em;}.cls-23{letter-spacing:-0.02em;}</style><linearGradient id="Degradado_sin_nombre" x1="27.5" y1="197.8" x2="27.5" y2="191.8" gradientTransform="matrix(1, 0, 0, -1, 0, 302)" gradientUnits="userSpaceOnUse"><stop offset="0" stop-color="#5ea0ef"/><stop offset="0.18" stop-color="#559cec"/><stop offset="0.47" stop-color="#3c91e5"/><stop offset="0.84" stop-color="#1380da"/><stop offset="1" stop-color="#0078d4"/></linearGradient><linearGradient id="Degradado_sin_nombre_2" x1="27.5" y1="205.8" x2="27.5" y2="199.8" xlink:href="#Degradado_sin_nombre"/><linearGradient id="Degradado_sin_nombre_3" x1="27.5" y1="213.8" x2="27.5" y2="207.8" xlink:href="#Degradado_sin_nombre"/><linearGradient id="Degradado_sin_nombre_4" x1="27.5" y1="221.8" x2="27.5" y2="215.8" xlink:href="#Degradado_sin_nombre"/><linearGradient id="Degradado_sin_nombre_5" x1="90.83" y1="284.78" x2="90.83" y2="267.78" gradientTransform="matrix(1, 0, 0, -1, 0, 302)" gradientUnits="userSpaceOnUse"><stop offset="0" stop-color="#b3b3b3"/><stop offset="0.47" stop-color="#a2a2a2"/><stop offset="1" stop-color="#949494"/></linearGradient><linearGradient id="Degradado_sin_nombre_6" x1="180.83" y1="284.78" x2="180.83" y2="267.78" xlink:href="#Degradado_sin_nombre_5"/></defs><title>OJ105266024</title><g id="Capa_1" data-name="Capa 1"><g id="Shapes"><rect class="cls-1" width="223.23" height="300.13"/><path class="cls-1" d="M11.5,104.2h32v6h-32Zm14,3a1.5,1.5,0,1,1-1.5-1.5,1.5,1.5,0,0,1,1.5,1.5Z"/><path class="cls-2" d="M11.5,104.2h32v6h-32Zm14,3a1.5,1.5,0,1,1-1.5-1.5,1.5,1.5,0,0,1,1.5,1.5Z"/><path class="cls-1" d="M11.5,96.2h32v6h-32Zm14,3A1.5,1.5,0,1,1,24,97.7a1.5,1.5,0,0,1,1.5,1.5Z"/><path class="cls-3" d="M11.5,96.2h32v6h-32Zm14,3A1.5,1.5,0,1,1,24,97.7a1.5,1.5,0,0,1,1.5,1.5Z"/><path class="cls-1" d="M11.5,88.2h32v6h-32Zm14,3A1.5,1.5,0,1,1,24,89.7a1.5,1.5,0,0,1,1.5,1.5Z"/><path class="cls-4" d="M11.5,88.2h32v6h-32Zm14,3A1.5,1.5,0,1,1,24,89.7a1.5,1.5,0,0,1,1.5,1.5Z"/><path class="cls-1" d="M11.5,80.2h32v6h-32Zm14,3A1.5,1.5,0,1,1,24,81.7a1.5,1.5,0,0,1,1.5,1.5Z"/><path class="cls-5" d="M11.5,80.2h32v6h-32Zm14,3A1.5,1.5,0,1,1,24,81.7a1.5,1.5,0,0,1,1.5,1.5Z"/><path class="cls-6" d="M15,108.7a1.5,1.5,0,1,0-1.5-1.5A1.5,1.5,0,0,0,15,108.7Z"/><path class="cls-6" d="M19.5,108.7a1.5,1.5,0,1,0-1.5-1.5A1.5,1.5,0,0,0,19.5,108.7Z"/><path class="cls-6" d="M15,100.7a1.5,1.5,0,1,0-1.5-1.5A1.5,1.5,0,0,0,15,100.7Z"/><path class="cls-6" d="M19.5,100.7A1.5,1.5,0,1,0,18,99.2,1.5,1.5,0,0,0,19.5,100.7Z"/><path class="cls-6" d="M15,92.7a1.5,1.5,0,1,0-1.5-1.5A1.5,1.5,0,0,0,15,92.7Z"/><path class="cls-6" d="M19.5,92.7A1.5,1.5,0,1,0,18,91.2,1.5,1.5,0,0,0,19.5,92.7Z"/><path class="cls-6" d="M15,84.7a1.5,1.5,0,1,0-1.5-1.5A1.5,1.5,0,0,0,15,84.7Z"/><path class="cls-6" d="M19.5,84.7A1.5,1.5,0,1,0,18,83.2,1.5,1.5,0,0,0,19.5,84.7Z"/><path class="cls-1" d="M23.87,84.7a1.5,1.5,0,1,0-1.5-1.5A1.5,1.5,0,0,0,23.87,84.7Z"/><path class="cls-1" d="M23.87,92.7a1.5,1.5,0,1,0-1.5-1.5A1.5,1.5,0,0,0,23.87,92.7Z"/><path class="cls-1" d="M23.87,100.7a1.5,1.5,0,1,0-1.5-1.5A1.5,1.5,0,0,0,23.87,100.7Z"/><path class="cls-1" d="M23.87,108.7a1.5,1.5,0,1,0-1.5-1.5A1.5,1.5,0,0,0,23.87,108.7Z"/><rect class="cls-1" x="49.43" y="17.22" width="82.8" height="17" rx="2"/><rect class="cls-7" x="49.43" y="17.22" width="82.8" height="17" rx="2"/><path class="cls-8" d="M130.23,18.22a1,1,0,0,1,1,1v13a1,1,0,0,1-1,1H51.43a1,1,0,0,1-1-1v-13a1,1,0,0,1,1-1h78.8m0-2H51.43a3,3,0,0,0-3,3v13a3,3,0,0,0,3,3h78.8a3,3,0,0,0,3-3v-13A3,3,0,0,0,130.23,16.22Z"/><circle class="cls-9" cx="111.32" cy="21.95" r="1.09"/><circle class="cls-10" cx="117.73" cy="21.95" r="1.09"/><circle class="cls-11" cx="124.13" cy="21.95" r="1.09"/><rect class="cls-8" x="110.23" y="24.7" width="15" height="6.02"/><polygon class="cls-12" points="60.63 22.14 60.63 20.85 56.44 20.85 56.44 22.14 55.03 22.14 55.03 24.7 62.03 24.7 62.03 22.14 60.63 22.14"/><polygon class="cls-12" points="71.1 22.14 71.1 20.85 66.91 20.85 66.91 22.14 65.5 22.14 65.5 24.7 72.5 24.7 72.5 22.14 71.1 22.14"/><polygon class="cls-12" points="81.57 22.14 81.57 20.85 77.38 20.85 77.38 22.14 75.97 22.14 75.97 24.7 82.97 24.7 82.97 22.14 81.57 22.14"/><polygon class="cls-12" points="92.04 22.14 92.04 20.85 87.85 20.85 87.85 22.14 86.44 22.14 86.44 24.7 93.44 24.7 93.44 22.14 92.04 22.14"/><polygon class="cls-12" points="102.5 22.14 102.5 20.85 98.31 20.85 98.31 22.14 96.91 22.14 96.91 24.7 103.91 24.7 103.91 22.14 102.5 22.14"/><polygon class="cls-12" points="60.63 28 60.63 26.72 56.44 26.72 56.44 28 55.03 28 55.03 30.57 62.03 30.57 62.03 28 60.63 28"/><polygon class="cls-12" points="71.1 28 71.1 26.72 66.91 26.72 66.91 28 65.5 28 65.5 30.57 72.5 30.57 72.5 28 71.1 28"/><polygon class="cls-12" points="81.57 28 81.57 26.72 77.38 26.72 77.38 28 75.97 28 75.97 30.57 82.97 30.57 82.97 28 81.57 28"/><polygon class="cls-12" points="92.04 28 92.04 26.72 87.85 26.72 87.85 28 86.44 28 86.44 30.57 93.44 30.57 93.44 28 92.04 28"/><polygon class="cls-12" points="102.5 28 102.5 26.72 98.31 26.72 98.31 28 96.91 28 96.91 30.57 103.91 30.57 103.91 28 102.5 28"/><rect class="cls-1" x="139.43" y="17.22" width="82.8" height="17" rx="2"/><rect class="cls-13" x="139.43" y="17.22" width="82.8" height="17" rx="2"/><path class="cls-8" d="M220.23,18.22a1,1,0,0,1,1,1v13a1,1,0,0,1-1,1h-78.8a1,1,0,0,1-1-1v-13a1,1,0,0,1,1-1h78.8m0-2h-78.8a3,3,0,0,0-3,3v13a3,3,0,0,0,3,3h78.8a3,3,0,0,0,3-3v-13A3,3,0,0,0,220.23,16.22Z"/><circle class="cls-9" cx="201.32" cy="21.95" r="1.09"/><circle class="cls-10" cx="207.73" cy="21.95" r="1.09"/><circle class="cls-11" cx="214.14" cy="21.95" r="1.09"/><rect class="cls-8" x="200.23" y="24.7" width="15" height="6.02"/><polygon class="cls-12" points="150.63 22.14 150.63 20.85 146.44 20.85 146.44 22.14 145.03 22.14 145.03 24.7 152.03 24.7 152.03 22.14 150.63 22.14"/><polygon class="cls-12" points="161.1 22.14 161.1 20.85 156.91 20.85 156.91 22.14 155.5 22.14 155.5 24.7 162.5 24.7 162.5 22.14 161.1 22.14"/><polygon class="cls-12" points="171.57 22.14 171.57 20.85 167.38 20.85 167.38 22.14 165.97 22.14 165.97 24.7 172.97 24.7 172.97 22.14 171.57 22.14"/><polygon class="cls-12" points="182.04 22.14 182.04 20.85 177.85 20.85 177.85 22.14 176.44 22.14 176.44 24.7 183.44 24.7 183.44 22.14 182.04 22.14"/><polygon class="cls-12" points="192.5 22.14 192.5 20.85 188.31 20.85 188.31 22.14 186.91 22.14 186.91 24.7 193.91 24.7 193.91 22.14 192.5 22.14"/><polygon class="cls-12" points="150.63 28 150.63 26.72 146.44 26.72 146.44 28 145.03 28 145.03 30.57 152.03 30.57 152.03 28 150.63 28"/><polygon class="cls-12" points="161.1 28 161.1 26.72 156.91 26.72 156.91 28 155.5 28 155.5 30.57 162.5 30.57 162.5 28 161.1 28"/><polygon class="cls-12" points="171.57 28 171.57 26.72 167.38 26.72 167.38 28 165.97 28 165.97 30.57 172.97 30.57 172.97 28 171.57 28"/><polygon class="cls-12" points="182.04 28 182.04 26.72 177.85 26.72 177.85 28 176.44 28 176.44 30.57 183.44 30.57 183.44 28 182.04 28"/><polygon class="cls-12" points="192.5 28 192.5 26.72 188.31 26.72 188.31 28 186.91 28 186.91 30.57 193.91 30.57 193.91 28 192.5 28"/><rect class="cls-1" x="58.33" y="80.2" width="155" height="20"/><rect class="cls-14" x="58.33" y="80.2" width="155" height="20"/><rect class="cls-1" x="58.33" y="255.2" width="155" height="20"/><rect class="cls-15" x="58.33" y="255.2" width="155" height="20"/><rect class="cls-1" x="58.33" y="105.2" width="155" height="20"/><rect class="cls-14" x="58.33" y="105.2" width="155" height="20"/><rect class="cls-1" x="58.33" y="130.2" width="155" height="20"/><rect class="cls-16" x="58.33" y="130.2" width="155" height="20"/><rect class="cls-17" x="58.33" y="130.2" width="155" height="20"/><rect class="cls-1" x="58.33" y="155.2" width="155" height="20"/><rect class="cls-18" x="58.33" y="155.2" width="155" height="20"/><rect class="cls-1" x="58.33" y="180.2" width="155" height="20"/><rect class="cls-18" x="58.33" y="180.2" width="155" height="20"/><rect class="cls-1" x="58.33" y="205.2" width="155" height="20"/><rect class="cls-18" x="58.33" y="205.2" width="155" height="20"/><rect class="cls-1" x="58.33" y="230.2" width="155" height="20"/><rect class="cls-18" x="58.33" y="230.2" width="155" height="20"/><line class="cls-19" x1="63.99" y1="35.15" x2="63.99" y2="105.2"/><line class="cls-19" x1="208.3" y1="35.15" x2="208.3" y2="105.2"/><line class="cls-19" x1="73.99" y1="35.15" x2="73.99" y2="80.2"/><line class="cls-19" x1="198.77" y1="35.15" x2="198.77" y2="80.2"/></g></g><g id="Capa_2" data-name="Capa 2"><text class="cls-20" transform="translate(79.84 10.2)">Appareils de bordure</text><text class="cls-20" transform="translate(107.98 55.2)">Couche 3 :</text><text class="cls-21" transform="translate(76.03 68.42)">BGP ou itinéraire statique</text><text class="cls-20" transform="translate(106.11 95.2)">Leaf <tspan class="cls-22" x="25.07" y="0">S</tspan><tspan x="31.27" y="0">witch</tspan></text><text class="cls-20" transform="translate(106.11 120)">Leaf <tspan class="cls-22" x="25.07" y="0">S</tspan><tspan x="31.27" y="0">witch</tspan></text><text class="cls-20" transform="translate(104.46 144.8)">BMC <tspan class="cls-22" x="28.37" y="0">S</tspan><tspan x="34.57" y="0">witch</tspan></text><text class="cls-20" transform="translate(115.83 169.6)">Serveur</text><text class="cls-20" transform="translate(115.83 194.4)">Serveur</text><text class="cls-20" transform="translate(115.83 219.2)">Serveur</text><text class="cls-20" transform="translate(115.83 244)">Serveur</text><text class="cls-23" transform="translate(59.81 268.8)">Hardware Lifecycle Host (HLH)</text><text class="cls-20" transform="translate(96.55 295.2)">Unité d’échelle</text><text class="cls-20" transform="translate(2.63 123.89)">De 4 à 16 <tspan x="3.22" y="12">serveurs</tspan></text></g></svg>