<svg xmlns="http://www.w3.org/2000/svg" xmlns:xlink="http://www.w3.org/1999/xlink" viewBox="0 0 374.67 220"><defs><style>.cls-1,.cls-5{fill:#fff;}.cls-2,.cls-3{fill:#0072c6;}.cls-2{opacity:0.08;}.cls-2,.cls-3,.cls-5{isolation:isolate;}.cls-3{opacity:0.15;}.cls-4{fill:url(#linear-gradient);}.cls-5{opacity:0.8;}.cls-6{fill:url(#linear-gradient-2);}.cls-7{fill:url(#linear-gradient-3);}.cls-8{fill:url(#linear-gradient-4);}.cls-9{fill:url(#linear-gradient-5);}.cls-10{fill:#f2f2f2;}.cls-11{fill:#50e6ff;}.cls-12{fill:url(#linear-gradient-6);}.cls-13{fill:#231f20;}.cls-14{fill:url(#linear-gradient-7);}.cls-15{fill:url(#linear-gradient-8);}.cls-16{fill:url(#linear-gradient-9);}.cls-17{fill:url(#linear-gradient-10);}.cls-18{fill:none;stroke:#3c3c41;stroke-miterlimit:10;}.cls-19{fill:#3c3c41;}.cls-20{fill:#1e1e1e;}.cls-21{fill:#4f4f4f;}</style><linearGradient id="linear-gradient" x1="81.99" y1="984.27" x2="81.99" y2="1006.88" gradientTransform="translate(0 -833)" gradientUnits="userSpaceOnUse"><stop offset="0.22" stop-color="#32d4f5"/><stop offset="0.47" stop-color="#31d1f3"/><stop offset="0.63" stop-color="#2ec9eb"/><stop offset="0.77" stop-color="#29bade"/><stop offset="0.89" stop-color="#22a5cb"/><stop offset="1" stop-color="#198ab3"/></linearGradient><linearGradient id="linear-gradient-2" x1="81.33" y1="972.13" x2="82.98" y2="992.67" xlink:href="#linear-gradient"/><linearGradient id="linear-gradient-3" x1="81.99" y1="904.47" x2="81.99" y2="927.08" gradientTransform="translate(0 -833)" gradientUnits="userSpaceOnUse"><stop offset="0.1" stop-color="#54aef0"/><stop offset="1" stop-color="#1988d9"/></linearGradient><linearGradient id="linear-gradient-4" x1="81.33" y1="892.33" x2="82.98" y2="912.87" xlink:href="#linear-gradient-3"/><linearGradient id="linear-gradient-5" x1="200.55" y1="992.8" x2="200.55" y2="1022.65" gradientTransform="translate(0 -833)" gradientUnits="userSpaceOnUse"><stop offset="0" stop-color="#5ea0ef"/><stop offset="0.18" stop-color="#559cec"/><stop offset="0.47" stop-color="#3c91e5"/><stop offset="0.84" stop-color="#1380da"/><stop offset="1" stop-color="#0078d4"/></linearGradient><linearGradient id="linear-gradient-6" x1="195.55" y1="1022.96" x2="195.55" y2="1008.5" gradientTransform="translate(0 -833)" gradientUnits="userSpaceOnUse"><stop offset="0" stop-color="#198ab3"/><stop offset="0.14" stop-color="#22a5cb"/><stop offset="0.3" stop-color="#29bade"/><stop offset="0.47" stop-color="#2ec9eb"/><stop offset="0.68" stop-color="#31d1f3"/><stop offset="1" stop-color="#32d4f5"/></linearGradient><linearGradient id="linear-gradient-7" x1="321.6" y1="1004.76" x2="321.6" y2="982.8" gradientTransform="translate(0 -833)" gradientUnits="userSpaceOnUse"><stop offset="0" stop-color="#773adc"/><stop offset="0.25" stop-color="#9255e6"/><stop offset="0.5" stop-color="#a669ee"/><stop offset="0.76" stop-color="#b376f2"/><stop offset="1" stop-color="#b77af4"/></linearGradient><linearGradient id="linear-gradient-8" x1="321.62" y1="989.2" x2="321.62" y2="969.21" xlink:href="#linear-gradient-7"/><linearGradient id="linear-gradient-9" x1="321.6" y1="923.79" x2="321.6" y2="902.04" gradientTransform="translate(0 -833)" gradientUnits="userSpaceOnUse"><stop offset="0" stop-color="#5e9624"/><stop offset="0.26" stop-color="#70a828"/><stop offset="0.79" stop-color="#9fd732"/><stop offset="1" stop-color="#b4ec36"/></linearGradient><linearGradient id="linear-gradient-10" x1="321.67" y1="908.37" x2="321.67" y2="888.55" xlink:href="#linear-gradient-9"/></defs><title>OJ105365104</title><g id="backgroud"><g id="Shapes"><rect class="cls-1" width="374.67" height="220"/><rect class="cls-2" x="29.48" y="55" width="345.19" height="70"/><rect class="cls-2" x="29.48" y="134.8" width="345.19" height="85.2"/><rect class="cls-3" x="29.48" width="105" height="220"/><rect class="cls-3" x="269.1" width="105.57" height="220"/><path class="cls-4" d="M93.18,169.8a2.42,2.42,0,0,0,2.42-2.42h0a.66.66,0,0,0,0-.28c-1-7.62-5.28-13.82-13.62-13.82s-12.76,5.25-13.61,13.84a2.43,2.43,0,0,0,2.15,2.68Z"/><path class="cls-5" d="M82,155.08a7.66,7.66,0,0,1-4.13-1.21L82,164.57l4.07-10.64A7.6,7.6,0,0,1,82,155.08Z"/><circle class="cls-6" cx="82" cy="147.43" r="7.63"/><path class="cls-7" d="M93.18,90a2.42,2.42,0,0,0,2.42-2.42h0a.66.66,0,0,0,0-.28c-1-7.62-5.28-13.82-13.62-13.82S69.22,78.73,68.37,87.32A2.43,2.43,0,0,0,70.52,90Z"/><path class="cls-5" d="M82,75.28a7.66,7.66,0,0,1-4.13-1.21L82,84.77l4.07-10.64A7.51,7.51,0,0,1,82,75.28Z"/><circle class="cls-8" cx="82" cy="67.63" r="7.63"/><g id="b1186d34-5ca3-4e43-992d-40ecef5e891b"><path class="cls-9" d="M208.31,159.8H192.79a1,1,0,0,0-1,1v22.1a18.94,18.94,0,0,1,2.51-1.77h2.94l1.63,2.16v3.28l-2.05,1.49-2.86-.35-2.17-2.06v3a1,1,0,0,0,1,1h15.52a1,1,0,0,0,1-1V160.79A1,1,0,0,0,208.31,159.8Z"/><path id="af47f827-8b1b-4acd-8974-8eafe35490c9" class="cls-10" d="M194.1,162.9H197a.25.25,0,0,1,.25.25h0v3.68a.25.25,0,0,1-.25.25h-2.9a.25.25,0,0,1-.25-.25h0v-3.68A.25.25,0,0,1,194.1,162.9Zm5,0H202a.25.25,0,0,1,.25.25h0v3.68a.25.25,0,0,1-.25.25h-2.85a.25.25,0,0,1-.25-.25h0v-3.68a.25.25,0,0,1,.25-.25Zm5,0H207a.26.26,0,0,1,.24.25h0v3.68a.26.26,0,0,1-.24.25h-2.86a.25.25,0,0,1-.25-.25h0v-3.68a.25.25,0,0,1,.25-.25Zm-10,6.66H197a.25.25,0,0,1,.25.25h0v3.72a.25.25,0,0,1-.25.25h-2.9a.25.25,0,0,1-.25-.25h0v-3.68a.25.25,0,0,1,.2-.29h0Zm5,0H202a.25.25,0,0,1,.25.25h0v3.72a.25.25,0,0,1-.25.25h-2.85a.25.25,0,0,1-.25-.25h0v-3.68a.26.26,0,0,1,.21-.29Zm5,0H207a.26.26,0,0,1,.24.25h0v3.72a.26.26,0,0,1-.24.25h-2.86a.25.25,0,0,1-.25-.25h0v-3.68a.27.27,0,0,1,.21-.29Zm-10,6.74H197a.26.26,0,0,1,.25.24h0v3.65a.25.25,0,0,1-.25.25h-2.9a.25.25,0,0,1-.25-.25v-3.65A.26.26,0,0,1,194.1,176.3Zm5,0H202a.26.26,0,0,1,.25.24h0v3.65a.25.25,0,0,1-.25.25h-2.85a.25.25,0,0,1-.25-.25h0v-3.65a.25.25,0,0,1,.21-.24Zm0,6.69H202a.25.25,0,0,1,.25.25h0v5.46a.25.25,0,0,1-.25.25h-2.85a.25.25,0,0,1-.25-.25v-5.46a.25.25,0,0,1,.25-.25Zm5-6.69H207a.24.24,0,0,1,.24.24h0v3.65a.26.26,0,0,1-.24.25h-2.86a.25.25,0,0,1-.25-.25h0v-3.65a.26.26,0,0,1,.25-.24Z"/><path class="cls-11" d="M195.58,182a2.28,2.28,0,0,0-2.19,1.77h-8a5,5,0,0,0-.14,1.15V185h8.12a2.28,2.28,0,1,0,2.19-3Z"/><path class="cls-12" d="M201.79,181a5.79,5.79,0,0,0-6-5.51,5.93,5.93,0,0,0-5.67,3.86,5.63,5.63,0,0,0-4.5,3.54H193a3,3,0,1,1-.06,2.61h-7.5a5.67,5.67,0,0,0,5.6,4.3h10.1a4.65,4.65,0,0,0,4.6-4.29A4.61,4.61,0,0,0,201.79,181Z"/><path class="cls-11" d="M195.58,182a2.28,2.28,0,0,0-2.19,1.77h-8a3.85,3.85,0,0,1-.83-.11,4,4,0,0,1,.44-7.94h.39l.13-.35a4.51,4.51,0,0,1,4.36-3,4.67,4.67,0,0,1,4,2.25,5.38,5.38,0,0,1,1.33-.16,5.89,5.89,0,0,0-5.32-3.35,5.8,5.8,0,0,0-5.48,3.46,5.21,5.21,0,0,0-.4,10.2h0a3.53,3.53,0,0,0,1.29.21h8a2.29,2.29,0,0,0,4.39-1.32,2.3,2.3,0,0,0-2.2-1.63Z"/></g><polygon class="cls-13" points="191.55 98.25 214.67 98.25 202.17 76.63 198.42 87.13 205.67 95.75 191.55 98.25"/><polygon class="cls-13" points="201.17 75 192.3 82.5 184.67 95.63 191.55 95.63 191.55 95.75 201.17 75"/><path class="cls-14" d="M332.45,169.8a2.36,2.36,0,0,0,2.37-2.34h0v-.28c-.93-7.39-5.14-13.41-13.19-13.41s-12.35,5.09-13.23,13.42a2.37,2.37,0,0,0,2.1,2.61Z"/><path class="cls-1" d="M321.62,155.52a7.47,7.47,0,0,1-4-1.17l4,10.33,3.86-10.28A7.21,7.21,0,0,1,321.62,155.52Z"/><circle class="cls-15" cx="321.62" cy="148.12" r="7.42"/><path class="cls-16" d="M332.34,88.85a2.29,2.29,0,0,0,2.33-2.25h0a1.31,1.31,0,0,0,0-.28C333.75,78.94,329.59,73,321.61,73s-12.21,5-13.07,13.31a2.35,2.35,0,0,0,2.1,2.57Z"/><path class="cls-1" d="M321.75,74.7a7.35,7.35,0,0,1-4-1.16l3.84,10.28,3.92-10.21A7.44,7.44,0,0,1,321.75,74.7Z"/><circle class="cls-17" cx="321.67" cy="67.36" r="7.36"/><line class="cls-18" x1="104.67" y1="85" x2="174.29" y2="85"/><polygon class="cls-19" points="173.2 88.74 179.67 85 173.2 81.26 173.2 88.74"/><line class="cls-18" x1="225.06" y1="85" x2="299.67" y2="85"/><polygon class="cls-19" points="226.15 88.74 219.67 85 226.15 81.26 226.15 88.74"/><line class="cls-18" x1="104.67" y1="167.07" x2="174.29" y2="167.07"/><polygon class="cls-19" points="173.2 170.81 179.67 167.06 173.2 163.33 173.2 170.81"/><line class="cls-18" x1="225.06" y1="167.07" x2="299.67" y2="167.07"/><polygon class="cls-19" points="226.15 170.81 219.67 167.06 226.15 163.33 226.15 170.81"/></g></g><g id="txt"><path class="cls-20" d="M301.08,16.65h-2l-.57-1.87h-2.87l-.57,1.87h-2L296,8.25h2.16Zm-3-3.32-.87-2.82a4.78,4.78,0,0,1-.13-.76h-.05a2.62,2.62,0,0,1-.14.73L296,13.33Z"/><path class="cls-20" d="M305.85,12.32a1.49,1.49,0,0,0-.75-.18,1.08,1.08,0,0,0-.91.44,2.07,2.07,0,0,0-.32,1.21v2.86h-1.78v-6h1.78v1.12h0a1.54,1.54,0,0,1,1.52-1.22,1,1,0,0,1,.44.07Z"/><path class="cls-20" d="M311.18,16.44a3.42,3.42,0,0,1-1.74.36,2.87,2.87,0,0,1-2.15-.84,3,3,0,0,1-.83-2.16,3.25,3.25,0,0,1,.89-2.41,3.16,3.16,0,0,1,2.36-.88,2.89,2.89,0,0,1,1.47.28v1.57a2,2,0,0,0-1.24-.44,1.61,1.61,0,0,0-1.22.47,1.78,1.78,0,0,0-.45,1.29,1.79,1.79,0,0,0,.43,1.25,1.56,1.56,0,0,0,1.18.45,2.27,2.27,0,0,0,1.3-.43Z"/><path class="cls-20" d="M318.06,16.65h-1.77V13.24q0-1.32-.93-1.32a1,1,0,0,0-.77.37,1.5,1.5,0,0,0-.29.94v3.42h-1.78V7.77h1.78v3.77h0a2,2,0,0,1,1.78-1c1.31,0,2,.82,2,2.46Z"/><path class="cls-20" d="M320.54,9.7a1,1,0,0,1-.73-.28.91.91,0,0,1-.29-.68.89.89,0,0,1,.29-.68,1.05,1.05,0,0,1,.73-.26,1.09,1.09,0,0,1,.75.26.88.88,0,0,1,.28.68.9.9,0,0,1-.28.69A1,1,0,0,1,320.54,9.7Zm.88,7h-1.78v-6h1.78Z"/><path class="cls-20" d="M326.58,16.58a2.42,2.42,0,0,1-1.18.22c-1.26,0-1.89-.68-1.89-2V12h-.93V10.65h.93V9.36l1.78-.53v1.82h1.29V12h-1.29v2.42c0,.63.24.94.71.94a1.17,1.17,0,0,0,.58-.17Z"/><path class="cls-20" d="M332.9,14.18h-3.76c.06.87.59,1.31,1.58,1.31A3.05,3.05,0,0,0,332.4,15v1.33a4.25,4.25,0,0,1-2.08.45,2.84,2.84,0,0,1-2.17-.81,3.07,3.07,0,0,1-.78-2.24,3.27,3.27,0,0,1,.84-2.37,2.72,2.72,0,0,1,2.05-.87,2.47,2.47,0,0,1,1.95.78,3,3,0,0,1,.69,2.11ZM331.25,13c0-.86-.33-1.29-1-1.29a.94.94,0,0,0-.74.37,1.69,1.69,0,0,0-.38.92Z"/><path class="cls-20" d="M338.51,16.44a3.42,3.42,0,0,1-1.74.36,2.89,2.89,0,0,1-2.16-.84,3,3,0,0,1-.82-2.16,3.25,3.25,0,0,1,.88-2.41,3.19,3.19,0,0,1,2.36-.88,2.93,2.93,0,0,1,1.48.28v1.57a2,2,0,0,0-1.25-.44,1.6,1.6,0,0,0-1.21.47,1.78,1.78,0,0,0-.45,1.29,1.74,1.74,0,0,0,.43,1.25,1.54,1.54,0,0,0,1.18.45,2.29,2.29,0,0,0,1.3-.43Z"/><path class="cls-20" d="M343.34,16.58a2.49,2.49,0,0,1-1.19.22c-1.26,0-1.89-.68-1.89-2V12h-.93V10.65h.93V9.36L342,8.83v1.82h1.3V12H342v2.42c0,.63.24.94.72.94a1.23,1.23,0,0,0,.58-.17Z"/><path class="cls-20" d="M349.65,14.18h-3.76c.06.87.59,1.31,1.58,1.31a3,3,0,0,0,1.68-.47v1.33a4.25,4.25,0,0,1-2.08.45A2.84,2.84,0,0,1,344.9,16a3.06,3.06,0,0,1-.77-2.24,3.26,3.26,0,0,1,.83-2.37,2.72,2.72,0,0,1,2.05-.87,2.47,2.47,0,0,1,1.95.78,3,3,0,0,1,.69,2.11ZM348,13c0-.86-.33-1.29-1-1.29a1,1,0,0,0-.74.37,1.69,1.69,0,0,0-.38.92Z"/><path class="cls-20" d="M296.54,29.49V28a3.48,3.48,0,0,0,.88.41,2.77,2.77,0,0,0,.82.14,1.7,1.7,0,0,0,.75-.14.43.43,0,0,0,.27-.41.4.4,0,0,0-.12-.29.92.92,0,0,0-.32-.2,2.61,2.61,0,0,0-.42-.16,4.72,4.72,0,0,1-.45-.16,5,5,0,0,1-.61-.29,1.73,1.73,0,0,1-.44-.36,1.87,1.87,0,0,1-.27-.48,2,2,0,0,1-.09-.63,1.7,1.7,0,0,1,.21-.87,1.81,1.81,0,0,1,.57-.6,2.76,2.76,0,0,1,.8-.34,4.19,4.19,0,0,1,.95-.1,5.09,5.09,0,0,1,.77.06,4.92,4.92,0,0,1,.78.18v1.43a2.7,2.7,0,0,0-.72-.31,2.89,2.89,0,0,0-.76-.1,1.69,1.69,0,0,0-.33,0,1.07,1.07,0,0,0-.27.09.6.6,0,0,0-.19.16.34.34,0,0,0-.07.22.45.45,0,0,0,.1.28.79.79,0,0,0,.27.2,3,3,0,0,0,.36.16l.4.13a5.56,5.56,0,0,1,.64.28,2.07,2.07,0,0,1,.49.36,1.39,1.39,0,0,1,.32.48,1.86,1.86,0,0,1,.11.66,1.75,1.75,0,0,1-.22.91,1.81,1.81,0,0,1-.59.61,2.58,2.58,0,0,1-.85.35,5,5,0,0,1-2.77-.2Z"/><path class="cls-20" d="M304.92,29.8a3,3,0,0,1-2.27-.84,3.11,3.11,0,0,1-.82-2.28,3.1,3.1,0,0,1,.85-2.33,3.18,3.18,0,0,1,2.32-.84,3,3,0,0,1,2.25.84,3,3,0,0,1,.82,2.22,3.24,3.24,0,0,1-.84,2.36A3.06,3.06,0,0,1,304.92,29.8Zm0-4.88a1.16,1.16,0,0,0-1,.46,2,2,0,0,0-.35,1.27c0,1.15.45,1.73,1.35,1.73s1.28-.59,1.28-1.77S305.83,24.92,305,24.92Z"/><path class="cls-20" d="M311.18,29.65H309.4V20.77h1.78Z"/><path class="cls-20" d="M318.34,29.65h-1.78v-.91h0a2,2,0,0,1-1.76,1.06c-1.34,0-2-.84-2-2.53V23.65h1.78v3.46c0,.85.32,1.27,1,1.27a.94.94,0,0,0,.76-.35,1.39,1.39,0,0,0,.29-.94V23.65h1.78Z"/><path class="cls-20" d="M323.5,29.58a2.47,2.47,0,0,1-1.19.22c-1.26,0-1.88-.68-1.88-2V25h-.94V23.65h.94V22.36l1.77-.53v1.82h1.3V25h-1.3v2.42c0,.63.24.94.72.94a1.2,1.2,0,0,0,.58-.17Z"/><path class="cls-20" d="M325.58,22.7a1,1,0,0,1-.74-.28.91.91,0,0,1-.29-.68.89.89,0,0,1,.29-.68,1.18,1.18,0,0,1,1.48,0,.88.88,0,0,1,.28.68.9.9,0,0,1-.28.69A1,1,0,0,1,325.58,22.7Zm.88,7h-1.79v-6h1.79Z"/><path class="cls-20" d="M330.88,29.8a3,3,0,0,1-2.27-.84,3.11,3.11,0,0,1-.82-2.28,3.1,3.1,0,0,1,.85-2.33,3.16,3.16,0,0,1,2.32-.84,3,3,0,0,1,2.25.84,3,3,0,0,1,.82,2.22,3.24,3.24,0,0,1-.84,2.36A3.06,3.06,0,0,1,330.88,29.8Zm0-4.88a1.16,1.16,0,0,0-1,.46,2,2,0,0,0-.35,1.27c0,1.15.45,1.73,1.35,1.73s1.27-.59,1.27-1.77S331.78,24.92,330.92,24.92Z"/><path class="cls-20" d="M340.93,29.65h-1.77V26.32c0-.93-.32-1.4-1-1.4a1,1,0,0,0-.76.37,1.45,1.45,0,0,0-.3.94v3.42h-1.78v-6h1.78v1h0A2,2,0,0,1,339,23.51c1.27,0,1.91.82,1.91,2.47Z"/><path class="cls-20" d="M342.14,29.49V28a3.42,3.42,0,0,0,.87.41,2.83,2.83,0,0,0,.83.14,1.68,1.68,0,0,0,.74-.14.42.42,0,0,0,.28-.41.37.37,0,0,0-.13-.29.87.87,0,0,0-.31-.2,2.73,2.73,0,0,0-.43-.16l-.44-.16a4.36,4.36,0,0,1-.61-.29,1.57,1.57,0,0,1-.44-.36,1.42,1.42,0,0,1-.27-.48,2,2,0,0,1-.09-.63,1.7,1.7,0,0,1,.21-.87,1.89,1.89,0,0,1,.56-.6,3,3,0,0,1,.81-.34,4.11,4.11,0,0,1,.94-.1,5.12,5.12,0,0,1,.78.06,5.49,5.49,0,0,1,.78.18v1.43a2.77,2.77,0,0,0-.73-.31,2.84,2.84,0,0,0-.76-.1,1.66,1.66,0,0,0-.32,0,1,1,0,0,0-.28.09.47.47,0,0,0-.18.16.34.34,0,0,0-.07.22.4.4,0,0,0,.1.28.86.86,0,0,0,.26.2,2.57,2.57,0,0,0,.37.16L345,26a5.76,5.76,0,0,1,.65.28,2.3,2.3,0,0,1,.49.36,1.55,1.55,0,0,1,.32.48,1.86,1.86,0,0,1,.11.66,1.76,1.76,0,0,1-.23.91,1.64,1.64,0,0,1-.59.61,2.5,2.5,0,0,1-.85.35,4.64,4.64,0,0,1-1,.11A4.83,4.83,0,0,1,342.14,29.49Z"/><path class="cls-20" d="M313.48,42.65h-2l-.58-1.87h-2.87l-.57,1.87h-2l2.95-8.4h2.16Zm-3-3.32-.86-2.82a3.82,3.82,0,0,1-.14-.76h0a3.06,3.06,0,0,1-.15.73l-.87,2.85Z"/><path class="cls-20" d="M319.06,42.65h-5.18v-.77l2.9-3.86h-2.61V36.65H319v.92l-2.75,3.72h2.77Z"/><path class="cls-20" d="M325.67,42.65H323.9v-.91h0a2,2,0,0,1-1.76,1.06c-1.34,0-2-.84-2-2.53V36.65h1.78v3.46c0,.85.32,1.27,1,1.27a1,1,0,0,0,.77-.35,1.45,1.45,0,0,0,.29-.94V36.65h1.77Z"/><path class="cls-20" d="M331.11,38.32a1.49,1.49,0,0,0-.75-.18,1.08,1.08,0,0,0-.91.44,2.07,2.07,0,0,0-.32,1.21v2.86h-1.78v-6h1.78v1.12h0a1.54,1.54,0,0,1,1.52-1.22,1,1,0,0,1,.44.07Z"/><path class="cls-20" d="M337.25,40.18h-3.76c.06.87.59,1.31,1.58,1.31a3.05,3.05,0,0,0,1.68-.47v1.33a4.25,4.25,0,0,1-2.08.45A2.84,2.84,0,0,1,332.5,42a3.07,3.07,0,0,1-.78-2.24,3.27,3.27,0,0,1,.84-2.37,2.72,2.72,0,0,1,2.05-.87,2.47,2.47,0,0,1,1.95.78,3,3,0,0,1,.69,2.11ZM335.6,39c0-.86-.33-1.29-1-1.29a1,1,0,0,0-.74.37,1.69,1.69,0,0,0-.38.92Z"/><path d="M33.1,45H32.05l-.85-2.26H27.78L27,45H25.93L29,37h1Zm-2.21-3.11-1.26-3.43a3,3,0,0,1-.13-.54h0a3.06,3.06,0,0,1-.13.54L28.1,41.89Z"/><path d="M39.07,45h-.92V44h0a2.11,2.11,0,0,1-2,1.11,2.15,2.15,0,0,1-1.74-.77,3.16,3.16,0,0,1-.64-2.1A3.47,3.47,0,0,1,34.48,40a2.38,2.38,0,0,1,1.92-.85,1.84,1.84,0,0,1,1.72.93h0V36.49h.92Zm-.92-2.6v-.85a1.65,1.65,0,0,0-.47-1.18,1.52,1.52,0,0,0-1.16-.48,1.61,1.61,0,0,0-1.33.62,2.71,2.71,0,0,0-.48,1.7,2.41,2.41,0,0,0,.46,1.57,1.51,1.51,0,0,0,1.25.58,1.6,1.6,0,0,0,1.25-.56A2.1,2.1,0,0,0,38.15,42.4Z"/><path d="M49.09,45h-.92V41.7a2.44,2.44,0,0,0-.29-1.38,1.11,1.11,0,0,0-1-.43,1.21,1.21,0,0,0-1,.54,2,2,0,0,0-.42,1.29V45h-.92V41.59c0-1.13-.43-1.7-1.31-1.7a1.23,1.23,0,0,0-1,.51,2.11,2.11,0,0,0-.39,1.32V45h-.92V39.25h.92v.91h0a2,2,0,0,1,1.79-1,1.63,1.63,0,0,1,1.63,1.19,2,2,0,0,1,1.91-1.19q1.89,0,1.89,2.34Z"/><path d="M51.31,37.79a.57.57,0,0,1-.42-.17.55.55,0,0,1-.18-.43.62.62,0,0,1,.6-.6.58.58,0,0,1,.43.18.57.57,0,0,1,.17.42.58.58,0,0,1-.6.6ZM51.76,45h-.93V39.25h.93Z"/><path d="M58.39,45h-.92V41.72c0-1.22-.44-1.83-1.33-1.83a1.45,1.45,0,0,0-1.15.52,1.93,1.93,0,0,0-.45,1.31V45h-.92V39.25h.92v1h0a2.09,2.09,0,0,1,1.89-1.08,1.76,1.76,0,0,1,1.44.6,2.69,2.69,0,0,1,.5,1.76Z"/><path d="M60.6,37.79a.59.59,0,0,1-.42-.17.55.55,0,0,1-.18-.43.54.54,0,0,1,.18-.42.56.56,0,0,1,.42-.18.58.58,0,0,1,.43.18.54.54,0,0,1,.18.42.58.58,0,0,1-.18.43A.61.61,0,0,1,60.6,37.79ZM61.05,45h-.92V39.25h.92Z"/><path d="M62.57,44.79v-1a2.72,2.72,0,0,0,1.65.56c.81,0,1.21-.27,1.21-.81a.71.71,0,0,0-.1-.39.93.93,0,0,0-.28-.28,1.67,1.67,0,0,0-.42-.22l-.51-.21a5.29,5.29,0,0,1-.67-.31A2,2,0,0,1,63,41.8a1.43,1.43,0,0,1-.3-.44,1.72,1.72,0,0,1-.09-.58,1.43,1.43,0,0,1,.18-.72,1.65,1.65,0,0,1,.5-.52,2.24,2.24,0,0,1,.7-.32,3.18,3.18,0,0,1,.82-.1,3.29,3.29,0,0,1,1.33.25v.94a2.58,2.58,0,0,0-1.46-.42,1.65,1.65,0,0,0-.46.06,1.19,1.19,0,0,0-.36.16.94.94,0,0,0-.23.26.73.73,0,0,0-.08.33.89.89,0,0,0,.08.38.85.85,0,0,0,.24.26,1.9,1.9,0,0,0,.38.22l.51.21a4.46,4.46,0,0,1,.69.3,2.51,2.51,0,0,1,.51.34,1.19,1.19,0,0,1,.33.45,1.4,1.4,0,0,1,.12.6,1.36,1.36,0,0,1-.19.74,1.55,1.55,0,0,1-.5.52A2.09,2.09,0,0,1,65,45a3.44,3.44,0,0,1-.86.1A3.2,3.2,0,0,1,62.57,44.79Z"/><path d="M70.46,44.94a1.77,1.77,0,0,1-.86.18c-1,0-1.51-.56-1.51-1.68V40h-1v-.79h1v-1.4l.92-.3v1.7h1.45V40H69v3.24a1.33,1.33,0,0,0,.2.82.77.77,0,0,0,.65.25,1,1,0,0,0,.6-.19Z"/><path d="M74.69,40.18A1.15,1.15,0,0,0,74,40a1.16,1.16,0,0,0-1,.55,2.54,2.54,0,0,0-.4,1.52V45h-.92V39.25h.92v1.18h0a2.09,2.09,0,0,1,.6-.94,1.37,1.37,0,0,1,.91-.34,1.56,1.56,0,0,1,.55.08Z"/><path d="M79.8,45h-.92v-.9h0a1.92,1.92,0,0,1-1.77,1,1.89,1.89,0,0,1-1.34-.45,1.56,1.56,0,0,1-.49-1.21c0-1.07.63-1.7,1.9-1.87l1.72-.24c0-1-.39-1.47-1.18-1.47a2.86,2.86,0,0,0-1.88.71v-1a3.58,3.58,0,0,1,2-.53c1.35,0,2,.71,2,2.14Zm-.92-2.91-1.38.19a2.29,2.29,0,0,0-1,.32.91.91,0,0,0-.32.81.85.85,0,0,0,.3.68,1.14,1.14,0,0,0,.8.27,1.49,1.49,0,0,0,1.13-.48,1.76,1.76,0,0,0,.44-1.22Z"/><path d="M84.21,44.94a1.8,1.8,0,0,1-.86.18c-1,0-1.51-.56-1.51-1.68V40h-1v-.79h1v-1.4l.92-.3v1.7h1.45V40H82.76v3.24a1.34,1.34,0,0,0,.19.82.78.78,0,0,0,.66.25,1,1,0,0,0,.6-.19Z"/><path d="M90.06,42.36H86a2.17,2.17,0,0,0,.51,1.48,1.79,1.79,0,0,0,1.36.52,2.81,2.81,0,0,0,1.79-.64v.86a3.32,3.32,0,0,1-2,.55,2.42,2.42,0,0,1-1.91-.78,3.23,3.23,0,0,1-.7-2.2A3.17,3.17,0,0,1,85.8,40a2.45,2.45,0,0,1,1.89-.84,2.15,2.15,0,0,1,1.75.73,3,3,0,0,1,.62,2Zm-1-.79a1.87,1.87,0,0,0-.38-1.24,1.32,1.32,0,0,0-1-.44,1.49,1.49,0,0,0-1.11.47A2.1,2.1,0,0,0,86,41.57Z"/><path d="M96.1,45h-.92v-.91h0a1.9,1.9,0,0,1-1.78,1c-1.37,0-2-.81-2-2.44V39.25h.91v3.29c0,1.21.47,1.82,1.39,1.82a1.42,1.42,0,0,0,1.11-.5,1.89,1.89,0,0,0,.44-1.3V39.25h.92Z"/><path d="M101,40.18a1.17,1.17,0,0,0-.7-.18,1.19,1.19,0,0,0-1,.55,2.61,2.61,0,0,0-.39,1.52V45H98V39.25h.92v1.18h0a2,2,0,0,1,.6-.94,1.36,1.36,0,0,1,.91-.34,1.56,1.56,0,0,1,.55.08Z"/><path d="M101.61,44.79v-1a2.72,2.72,0,0,0,1.65.56c.81,0,1.22-.27,1.22-.81a.71.71,0,0,0-.11-.39.93.93,0,0,0-.28-.28,1.6,1.6,0,0,0-.41-.22l-.52-.21a6,6,0,0,1-.67-.31,2,2,0,0,1-.48-.34,1.25,1.25,0,0,1-.29-.44,1.5,1.5,0,0,1-.1-.58,1.43,1.43,0,0,1,.18-.72,1.65,1.65,0,0,1,.5-.52,2.24,2.24,0,0,1,.7-.32,3.23,3.23,0,0,1,.82-.1,3.37,3.37,0,0,1,1.34.25v.94a2.6,2.6,0,0,0-1.46-.42,1.68,1.68,0,0,0-.47.06,1.19,1.19,0,0,0-.36.16.94.94,0,0,0-.23.26.73.73,0,0,0-.08.33.89.89,0,0,0,.08.38.85.85,0,0,0,.24.26,2.24,2.24,0,0,0,.38.22l.52.21a4.79,4.79,0,0,1,.68.3,2.92,2.92,0,0,1,.52.34,1.45,1.45,0,0,1,.33.45,1.57,1.57,0,0,1,.11.6,1.36,1.36,0,0,1-.19.74,1.46,1.46,0,0,1-.5.52A2.12,2.12,0,0,1,104,45a3.49,3.49,0,0,1-.86.1A3.24,3.24,0,0,1,101.61,44.79Z"/><path d="M116.34,45h-1l-.86-2.26H111l-.8,2.26h-1l3.09-8h1Zm-2.2-3.11-1.27-3.43a3.25,3.25,0,0,1-.12-.54h0a3.06,3.06,0,0,1-.13.54l-1.25,3.43Z"/><path d="M121.41,39.51l-3.4,4.7h3.37V45h-4.72v-.29l3.4-4.67H117v-.79h4.43Z"/><path d="M127.25,45h-.92v-.91h0a1.87,1.87,0,0,1-1.77,1c-1.37,0-2.06-.81-2.06-2.44V39.25h.92v3.29c0,1.21.46,1.82,1.39,1.82a1.42,1.42,0,0,0,1.11-.5,1.89,1.89,0,0,0,.43-1.3V39.25h.92Z"/><path d="M132.11,40.18a1.15,1.15,0,0,0-.7-.18,1.16,1.16,0,0,0-1,.55,2.54,2.54,0,0,0-.4,1.52V45h-.92V39.25H130v1.18h0a2.11,2.11,0,0,1,.61-.94,1.35,1.35,0,0,1,.9-.34,1.56,1.56,0,0,1,.55.08Z"/><path d="M137.73,42.36h-4.06a2.17,2.17,0,0,0,.52,1.48,1.77,1.77,0,0,0,1.36.52,2.8,2.8,0,0,0,1.78-.64v.86a3.29,3.29,0,0,1-2,.55,2.46,2.46,0,0,1-1.92-.78,3.22,3.22,0,0,1-.69-2.2,3.12,3.12,0,0,1,.76-2.19,2.43,2.43,0,0,1,1.89-.84,2.14,2.14,0,0,1,1.74.73,3,3,0,0,1,.62,2Zm-.94-.79a1.88,1.88,0,0,0-.39-1.24,1.32,1.32,0,0,0-1.05-.44,1.52,1.52,0,0,0-1.11.47,2.1,2.1,0,0,0-.56,1.21Z"/><path class="cls-21" d="M116.94,76.73q0,3.39-3.06,3.39c-2,0-2.93-1.09-2.93-3.27V71.93h.94v4.86c0,1.65.7,2.48,2.09,2.48s2-.8,2-2.39V71.93h.94Z"/><path class="cls-21" d="M121.49,79.93a1.75,1.75,0,0,1-.86.18c-1,0-1.51-.57-1.51-1.69V75h-1v-.79h1v-1.4l.92-.3v1.7h1.45V75H120v3.24a1.33,1.33,0,0,0,.2.82.77.77,0,0,0,.65.25,1,1,0,0,0,.6-.19Z"/><path class="cls-21" d="M123.19,72.77a.57.57,0,0,1-.42-.17.57.57,0,0,1-.17-.42.58.58,0,0,1,.17-.43.57.57,0,0,1,.42-.17.56.56,0,0,1,.43.17.55.55,0,0,1,.18.43.58.58,0,0,1-.18.42A.6.6,0,0,1,123.19,72.77Zm.45,7.21h-.92V74.23h.92Z"/><path class="cls-21" d="M126.43,80h-.92V71.47h.92Z"/><path class="cls-21" d="M128.76,72.77a.57.57,0,0,1-.42-.17.57.57,0,0,1-.17-.42.58.58,0,0,1,.17-.43.57.57,0,0,1,.42-.17.56.56,0,0,1,.43.17.55.55,0,0,1,.18.43.58.58,0,0,1-.18.42A.6.6,0,0,1,128.76,72.77Zm.45,7.21h-.92V74.23h.92Z"/><path class="cls-21" d="M130.73,79.77v-1a2.71,2.71,0,0,0,1.66.55c.8,0,1.21-.27,1.21-.81a.81.81,0,0,0-.1-.39,1.11,1.11,0,0,0-.29-.28,1.75,1.75,0,0,0-.41-.22l-.51-.21c-.26-.1-.48-.2-.68-.3a2.29,2.29,0,0,1-.48-.35,1.25,1.25,0,0,1-.29-.44,1.5,1.5,0,0,1-.1-.58,1.34,1.34,0,0,1,.19-.72,1.62,1.62,0,0,1,.49-.52,2.3,2.3,0,0,1,.71-.32,3.1,3.1,0,0,1,.81-.1,3.17,3.17,0,0,1,1.34.26v.93a2.58,2.58,0,0,0-1.46-.42,1.73,1.73,0,0,0-.47.06,1,1,0,0,0-.35.17.68.68,0,0,0-.23.25.63.63,0,0,0-.09.33.74.74,0,0,0,.09.38.83.83,0,0,0,.23.27,2.35,2.35,0,0,0,.39.21l.51.21a4.79,4.79,0,0,1,.68.3,2.25,2.25,0,0,1,.52.35,1.41,1.41,0,0,1,.33.44,1.57,1.57,0,0,1,.11.6,1.34,1.34,0,0,1-.19.74,1.58,1.58,0,0,1-.5.53,2.34,2.34,0,0,1-.72.31,4,4,0,0,1-.86.1A3.24,3.24,0,0,1,130.73,79.77Z"/><path class="cls-21" d="M140.07,80h-.92v-.9h0a1.93,1.93,0,0,1-1.77,1,1.85,1.85,0,0,1-1.34-.46,1.55,1.55,0,0,1-.49-1.21c0-1.07.63-1.7,1.9-1.87l1.72-.24c0-1-.39-1.47-1.18-1.47a2.86,2.86,0,0,0-1.88.71v-.94a3.58,3.58,0,0,1,2-.54c1.35,0,2,.71,2,2.14Zm-.92-2.91-1.38.19a2.29,2.29,0,0,0-1,.32.91.91,0,0,0-.33.81.89.89,0,0,0,.3.69,1.2,1.2,0,0,0,.8.26,1.5,1.5,0,0,0,1.14-.48,1.73,1.73,0,0,0,.44-1.21Z"/><path class="cls-21" d="M144.48,79.93a1.8,1.8,0,0,1-.86.18c-1,0-1.51-.57-1.51-1.69V75h-1v-.79h1v-1.4l.92-.3v1.7h1.45V75H143v3.24a1.34,1.34,0,0,0,.19.82.78.78,0,0,0,.66.25,1,1,0,0,0,.6-.19Z"/><path class="cls-21" d="M146.18,72.77a.54.54,0,0,1-.42-.17.54.54,0,0,1-.18-.42.55.55,0,0,1,.18-.43.54.54,0,0,1,.42-.17.57.57,0,0,1,.43.17.58.58,0,0,1,.17.43.61.61,0,0,1-.17.42A.61.61,0,0,1,146.18,72.77Zm.45,7.21h-.92V74.23h.92Z"/><path class="cls-21" d="M150.89,80.12a2.65,2.65,0,0,1-2-.81,3,3,0,0,1-.76-2.14,3.1,3.1,0,0,1,.79-2.26A2.86,2.86,0,0,1,151,74.1a2.57,2.57,0,0,1,2,.79,3.14,3.14,0,0,1,.72,2.19,3.09,3.09,0,0,1-.78,2.21A2.73,2.73,0,0,1,150.89,80.12Zm.07-5.25a1.72,1.72,0,0,0-1.4.61,2.43,2.43,0,0,0-.52,1.66,2.33,2.33,0,0,0,.52,1.61,1.76,1.76,0,0,0,1.4.59,1.66,1.66,0,0,0,1.37-.58,2.49,2.49,0,0,0,.48-1.64,2.55,2.55,0,0,0-.48-1.66A1.67,1.67,0,0,0,151,74.87Z"/><path class="cls-21" d="M160,80h-.92V76.7c0-1.22-.44-1.83-1.34-1.83a1.46,1.46,0,0,0-1.14.52,1.93,1.93,0,0,0-.45,1.31V80h-.92V74.23h.92v1h0a2.08,2.08,0,0,1,1.89-1.09,1.74,1.74,0,0,1,1.44.61,2.66,2.66,0,0,1,.5,1.76Z"/><path class="cls-21" d="M260.54,80.12A3.57,3.57,0,0,1,257.79,79a4.21,4.21,0,0,1-1-2.94,4.44,4.44,0,0,1,1.05-3.1,3.69,3.69,0,0,1,2.86-1.16,3.47,3.47,0,0,1,2.69,1.13,4.2,4.2,0,0,1,1,2.93A4.43,4.43,0,0,1,263.33,79,3.59,3.59,0,0,1,260.54,80.12Zm.06-7.47a2.6,2.6,0,0,0-2.06.91,4.08,4.08,0,0,0,0,4.8,2.52,2.52,0,0,0,2,.91,2.64,2.64,0,0,0,2.09-.87,3.56,3.56,0,0,0,.76-2.42,3.71,3.71,0,0,0-.74-2.46A2.56,2.56,0,0,0,260.6,72.65Z"/><path class="cls-21" d="M266.78,79.15h0v3.48h-.92v-8.4h.92v1h0a2.18,2.18,0,0,1,2-1.14,2.07,2.07,0,0,1,1.73.77,3.16,3.16,0,0,1,.63,2.07,3.56,3.56,0,0,1-.71,2.31,2.31,2.31,0,0,1-1.92.87A1.94,1.94,0,0,1,266.78,79.15Zm0-2.32v.8a1.69,1.69,0,0,0,.46,1.21,1.51,1.51,0,0,0,1.18.5,1.53,1.53,0,0,0,1.31-.64,2.92,2.92,0,0,0,.47-1.78,2.27,2.27,0,0,0-.44-1.5,1.46,1.46,0,0,0-1.2-.55,1.62,1.62,0,0,0-1.29.56A2,2,0,0,0,266.76,76.83Z"/><path class="cls-21" d="M277.22,77.34h-4.06a2.12,2.12,0,0,0,.52,1.48,1.77,1.77,0,0,0,1.36.52,2.8,2.8,0,0,0,1.78-.64v.87a3.36,3.36,0,0,1-2,.55,2.42,2.42,0,0,1-1.92-.79,3.21,3.21,0,0,1-.69-2.2,3.14,3.14,0,0,1,.76-2.19,2.43,2.43,0,0,1,1.89-.84,2.14,2.14,0,0,1,1.74.73,3,3,0,0,1,.62,2Zm-.94-.78a1.89,1.89,0,0,0-.39-1.24,1.29,1.29,0,0,0-1.05-.45,1.5,1.5,0,0,0-1.11.47,2.13,2.13,0,0,0-.56,1.22Zm-.15-5.26-1.47,1.84H274l1.25-1.84Z"/><path class="cls-21" d="M281.61,75.16a1.15,1.15,0,0,0-.7-.18,1.16,1.16,0,0,0-1,.55,2.63,2.63,0,0,0-.4,1.52V80h-.92V74.23h.92v1.19h0a2,2,0,0,1,.6-1,1.35,1.35,0,0,1,.9-.34,1.56,1.56,0,0,1,.55.08Z"/><path class="cls-21" d="M287.23,77.34h-4.06a2.17,2.17,0,0,0,.52,1.48,1.77,1.77,0,0,0,1.36.52,2.8,2.8,0,0,0,1.78-.64v.87a3.36,3.36,0,0,1-2,.55,2.43,2.43,0,0,1-1.92-.79,3.21,3.21,0,0,1-.69-2.2,3.14,3.14,0,0,1,.76-2.19,2.45,2.45,0,0,1,1.89-.84,2.14,2.14,0,0,1,1.74.73,3,3,0,0,1,.62,2Zm-.94-.78a1.84,1.84,0,0,0-.39-1.24,1.29,1.29,0,0,0-1-.45,1.52,1.52,0,0,0-1.11.47,2.13,2.13,0,0,0-.56,1.22Z"/><path class="cls-21" d="M291.62,75.16a1.13,1.13,0,0,0-.69-.18,1.18,1.18,0,0,0-1,.55,2.63,2.63,0,0,0-.4,1.52V80h-.92V74.23h.92v1.19h0a2,2,0,0,1,.6-1,1.35,1.35,0,0,1,.9-.34,1.52,1.52,0,0,1,.55.08Z"/><path class="cls-21" d="M116.94,158.77c0,2.26-1,3.4-3.06,3.4S111,161.08,111,158.9V154h.94v4.86c0,1.65.7,2.48,2.09,2.48s2-.8,2-2.4V154h.94Z"/><path class="cls-21" d="M121.49,162a1.75,1.75,0,0,1-.86.18c-1,0-1.51-.56-1.51-1.68v-3.4h-1v-.79h1v-1.4l.92-.3v1.7h1.45v.79H120v3.24a1.33,1.33,0,0,0,.2.82.77.77,0,0,0,.65.25,1,1,0,0,0,.6-.19Z"/><path class="cls-21" d="M123.19,154.82a.61.61,0,0,1-.42-.17.58.58,0,0,1-.17-.43.61.61,0,0,1,.17-.43.61.61,0,0,1,.42-.17.6.6,0,0,1,.43.17.6.6,0,0,1,0,.86A.6.6,0,0,1,123.19,154.82Zm.45,7.21h-.92v-5.75h.92Z"/><path class="cls-21" d="M126.43,162h-.92v-8.51h.92Z"/><path class="cls-21" d="M128.76,154.82a.61.61,0,0,1-.42-.17.58.58,0,0,1-.17-.43.61.61,0,0,1,.17-.43.61.61,0,0,1,.42-.17.6.6,0,0,1,.43.17.6.6,0,0,1,0,.86A.6.6,0,0,1,128.76,154.82Zm.45,7.21h-.92v-5.75h.92Z"/><path class="cls-21" d="M130.73,161.82v-1a2.66,2.66,0,0,0,1.66.56c.8,0,1.21-.27,1.21-.81a.81.81,0,0,0-.1-.39,1,1,0,0,0-.29-.28,1.75,1.75,0,0,0-.41-.22l-.51-.21a5.47,5.47,0,0,1-.68-.31,2,2,0,0,1-.48-.34,1.25,1.25,0,0,1-.29-.44,1.5,1.5,0,0,1-.1-.58,1.34,1.34,0,0,1,.19-.72,1.52,1.52,0,0,1,.49-.52,2.3,2.3,0,0,1,.71-.32,3.1,3.1,0,0,1,.81-.1,3.34,3.34,0,0,1,1.34.25v.94a2.58,2.58,0,0,0-1.46-.42,1.73,1.73,0,0,0-.47.06,1,1,0,0,0-.35.16.8.8,0,0,0-.23.26.63.63,0,0,0-.09.33.76.76,0,0,0,.09.38.83.83,0,0,0,.23.27,3.44,3.44,0,0,0,.39.21l.51.21a4.79,4.79,0,0,1,.68.3,2.6,2.6,0,0,1,.52.34,1.45,1.45,0,0,1,.33.45,1.57,1.57,0,0,1,.11.6,1.36,1.36,0,0,1-.19.74,1.46,1.46,0,0,1-.5.52,2.12,2.12,0,0,1-.72.31,3.49,3.49,0,0,1-.86.11A3.24,3.24,0,0,1,130.73,161.82Z"/><path class="cls-21" d="M140.07,162h-.92v-.9h0a1.93,1.93,0,0,1-1.77,1,1.89,1.89,0,0,1-1.34-.46,1.56,1.56,0,0,1-.49-1.21c0-1.07.63-1.7,1.9-1.87l1.72-.24c0-1-.39-1.47-1.18-1.47a2.86,2.86,0,0,0-1.88.71v-.95a3.66,3.66,0,0,1,2-.53c1.35,0,2,.71,2,2.14Zm-.92-2.91-1.38.19a2.29,2.29,0,0,0-1,.32.91.91,0,0,0-.33.81.85.85,0,0,0,.3.68,1.16,1.16,0,0,0,.8.27,1.5,1.5,0,0,0,1.14-.48,1.76,1.76,0,0,0,.44-1.22Z"/><path class="cls-21" d="M144.48,162a1.8,1.8,0,0,1-.86.18c-1,0-1.51-.56-1.51-1.68v-3.4h-1v-.79h1v-1.4l.92-.3v1.7h1.45v.79H143v3.24a1.34,1.34,0,0,0,.19.82.78.78,0,0,0,.66.25,1,1,0,0,0,.6-.19Z"/><path class="cls-21" d="M146.18,154.82a.57.57,0,0,1-.42-.17.55.55,0,0,1-.18-.43.58.58,0,0,1,.18-.43.57.57,0,0,1,.42-.17.6.6,0,1,1,0,1.2Zm.45,7.21h-.92v-5.75h.92Z"/><path class="cls-21" d="M150.89,162.17a2.65,2.65,0,0,1-2-.81,3,3,0,0,1-.76-2.14,3.1,3.1,0,0,1,.79-2.26,2.86,2.86,0,0,1,2.14-.81,2.57,2.57,0,0,1,2,.79,3.6,3.6,0,0,1-.06,4.4A2.73,2.73,0,0,1,150.89,162.17Zm.07-5.25a1.74,1.74,0,0,0-1.4.6,2.47,2.47,0,0,0-.52,1.67,2.33,2.33,0,0,0,.52,1.61,1.8,1.8,0,0,0,1.4.59,1.66,1.66,0,0,0,1.37-.58,2.49,2.49,0,0,0,.48-1.64,2.58,2.58,0,0,0-.48-1.67A1.69,1.69,0,0,0,151,156.92Z"/><path class="cls-21" d="M160,162h-.92v-3.28c0-1.22-.44-1.83-1.34-1.83a1.43,1.43,0,0,0-1.14.52,1.93,1.93,0,0,0-.45,1.31V162h-.92v-5.75h.92v.95h0a2.09,2.09,0,0,1,1.89-1.08,1.76,1.76,0,0,1,1.44.6,2.69,2.69,0,0,1,.5,1.76Z"/><path class="cls-21" d="M260.54,162.17a3.57,3.57,0,0,1-2.75-1.13,4.25,4.25,0,0,1-1-2.94,4.43,4.43,0,0,1,1.05-3.1,3.69,3.69,0,0,1,2.86-1.16,3.47,3.47,0,0,1,2.69,1.13,4.17,4.17,0,0,1,1,2.93,4.43,4.43,0,0,1-1.05,3.12A3.59,3.59,0,0,1,260.54,162.17Zm.06-7.47a2.6,2.6,0,0,0-2.06.91,4.08,4.08,0,0,0,0,4.8,2.55,2.55,0,0,0,2,.91,2.64,2.64,0,0,0,2.09-.87,3.56,3.56,0,0,0,.76-2.42,3.71,3.71,0,0,0-.74-2.46A2.56,2.56,0,0,0,260.6,154.7Z"/><path class="cls-21" d="M266.78,161.2h0v3.47h-.92v-8.39h.92v1h0a2.18,2.18,0,0,1,2-1.14,2.07,2.07,0,0,1,1.73.77,3.16,3.16,0,0,1,.63,2.07,3.56,3.56,0,0,1-.71,2.31,2.31,2.31,0,0,1-1.92.87A1.94,1.94,0,0,1,266.78,161.2Zm0-2.32v.8a1.69,1.69,0,0,0,.46,1.21,1.65,1.65,0,0,0,2.49-.14,2.92,2.92,0,0,0,.47-1.78,2.32,2.32,0,0,0-.44-1.51,1.48,1.48,0,0,0-1.2-.54,1.62,1.62,0,0,0-1.29.56A2,2,0,0,0,266.76,158.88Z"/><path class="cls-21" d="M277.22,159.39h-4.06a2.12,2.12,0,0,0,.52,1.48,1.77,1.77,0,0,0,1.36.52,2.8,2.8,0,0,0,1.78-.64v.86a3.29,3.29,0,0,1-2,.56,2.45,2.45,0,0,1-1.92-.79,3.21,3.21,0,0,1-.69-2.2A3.12,3.12,0,0,1,273,157a2.43,2.43,0,0,1,1.89-.84,2.14,2.14,0,0,1,1.74.73,3,3,0,0,1,.62,2Zm-.94-.79a1.93,1.93,0,0,0-.39-1.24,1.32,1.32,0,0,0-1.05-.44,1.5,1.5,0,0,0-1.11.47,2.1,2.1,0,0,0-.56,1.21Zm-.15-5.25-1.47,1.84H274l1.25-1.84Z"/><path class="cls-21" d="M281.61,157.21a1.15,1.15,0,0,0-.7-.18,1.16,1.16,0,0,0-1,.55,2.61,2.61,0,0,0-.4,1.52V162h-.92v-5.75h.92v1.18h0a2,2,0,0,1,.6-.94,1.35,1.35,0,0,1,.9-.34,1.56,1.56,0,0,1,.55.08Z"/><path class="cls-21" d="M287.23,159.39h-4.06a2.17,2.17,0,0,0,.52,1.48,1.77,1.77,0,0,0,1.36.52,2.8,2.8,0,0,0,1.78-.64v.86a3.29,3.29,0,0,1-2,.56,2.47,2.47,0,0,1-1.92-.79,3.21,3.21,0,0,1-.69-2.2A3.12,3.12,0,0,1,283,157a2.45,2.45,0,0,1,1.89-.84,2.14,2.14,0,0,1,1.74.73,3,3,0,0,1,.62,2Zm-.94-.79a1.88,1.88,0,0,0-.39-1.24,1.32,1.32,0,0,0-1-.44,1.52,1.52,0,0,0-1.11.47,2.1,2.1,0,0,0-.56,1.21Z"/><path class="cls-21" d="M291.62,157.21a1.13,1.13,0,0,0-.69-.18,1.18,1.18,0,0,0-1,.55,2.61,2.61,0,0,0-.4,1.52V162h-.92v-5.75h.92v1.18h0a2,2,0,0,1,.6-.94,1.35,1.35,0,0,1,.9-.34,1.52,1.52,0,0,1,.55.08Z"/><path class="cls-20" d="M297,104.94h-.91v-8H297Z"/><path class="cls-20" d="M303.69,104.94h-.88v-3.28q0-1.83-1.29-1.83a1.4,1.4,0,0,0-1.1.52,2,2,0,0,0-.43,1.31v3.28h-.89V99.19H300v1h0a2,2,0,0,1,1.81-1.09,1.65,1.65,0,0,1,1.39.61,2.78,2.78,0,0,1,.48,1.76Z"/><path class="cls-20" d="M310.25,104.48q0,3.17-2.92,3.17a3.78,3.78,0,0,1-1.79-.41v-.92a3.57,3.57,0,0,0,1.78.54q2,0,2-2.25V104h0a2.18,2.18,0,0,1-3.56.33,3.15,3.15,0,0,1-.63-2.06,3.71,3.71,0,0,1,.68-2.33,2.24,2.24,0,0,1,1.85-.86,1.79,1.79,0,0,1,1.66.93h0v-.8h.89Zm-.89-2.14v-.85a1.72,1.72,0,0,0-.44-1.17,1.47,1.47,0,0,0-1.11-.49,1.53,1.53,0,0,0-1.29.62,2.88,2.88,0,0,0-.46,1.74,2.51,2.51,0,0,0,.44,1.54,1.43,1.43,0,0,0,1.18.57,1.53,1.53,0,0,0,1.22-.55A2.08,2.08,0,0,0,309.36,102.34Z"/><path class="cls-20" d="M316.65,102.3h-3.9a2.21,2.21,0,0,0,.49,1.48,1.69,1.69,0,0,0,1.31.52,2.64,2.64,0,0,0,1.72-.64v.87a3.18,3.18,0,0,1-1.93.55,2.28,2.28,0,0,1-1.84-.79,3.79,3.79,0,0,1,.06-4.39,2.31,2.31,0,0,1,1.82-.84,2,2,0,0,1,1.68.73,3.08,3.08,0,0,1,.59,2Zm-.9-.78a2,2,0,0,0-.37-1.24,1.26,1.26,0,0,0-1-.45,1.41,1.41,0,0,0-1.06.47,2.18,2.18,0,0,0-.54,1.22Zm-.14-5.26-1.42,1.84h-.69l1.21-1.84Z"/><path class="cls-20" d="M322.75,104.94h-.89v-3.28c0-1.22-.43-1.83-1.28-1.83a1.38,1.38,0,0,0-1.1.52,2,2,0,0,0-.44,1.31v3.28h-.88V99.19H319v1h0a2,2,0,0,1,1.82-1.09,1.66,1.66,0,0,1,1.39.61,2.78,2.78,0,0,1,.48,1.76Z"/><path class="cls-20" d="M325,97.73a.53.53,0,0,1-.41-.17.57.57,0,0,1-.17-.42.58.58,0,0,1,.17-.43.58.58,0,0,1,.82,0,.58.58,0,0,1,.17.43.61.61,0,0,1-.17.42A.57.57,0,0,1,325,97.73Zm.43,7.21h-.89V99.19h.89Z"/><path class="cls-20" d="M331.87,102.3H328a2.21,2.21,0,0,0,.49,1.48,1.69,1.69,0,0,0,1.31.52,2.64,2.64,0,0,0,1.72-.64v.87a3.18,3.18,0,0,1-1.93.55,2.28,2.28,0,0,1-1.84-.79,3.79,3.79,0,0,1,.06-4.39,2.33,2.33,0,0,1,1.82-.84,2,2,0,0,1,1.68.73,3.14,3.14,0,0,1,.59,2Zm-.91-.78a1.91,1.91,0,0,0-.36-1.24,1.26,1.26,0,0,0-1-.45,1.4,1.4,0,0,0-1.06.47,2.18,2.18,0,0,0-.54,1.22Z"/><path class="cls-20" d="M337.85,104.94H337V104h0a1.8,1.8,0,0,1-1.7,1c-1.32,0-2-.82-2-2.45V99.19h.88v3.29c0,1.22.45,1.82,1.34,1.82a1.31,1.31,0,0,0,1.06-.49,2,2,0,0,0,.42-1.3V99.19h.89Z"/><path class="cls-20" d="M342.69,100.12a1.09,1.09,0,0,0-.67-.18,1.1,1.1,0,0,0-.95.56,2.66,2.66,0,0,0-.38,1.51v2.93h-.89V99.19h.89v1.19h0a2,2,0,0,1,.58-.95,1.28,1.28,0,0,1,.87-.34,1.48,1.48,0,0,1,.53.08Z"/><path class="cls-20" d="M343.48,104.73v-1a2.54,2.54,0,0,0,1.59.55q1.17,0,1.17-.81a.71.71,0,0,0-.1-.39,1.19,1.19,0,0,0-.27-.28,1.89,1.89,0,0,0-.4-.22l-.49-.21a6.78,6.78,0,0,1-.65-.3,1.92,1.92,0,0,1-.46-.35,1.22,1.22,0,0,1-.28-.44,1.5,1.5,0,0,1-.1-.58,1.43,1.43,0,0,1,.18-.72,1.79,1.79,0,0,1,.47-.52,2.5,2.5,0,0,1,.68-.32,3,3,0,0,1,.79-.1,2.9,2.9,0,0,1,1.28.26v.93a2.39,2.39,0,0,0-1.4-.42,1.53,1.53,0,0,0-.45.06,1.08,1.08,0,0,0-.34.17.65.65,0,0,0-.22.25.62.62,0,0,0-.08.33.74.74,0,0,0,.08.38.83.83,0,0,0,.23.27,1.55,1.55,0,0,0,.36.21l.49.21a7,7,0,0,1,.66.3,2.11,2.11,0,0,1,.5.35,1.38,1.38,0,0,1,.32.44,1.57,1.57,0,0,1,.11.6,1.49,1.49,0,0,1-.18.75,1.62,1.62,0,0,1-.49.52,2.17,2.17,0,0,1-.69.31,3.77,3.77,0,0,1-.83.1A3,3,0,0,1,343.48,104.73Z"/><path class="cls-20" d="M306.39,117.94h-.91v-5.4c0-.43,0-1,.08-1.57h0a4.93,4.93,0,0,1-.23.78l-2.65,6.19h-.44l-2.64-6.14a4.61,4.61,0,0,1-.24-.83h0c0,.33.05.85.05,1.58v5.39h-.88v-8h1.2l2.38,5.62a7.2,7.2,0,0,1,.35,1h0c.15-.44.27-.77.37-1l2.42-5.59h1.14Z"/><path class="cls-20" d="M308.92,110.73a.52.52,0,0,1-.4-.17.57.57,0,0,1-.17-.42.58.58,0,0,1,.17-.43.52.52,0,0,1,.4-.17.55.55,0,0,1,.42.17.58.58,0,0,1,.17.43.61.61,0,0,1-.17.42A.59.59,0,0,1,308.92,110.73Zm.44,7.21h-.89v-5.75h.89Z"/><path class="cls-20" d="M315.09,117.68a2.87,2.87,0,0,1-1.52.4,2.48,2.48,0,0,1-1.91-.8,3,3,0,0,1-.72-2.08,3.25,3.25,0,0,1,.78-2.28,2.67,2.67,0,0,1,2.09-.86,2.81,2.81,0,0,1,1.29.28v.94a2.19,2.19,0,0,0-1.32-.45,1.74,1.74,0,0,0-1.39.63,2.5,2.5,0,0,0-.55,1.66,2.3,2.3,0,0,0,.52,1.6,1.71,1.71,0,0,0,1.36.58,2.15,2.15,0,0,0,1.37-.5Z"/><path class="cls-20" d="M319.47,113.13a1,1,0,0,0-.67-.19,1.12,1.12,0,0,0-.94.56,2.58,2.58,0,0,0-.38,1.51v2.93h-.89v-5.75h.89v1.19h0a2,2,0,0,1,.58-.95,1.32,1.32,0,0,1,.87-.34,1.38,1.38,0,0,1,.52.08Z"/><path class="cls-20" d="M322.91,118.08a2.49,2.49,0,0,1-2-.81,3.06,3.06,0,0,1-.74-2.14,3.19,3.19,0,0,1,.77-2.26,2.67,2.67,0,0,1,2.05-.81,2.41,2.41,0,0,1,1.93.79,3.7,3.7,0,0,1-.05,4.4A2.59,2.59,0,0,1,322.91,118.08Zm.07-5.25a1.64,1.64,0,0,0-1.35.61,2.53,2.53,0,0,0-.5,1.66,2.42,2.42,0,0,0,.5,1.61,1.68,1.68,0,0,0,1.35.59,1.59,1.59,0,0,0,1.32-.58,2.54,2.54,0,0,0,.46-1.64,2.6,2.6,0,0,0-.46-1.66A1.59,1.59,0,0,0,323,112.83Z"/><path class="cls-20" d="M326.91,117.73v-1a2.59,2.59,0,0,0,1.6.55c.78,0,1.16-.27,1.16-.81a.71.71,0,0,0-.1-.39.89.89,0,0,0-.27-.28,1.67,1.67,0,0,0-.4-.22l-.49-.21a6.52,6.52,0,0,1-.64-.3,2.21,2.21,0,0,1-.47-.35,1.37,1.37,0,0,1-.28-.44,1.72,1.72,0,0,1-.09-.58,1.42,1.42,0,0,1,.17-.72,1.7,1.7,0,0,1,.48-.52,2.37,2.37,0,0,1,.68-.32,2.88,2.88,0,0,1,.78-.1,3,3,0,0,1,1.29.26v.93a2.44,2.44,0,0,0-1.41-.42,1.51,1.51,0,0,0-.44.06,1.14,1.14,0,0,0-.35.17.75.75,0,0,0-.22.25.73.73,0,0,0-.08.33.86.86,0,0,0,.08.38.83.83,0,0,0,.23.27,1.44,1.44,0,0,0,.37.21l.49.21.66.3a2.34,2.34,0,0,1,.5.35,1.35,1.35,0,0,1,.31.44,1.57,1.57,0,0,1,.11.6,1.49,1.49,0,0,1-.18.75,1.7,1.7,0,0,1-.48.52,2.23,2.23,0,0,1-.7.31,3.7,3.7,0,0,1-.83.1A3.05,3.05,0,0,1,326.91,117.73Z"/><path class="cls-20" d="M334.42,118.08a2.51,2.51,0,0,1-2-.81,3.05,3.05,0,0,1-.73-2.14,3.19,3.19,0,0,1,.76-2.26,2.7,2.7,0,0,1,2.06-.81,2.43,2.43,0,0,1,1.93.79,3.23,3.23,0,0,1,.69,2.19,3.16,3.16,0,0,1-.74,2.21A2.59,2.59,0,0,1,334.42,118.08Zm.06-5.25a1.65,1.65,0,0,0-1.35.61,2.53,2.53,0,0,0-.49,1.66,2.37,2.37,0,0,0,.5,1.61,1.64,1.64,0,0,0,1.34.59,1.56,1.56,0,0,0,1.32-.58,2.54,2.54,0,0,0,.47-1.64,2.6,2.6,0,0,0-.47-1.66A1.57,1.57,0,0,0,334.48,112.83Z"/><path class="cls-20" d="M341.49,110.24a1.15,1.15,0,0,0-.59-.15c-.62,0-.93.4-.93,1.22v.88h1.3V113H340v5h-.88v-5h-.95v-.79h.95v-.93a2,2,0,0,1,.5-1.43,1.68,1.68,0,0,1,1.26-.52,1.62,1.62,0,0,1,.64.1Z"/><path class="cls-20" d="M345,117.89a1.67,1.67,0,0,1-.83.18c-1,0-1.45-.57-1.45-1.69V113h-.95v-.79h.95v-1.4l.88-.3v1.7H345V113h-1.4v3.24a1.41,1.41,0,0,0,.19.82.74.74,0,0,0,.63.25.9.9,0,0,0,.58-.19Z"/><path class="cls-20" d="M71.7,104.61a4.43,4.43,0,0,1-2.14.47A3.36,3.36,0,0,1,66.92,104a4.14,4.14,0,0,1-1-2.9A4.39,4.39,0,0,1,67,98a3.71,3.71,0,0,1,2.84-1.19,4.39,4.39,0,0,1,1.82.33v1a3.57,3.57,0,0,0-1.83-.48,2.77,2.77,0,0,0-2.17.93,3.56,3.56,0,0,0-.83,2.47,3.42,3.42,0,0,0,.78,2.35,2.59,2.59,0,0,0,2,.87,3.69,3.69,0,0,0,2-.54Z"/><path class="cls-20" d="M74.21,104.94h-.88V96.43h.88Z"/><path class="cls-20" d="M76.63,97.73a.53.53,0,0,1-.41-.17.57.57,0,0,1-.17-.42.58.58,0,0,1,.17-.43.53.53,0,0,1,.41-.17.54.54,0,0,1,.41.17.58.58,0,0,1,.17.43.61.61,0,0,1-.17.42A.58.58,0,0,1,76.63,97.73Zm.43,7.21h-.89V99.19h.89Z"/><path class="cls-20" d="M83.46,102.3h-3.9a2.21,2.21,0,0,0,.49,1.48,1.69,1.69,0,0,0,1.31.52,2.64,2.64,0,0,0,1.72-.64v.87a3.18,3.18,0,0,1-1.93.55,2.27,2.27,0,0,1-1.84-.79,3.79,3.79,0,0,1,.06-4.39,2.31,2.31,0,0,1,1.82-.84,2,2,0,0,1,1.68.73,3.14,3.14,0,0,1,.59,2Zm-.91-.78a1.85,1.85,0,0,0-.37-1.24,1.22,1.22,0,0,0-1-.45,1.4,1.4,0,0,0-1.06.47,2.12,2.12,0,0,0-.54,1.22Z"/><path class="cls-20" d="M89.56,104.94h-.89v-3.28c0-1.22-.43-1.83-1.28-1.83a1.38,1.38,0,0,0-1.1.52,2,2,0,0,0-.44,1.31v3.28H85V99.19h.88v1h0a2,2,0,0,1,1.82-1.09,1.66,1.66,0,0,1,1.39.61,2.78,2.78,0,0,1,.48,1.76Z"/><path class="cls-20" d="M94,104.89a1.67,1.67,0,0,1-.83.18c-1,0-1.45-.57-1.45-1.69V100h-1v-.79h1v-1.4l.88-.3v1.7H94V100h-1.4v3.24a1.41,1.41,0,0,0,.19.82.74.74,0,0,0,.63.25.92.92,0,0,0,.58-.19Z"/><path class="cls-20" d="M95,104.73v-1a2.54,2.54,0,0,0,1.59.55q1.17,0,1.17-.81a.71.71,0,0,0-.1-.39,1.19,1.19,0,0,0-.27-.28,1.89,1.89,0,0,0-.4-.22l-.49-.21a6.78,6.78,0,0,1-.65-.3,1.92,1.92,0,0,1-.46-.35,1.22,1.22,0,0,1-.28-.44,1.5,1.5,0,0,1-.1-.58,1.43,1.43,0,0,1,.18-.72,1.79,1.79,0,0,1,.47-.52,2.5,2.5,0,0,1,.68-.32,3,3,0,0,1,.79-.1,2.93,2.93,0,0,1,1.28.26v.93a2.39,2.39,0,0,0-1.4-.42,1.53,1.53,0,0,0-.45.06,1.08,1.08,0,0,0-.34.17.65.65,0,0,0-.22.25.62.62,0,0,0-.08.33A.74.74,0,0,0,96,101a.72.72,0,0,0,.23.27,1.55,1.55,0,0,0,.36.21l.49.21a7,7,0,0,1,.66.3,2.11,2.11,0,0,1,.5.35,1.38,1.38,0,0,1,.32.44,1.57,1.57,0,0,1,.11.6,1.49,1.49,0,0,1-.18.75,1.73,1.73,0,0,1-.49.52,2.17,2.17,0,0,1-.69.31,3.77,3.77,0,0,1-.83.1A3,3,0,0,1,95,104.73Z"/><path class="cls-20" d="M74.92,117.94h-1l-.82-2.25H69.82L69,117.94H68l3-8h.94Zm-2.12-3.1-1.21-3.43a3.82,3.82,0,0,1-.12-.54h0a3.06,3.06,0,0,1-.13.54l-1.2,3.43Z"/><path class="cls-20" d="M80,112.46l-3.28,4.7h3.25v.78H75.39v-.28L78.67,113h-3v-.79H80Z"/><path class="cls-20" d="M85.75,117.94h-.88V117h0a1.79,1.79,0,0,1-1.7,1c-1.32,0-2-.82-2-2.45v-3.44H82v3.29c0,1.22.45,1.82,1.34,1.82a1.34,1.34,0,0,0,1.07-.49,2,2,0,0,0,.42-1.3v-3.32h.88Z"/><path class="cls-20" d="M90.59,113.13a1,1,0,0,0-.67-.19,1.12,1.12,0,0,0-1,.56,2.66,2.66,0,0,0-.38,1.51v2.93H87.7v-5.75h.89v1.19h0a2,2,0,0,1,.58-.95,1.32,1.32,0,0,1,.87-.34,1.44,1.44,0,0,1,.53.08Z"/><path class="cls-20" d="M96.16,115.3h-3.9a2.21,2.21,0,0,0,.49,1.48,1.69,1.69,0,0,0,1.31.52,2.64,2.64,0,0,0,1.72-.64v.87a3.18,3.18,0,0,1-1.93.55,2.27,2.27,0,0,1-1.84-.79,3.79,3.79,0,0,1,.06-4.39,2.31,2.31,0,0,1,1.82-.84,2,2,0,0,1,1.68.73,3.14,3.14,0,0,1,.59,2Zm-.91-.78a1.85,1.85,0,0,0-.37-1.24,1.22,1.22,0,0,0-1-.45,1.4,1.4,0,0,0-1.06.47,2.12,2.12,0,0,0-.54,1.22Z"/><path class="cls-20" d="M62,176.74l-2.87,8.06h-1l-2.81-8.06h1l2.15,6.39a3.27,3.27,0,0,1,.15.71h0a2.71,2.71,0,0,1,.18-.72l2.18-6.38Z"/><path class="cls-20" d="M64.81,184.93a2.54,2.54,0,0,1-2-.8,3.05,3.05,0,0,1-.73-2.14,3.15,3.15,0,0,1,.76-2.26,2.66,2.66,0,0,1,2.06-.82,2.46,2.46,0,0,1,1.93.79,3.24,3.24,0,0,1,.69,2.2,3.18,3.18,0,0,1-.74,2.2A2.55,2.55,0,0,1,64.81,184.93Zm.06-5.24a1.66,1.66,0,0,0-1.35.6A2.56,2.56,0,0,0,63,182a2.39,2.39,0,0,0,.5,1.61,1.67,1.67,0,0,0,1.34.59,1.59,1.59,0,0,0,1.32-.58,3.15,3.15,0,0,0,0-3.31A1.56,1.56,0,0,0,64.87,179.69Z"/><path class="cls-20" d="M68.81,184.59v-1a2.55,2.55,0,0,0,1.59.56q1.17,0,1.17-.81a.67.67,0,0,0-.1-.39,1.23,1.23,0,0,0-.27-.29,2.48,2.48,0,0,0-.4-.22l-.49-.2a6.68,6.68,0,0,1-.65-.31,1.69,1.69,0,0,1-.46-.35,1.14,1.14,0,0,1-.28-.44,1.47,1.47,0,0,1-.1-.58,1.39,1.39,0,0,1,.18-.71,1.67,1.67,0,0,1,.47-.52,2.24,2.24,0,0,1,.68-.32,3,3,0,0,1,.79-.11,3.08,3.08,0,0,1,1.28.26v.93a2.45,2.45,0,0,0-1.4-.41,1.53,1.53,0,0,0-.45.06,1.07,1.07,0,0,0-.34.16.68.68,0,0,0-.22.26.62.62,0,0,0-.08.33.7.7,0,0,0,.08.37.72.72,0,0,0,.23.27,1.55,1.55,0,0,0,.36.21l.49.21a7,7,0,0,1,.66.3,2.45,2.45,0,0,1,.5.35,1.42,1.42,0,0,1,.32.45,1.57,1.57,0,0,1,.11.6,1.47,1.47,0,0,1-.18.74,1.62,1.62,0,0,1-.49.52,2.17,2.17,0,0,1-.69.31,3.25,3.25,0,0,1-.83.1A3,3,0,0,1,68.81,184.59Z"/><path class="cls-20" d="M81,184.53a2.77,2.77,0,0,1-1.51.4,2.43,2.43,0,0,1-1.91-.8,2.93,2.93,0,0,1-.73-2.07,3.25,3.25,0,0,1,.79-2.29,2.68,2.68,0,0,1,2.09-.86,2.9,2.9,0,0,1,1.28.28v.95a2.19,2.19,0,0,0-1.32-.45,1.76,1.76,0,0,0-1.39.63,2.46,2.46,0,0,0-.54,1.66,2.34,2.34,0,0,0,.51,1.59,1.73,1.73,0,0,0,1.37.59,2.2,2.2,0,0,0,1.36-.5Z"/><path class="cls-20" d="M83.36,184.8h-.88v-8.52h.88Z"/><path class="cls-20" d="M85.77,177.59a.54.54,0,0,1-.4-.17.6.6,0,0,1-.17-.43.61.61,0,0,1,.17-.43.54.54,0,0,1,.4-.17.59.59,0,0,1,.42.17.61.61,0,0,1,.17.43.57.57,0,0,1-.17.42A.56.56,0,0,1,85.77,177.59Zm.44,7.21h-.89v-5.75h.89Z"/><path class="cls-20" d="M92.61,182.15H88.7a2.19,2.19,0,0,0,.5,1.48,1.68,1.68,0,0,0,1.31.53,2.72,2.72,0,0,0,1.72-.64v.86a3.11,3.11,0,0,1-1.93.55,2.29,2.29,0,0,1-1.84-.78,3.28,3.28,0,0,1-.67-2.21,3.19,3.19,0,0,1,.73-2.18,2.29,2.29,0,0,1,1.81-.85,2.08,2.08,0,0,1,1.69.73,3.17,3.17,0,0,1,.59,2Zm-.91-.78a1.87,1.87,0,0,0-.37-1.24,1.22,1.22,0,0,0-1-.44,1.42,1.42,0,0,0-1.07.46,2.18,2.18,0,0,0-.54,1.22Z"/><path class="cls-20" d="M98.71,184.8h-.89v-3.28q0-1.83-1.29-1.83a1.37,1.37,0,0,0-1.1.52,2,2,0,0,0-.43,1.31v3.28h-.89v-5.75H95V180h0a2,2,0,0,1,1.82-1.09,1.67,1.67,0,0,1,1.38.61,2.79,2.79,0,0,1,.49,1.76Z"/><path class="cls-20" d="M103.11,184.74a1.67,1.67,0,0,1-.83.18c-1,0-1.45-.56-1.45-1.68v-3.41h-1v-.78h1v-1.41l.88-.29v1.7h1.4v.78h-1.4v3.24a1.45,1.45,0,0,0,.19.83.77.77,0,0,0,.63.25.93.93,0,0,0,.58-.2Z"/><path class="cls-20" d="M104.12,184.59v-1a2.55,2.55,0,0,0,1.59.56q1.17,0,1.17-.81a.67.67,0,0,0-.1-.39,1.23,1.23,0,0,0-.27-.29,2.48,2.48,0,0,0-.4-.22l-.49-.2a6.68,6.68,0,0,1-.65-.31,1.69,1.69,0,0,1-.46-.35,1.3,1.3,0,0,1-.29-.44,1.68,1.68,0,0,1-.09-.58,1.39,1.39,0,0,1,.18-.71,1.67,1.67,0,0,1,.47-.52,2.24,2.24,0,0,1,.68-.32,3,3,0,0,1,.79-.11,3.08,3.08,0,0,1,1.28.26v.93a2.45,2.45,0,0,0-1.4-.41,1.53,1.53,0,0,0-.45.06,1.07,1.07,0,0,0-.34.16.68.68,0,0,0-.22.26.62.62,0,0,0-.08.33.7.7,0,0,0,.08.37.72.72,0,0,0,.23.27,1.55,1.55,0,0,0,.36.21l.49.21a7,7,0,0,1,.66.3,2.45,2.45,0,0,1,.5.35,1.42,1.42,0,0,1,.32.45,1.57,1.57,0,0,1,.11.6,1.47,1.47,0,0,1-.18.74,1.62,1.62,0,0,1-.49.52,2.17,2.17,0,0,1-.69.31,3.25,3.25,0,0,1-.83.1A3,3,0,0,1,104.12,184.59Z"/><path class="cls-20" d="M283.93,184.85a3.34,3.34,0,0,1-2.64-1.12,4.32,4.32,0,0,1-1-2.94,4.5,4.5,0,0,1,1-3.1,3.46,3.46,0,0,1,2.75-1.16,3.25,3.25,0,0,1,2.58,1.13,4.29,4.29,0,0,1,1,2.93,4.55,4.55,0,0,1-1,3.12A3.41,3.41,0,0,1,283.93,184.85Zm.06-7.46a2.46,2.46,0,0,0-2,.91,3.63,3.63,0,0,0-.76,2.41,3.67,3.67,0,0,0,.74,2.39,2.41,2.41,0,0,0,1.94.91,2.49,2.49,0,0,0,2-.87,3.61,3.61,0,0,0,.73-2.42,3.81,3.81,0,0,0-.71-2.46A2.41,2.41,0,0,0,284,177.39Z"/><path class="cls-20" d="M290.1,183.89h0v3.47h-.89V179h.89v1h0a2.08,2.08,0,0,1,1.91-1.15,2,2,0,0,1,1.67.78,3.27,3.27,0,0,1,.6,2.07,3.67,3.67,0,0,1-.68,2.31,2.19,2.19,0,0,1-1.84.86A1.84,1.84,0,0,1,290.1,183.89Zm0-2.32v.8a1.77,1.77,0,0,0,.44,1.21,1.56,1.56,0,0,0,2.4-.14,3.06,3.06,0,0,0,.45-1.78,2.44,2.44,0,0,0-.42-1.51,1.41,1.41,0,0,0-1.16-.54,1.54,1.54,0,0,0-1.24.56A2.06,2.06,0,0,0,290.08,181.57Z"/><path class="cls-20" d="M300.31,182.08H296.4a2.23,2.23,0,0,0,.5,1.48,1.65,1.65,0,0,0,1.3.52,2.63,2.63,0,0,0,1.72-.64v.86a3.09,3.09,0,0,1-1.93.55,2.3,2.3,0,0,1-1.84-.78,3.32,3.32,0,0,1-.67-2.2,3.25,3.25,0,0,1,.73-2.19,2.34,2.34,0,0,1,1.82-.85,2,2,0,0,1,1.68.73,3.13,3.13,0,0,1,.6,2Zm-.91-.79a2,2,0,0,0-.37-1.24,1.25,1.25,0,0,0-1-.44,1.38,1.38,0,0,0-1.07.47,2.15,2.15,0,0,0-.54,1.21Zm-.14-5.25-1.42,1.84h-.68l1.2-1.84Z"/><path class="cls-20" d="M304.7,179.9a1.09,1.09,0,0,0-.67-.18,1.11,1.11,0,0,0-.95.55,2.61,2.61,0,0,0-.38,1.52v2.93h-.89V179h.89v1.18h0a1.94,1.94,0,0,1,.58-.94,1.26,1.26,0,0,1,.87-.34,1.28,1.28,0,0,1,.53.08Z"/><path class="cls-20" d="M309.78,184.72h-.88v-.9h0a1.83,1.83,0,0,1-1.7,1,1.78,1.78,0,0,1-1.29-.45,1.62,1.62,0,0,1-.47-1.21c0-1.07.61-1.7,1.83-1.87l1.66-.24q0-1.47-1.14-1.47a2.69,2.69,0,0,0-1.81.71v-.95a3.34,3.34,0,0,1,1.88-.54c1.3,0,1.95.72,1.95,2.15Zm-.88-2.91-1.34.19a2.14,2.14,0,0,0-.93.32.93.93,0,0,0-.31.81.89.89,0,0,0,.29.68,1.08,1.08,0,0,0,.77.27,1.4,1.4,0,0,0,1.09-.48,1.8,1.8,0,0,0,.43-1.22Z"/><path class="cls-20" d="M314.18,184.66a1.63,1.63,0,0,1-.82.18c-1,0-1.46-.56-1.46-1.68v-3.4H311V179h.95v-1.4l.89-.3V179h1.39v.79h-1.39V183a1.34,1.34,0,0,0,.19.82.71.71,0,0,0,.62.25.94.94,0,0,0,.58-.19Z"/><path class="cls-20" d="M320,182.08h-3.9a2.18,2.18,0,0,0,.5,1.48,1.65,1.65,0,0,0,1.3.52,2.63,2.63,0,0,0,1.72-.64v.86a3.11,3.11,0,0,1-1.93.55,2.3,2.3,0,0,1-1.84-.78,3.32,3.32,0,0,1-.67-2.2,3.25,3.25,0,0,1,.73-2.19,2.34,2.34,0,0,1,1.82-.85,2.07,2.07,0,0,1,1.68.73,3.13,3.13,0,0,1,.59,2Zm-.9-.79a2,2,0,0,0-.37-1.24,1.27,1.27,0,0,0-1-.44,1.38,1.38,0,0,0-1.06.47,2.15,2.15,0,0,0-.54,1.21Z"/><path class="cls-20" d="M326,184.72h-.88v-.91h0a1.78,1.78,0,0,1-1.7,1c-1.32,0-2-.81-2-2.44V179h.88v3.29c0,1.21.45,1.82,1.34,1.82a1.35,1.35,0,0,0,1.07-.5,1.93,1.93,0,0,0,.42-1.3V179H326Z"/><path class="cls-20" d="M330.79,179.9a1.09,1.09,0,0,0-.67-.18,1.12,1.12,0,0,0-.95.55,2.69,2.69,0,0,0-.38,1.52v2.93h-.88V179h.88v1.18h0a2,2,0,0,1,.58-.94,1.28,1.28,0,0,1,.87-.34,1.25,1.25,0,0,1,.53.08Z"/><path class="cls-20" d="M341.23,184.72h-1l-.82-2.26h-3.28l-.77,2.26h-1l3-8.05h.94Zm-2.13-3.11-1.21-3.43a3.25,3.25,0,0,1-.12-.54h0a4.62,4.62,0,0,1-.12.54l-1.21,3.43Z"/><path class="cls-20" d="M346.27,179.23l-3.27,4.7h3.24v.79H341.7v-.29l3.27-4.67h-3V179h4.27Z"/><path class="cls-20" d="M352.05,184.72h-.88v-.91h0a1.81,1.81,0,0,1-1.71,1c-1.32,0-2-.81-2-2.44V179h.88v3.29c0,1.21.45,1.82,1.34,1.82a1.35,1.35,0,0,0,1.07-.5,1.93,1.93,0,0,0,.42-1.3V179h.88Z"/><path class="cls-20" d="M356.89,179.9a1.07,1.07,0,0,0-.67-.18,1.12,1.12,0,0,0-1,.55,2.69,2.69,0,0,0-.38,1.52v2.93H354V179h.88v1.18h0a2,2,0,0,1,.58-.94,1.28,1.28,0,0,1,.87-.34,1.25,1.25,0,0,1,.53.08Z"/><path class="cls-20" d="M362.46,182.08h-3.9a2.18,2.18,0,0,0,.5,1.48,1.65,1.65,0,0,0,1.3.52,2.63,2.63,0,0,0,1.72-.64v.86a3.11,3.11,0,0,1-1.93.55,2.3,2.3,0,0,1-1.84-.78,3.27,3.27,0,0,1-.67-2.2,3.2,3.2,0,0,1,.73-2.19,2.34,2.34,0,0,1,1.82-.85,2.07,2.07,0,0,1,1.68.73,3.13,3.13,0,0,1,.59,2Zm-.9-.79a2,2,0,0,0-.37-1.24,1.27,1.27,0,0,0-1-.44,1.38,1.38,0,0,0-1.06.47,2.15,2.15,0,0,0-.54,1.21Z"/><path class="cls-20" d="M277.05,197.39v-1.11a1.79,1.79,0,0,0,.44.3,3.25,3.25,0,0,0,.54.23l.57.15a3.49,3.49,0,0,0,.53,0,2,2,0,0,0,1.25-.33,1.08,1.08,0,0,0,.41-.93,1.13,1.13,0,0,0-.13-.56,1.74,1.74,0,0,0-.38-.44,4.5,4.5,0,0,0-.58-.39L279,194c-.27-.14-.52-.29-.75-.43a3,3,0,0,1-.61-.49,2,2,0,0,1-.41-.59,2.11,2.11,0,0,1,.08-1.74,2.1,2.1,0,0,1,.61-.68,3,3,0,0,1,.87-.39,4.06,4.06,0,0,1,1-.13,3.67,3.67,0,0,1,1.67.29v1.06a2.93,2.93,0,0,0-1.76-.49,2.88,2.88,0,0,0-.59.06,1.47,1.47,0,0,0-.53.21,1.15,1.15,0,0,0-.38.38,1,1,0,0,0-.15.56,1.25,1.25,0,0,0,.11.53,1.42,1.42,0,0,0,.33.41,2.45,2.45,0,0,0,.53.36c.2.12.44.24.71.38l.79.45a3.45,3.45,0,0,1,.65.52,2.48,2.48,0,0,1,.45.64,1.84,1.84,0,0,1,.16.8,2.05,2.05,0,0,1-.22,1,2,2,0,0,1-.6.68,2.78,2.78,0,0,1-.88.37,4.45,4.45,0,0,1-1.05.11l-.45,0a5.25,5.25,0,0,1-.55-.09,4.26,4.26,0,0,1-.54-.14A1.86,1.86,0,0,1,277.05,197.39Z"/><path class="cls-20" d="M285.54,197.66a1.61,1.61,0,0,1-.82.18c-1,0-1.45-.56-1.45-1.68v-3.4h-.95V192h.95v-1.4l.88-.3V192h1.39v.79h-1.39V196a1.34,1.34,0,0,0,.19.82.74.74,0,0,0,.63.25.93.93,0,0,0,.57-.19Z"/><path class="cls-20" d="M290.85,197.72H290v-.9h0a1.86,1.86,0,0,1-1.71,1,1.78,1.78,0,0,1-1.29-.45,1.62,1.62,0,0,1-.47-1.21c0-1.07.61-1.7,1.83-1.87l1.66-.24q0-1.47-1.14-1.47a2.69,2.69,0,0,0-1.81.71v-.95a3.34,3.34,0,0,1,1.88-.54c1.3,0,2,.72,2,2.15Zm-.88-2.91-1.34.19a2.14,2.14,0,0,0-.93.32,1,1,0,0,0-.31.81.89.89,0,0,0,.29.68,1.08,1.08,0,0,0,.77.27,1.4,1.4,0,0,0,1.09-.48,1.8,1.8,0,0,0,.43-1.22Z"/><path class="cls-20" d="M296.46,197.46a2.85,2.85,0,0,1-1.51.39,2.43,2.43,0,0,1-1.91-.8,2.93,2.93,0,0,1-.73-2.07,3.25,3.25,0,0,1,.78-2.28,2.67,2.67,0,0,1,2.09-.87,2.79,2.79,0,0,1,1.29.29v.94a2.19,2.19,0,0,0-1.32-.45,1.74,1.74,0,0,0-1.39.63,2.47,2.47,0,0,0-.54,1.66,2.36,2.36,0,0,0,.51,1.6,1.74,1.74,0,0,0,1.37.58,2.2,2.2,0,0,0,1.36-.5Z"/><path class="cls-20" d="M302.55,197.72h-1.24L298.87,195h0v2.76H298v-8.51h.89v5.39h0l2.32-2.63h1.16l-2.56,2.77Z"/><path class="cls-20" d="M312.76,197.72h-.9v-3.67h-4v3.67h-.91v-8.05h.91v3.53h4v-3.53h.9Z"/><path class="cls-20" d="M319.31,197.72h-.88v-.91h0a1.81,1.81,0,0,1-1.71,1c-1.32,0-2-.81-2-2.44V192h.88v3.29c0,1.21.45,1.82,1.34,1.82a1.34,1.34,0,0,0,1.07-.5,1.93,1.93,0,0,0,.42-1.3V192h.88Z"/><path class="cls-20" d="M322.17,196.89h0v.83h-.88v-8.51h.88V193h0a2.11,2.11,0,0,1,1.92-1.15,2,2,0,0,1,1.66.78,3.27,3.27,0,0,1,.61,2.07,3.67,3.67,0,0,1-.68,2.31,2.21,2.21,0,0,1-1.85.86A1.82,1.82,0,0,1,322.17,196.89Zm0-2.32v.8a1.73,1.73,0,0,0,.45,1.21,1.54,1.54,0,0,0,2.39-.14,3,3,0,0,0,.46-1.78,2.38,2.38,0,0,0-.43-1.51,1.39,1.39,0,0,0-1.15-.54,1.57,1.57,0,0,0-1.25.56A2.11,2.11,0,0,0,322.15,194.57Z"/><path class="cls-20" d="M335.09,197.72h-.88v-.9h0a1.83,1.83,0,0,1-1.7,1,1.78,1.78,0,0,1-1.29-.45,1.62,1.62,0,0,1-.47-1.21c0-1.07.61-1.7,1.83-1.87l1.66-.24q0-1.47-1.14-1.47a2.69,2.69,0,0,0-1.81.71v-.95a3.34,3.34,0,0,1,1.88-.54c1.3,0,1.95.72,1.95,2.15Zm-.88-2.91-1.34.19a2.14,2.14,0,0,0-.93.32.93.93,0,0,0-.31.81.89.89,0,0,0,.29.68,1.08,1.08,0,0,0,.77.27,1.4,1.4,0,0,0,1.09-.48,1.8,1.8,0,0,0,.43-1.22Z"/><path class="cls-20" d="M336.59,197.51v-1a2.58,2.58,0,0,0,1.6.56c.77,0,1.16-.27,1.16-.81a.71.71,0,0,0-.1-.39.8.8,0,0,0-.27-.28,1.39,1.39,0,0,0-.4-.22l-.49-.21a5,5,0,0,1-.65-.31,1.83,1.83,0,0,1-.46-.34,1.22,1.22,0,0,1-.28-.44,1.5,1.5,0,0,1-.1-.58,1.43,1.43,0,0,1,.18-.72,1.59,1.59,0,0,1,.48-.52,2.08,2.08,0,0,1,.67-.32,3,3,0,0,1,.79-.11,3.13,3.13,0,0,1,1.29.26V193a2.44,2.44,0,0,0-1.41-.42,1.63,1.63,0,0,0-.45.06,1.19,1.19,0,0,0-.34.16.77.77,0,0,0-.22.26.73.73,0,0,0-.08.33.81.81,0,0,0,.08.37.67.67,0,0,0,.23.27,1.81,1.81,0,0,0,.37.22l.49.21a5,5,0,0,1,.66.3,2,2,0,0,1,.49.34,1.28,1.28,0,0,1,.32.45,1.57,1.57,0,0,1,.11.6,1.44,1.44,0,0,1-.67,1.26,2,2,0,0,1-.69.31,3.2,3.2,0,0,1-.83.1A3,3,0,0,1,336.59,197.51Z"/><path class="cls-20" d="M341.45,197.51v-1a2.55,2.55,0,0,0,1.59.56q1.17,0,1.17-.81a.71.71,0,0,0-.1-.39.9.9,0,0,0-.27-.28,1.53,1.53,0,0,0-.4-.22l-.49-.21a5,5,0,0,1-.65-.31,1.83,1.83,0,0,1-.46-.34,1.22,1.22,0,0,1-.28-.44,1.5,1.5,0,0,1-.1-.58,1.43,1.43,0,0,1,.18-.72,1.59,1.59,0,0,1,.48-.52,2.08,2.08,0,0,1,.67-.32,3,3,0,0,1,.79-.11,3.13,3.13,0,0,1,1.29.26V193a2.44,2.44,0,0,0-1.41-.42,1.58,1.58,0,0,0-.45.06,1.07,1.07,0,0,0-.34.16.77.77,0,0,0-.22.26.73.73,0,0,0-.08.33.81.81,0,0,0,.08.37.67.67,0,0,0,.23.27,2,2,0,0,0,.36.22l.5.21a5,5,0,0,1,.66.3,2.24,2.24,0,0,1,.49.34,1.42,1.42,0,0,1,.32.45,1.57,1.57,0,0,1,.11.6,1.44,1.44,0,0,1-.67,1.26,2,2,0,0,1-.69.31,3.2,3.2,0,0,1-.83.1A3,3,0,0,1,341.45,197.51Z"/><path class="cls-20" d="M349,197.85a2.51,2.51,0,0,1-2-.8,3.05,3.05,0,0,1-.73-2.14,3.17,3.17,0,0,1,.76-2.26,2.7,2.7,0,0,1,2.06-.82,2.45,2.45,0,0,1,1.93.8A3.72,3.72,0,0,1,351,197,2.56,2.56,0,0,1,349,197.85Zm.06-5.24a1.66,1.66,0,0,0-1.35.6,2.58,2.58,0,0,0-.5,1.67,2.37,2.37,0,0,0,.51,1.61,1.67,1.67,0,0,0,1.34.59,1.57,1.57,0,0,0,1.32-.58,2.54,2.54,0,0,0,.46-1.64,2.63,2.63,0,0,0-.46-1.67A1.57,1.57,0,0,0,349,192.61Z"/><path class="cls-20" d="M357.06,197.46a2.83,2.83,0,0,1-1.51.39,2.44,2.44,0,0,1-1.91-.8,3,3,0,0,1-.72-2.07,3.25,3.25,0,0,1,.78-2.28,2.67,2.67,0,0,1,2.09-.87,2.77,2.77,0,0,1,1.28.29v.94a2.19,2.19,0,0,0-1.31-.45,1.74,1.74,0,0,0-1.39.63,2.43,2.43,0,0,0-.55,1.66,2.36,2.36,0,0,0,.51,1.6,1.76,1.76,0,0,0,1.37.58,2.18,2.18,0,0,0,1.36-.5Z"/><path class="cls-20" d="M359,190.51a.54.54,0,0,1-.4-.17.58.58,0,0,1-.17-.43.61.61,0,0,1,.17-.43.54.54,0,0,1,.4-.17.61.61,0,0,1,.42.17.63.63,0,0,1,0,.86A.61.61,0,0,1,359,190.51Zm.43,7.21h-.88V192h.88Z"/><path class="cls-20" d="M365.86,195.08H362a2.23,2.23,0,0,0,.5,1.48,1.67,1.67,0,0,0,1.31.52,2.62,2.62,0,0,0,1.71-.64v.86a3.08,3.08,0,0,1-1.92.55,2.31,2.31,0,0,1-1.85-.78,3.32,3.32,0,0,1-.67-2.2,3.21,3.21,0,0,1,.74-2.19,2.3,2.3,0,0,1,1.81-.85,2,2,0,0,1,1.68.73,3.13,3.13,0,0,1,.6,2Zm-.91-.79a1.93,1.93,0,0,0-.37-1.24,1.25,1.25,0,0,0-1-.44,1.38,1.38,0,0,0-1.07.47,2.15,2.15,0,0,0-.54,1.21Zm-.14-5.25-1.42,1.84h-.68l1.2-1.84Z"/><path class="cls-20" d="M285.5,210.72h-.89v-.9h0a1.83,1.83,0,0,1-1.7,1,1.78,1.78,0,0,1-1.29-.45,1.62,1.62,0,0,1-.47-1.21c0-1.07.61-1.7,1.83-1.87l1.65-.24q0-1.47-1.14-1.47a2.68,2.68,0,0,0-1.8.71v-.95a3.32,3.32,0,0,1,1.88-.54c1.3,0,1.95.72,1.95,2.15Zm-.89-2.91-1.33.19a2.14,2.14,0,0,0-.93.32.93.93,0,0,0-.31.81.84.84,0,0,0,.29.68,1.08,1.08,0,0,0,.77.27,1.37,1.37,0,0,0,1.08-.48,1.75,1.75,0,0,0,.43-1.22Zm-.32-3.93h-.69L282.18,202h.91Z"/><path class="cls-20" d="M294.88,205l-2.2,5.75h-.87l-2.1-5.75h1l1.41,4.18a3.64,3.64,0,0,1,.19.8h0a4.07,4.07,0,0,1,.18-.78L294,205Z"/><path class="cls-20" d="M298.31,210.85a2.51,2.51,0,0,1-2-.8,3.05,3.05,0,0,1-.73-2.14,3.17,3.17,0,0,1,.76-2.26,2.7,2.7,0,0,1,2.06-.82,2.43,2.43,0,0,1,1.93.8,3.72,3.72,0,0,1-.06,4.4A2.54,2.54,0,0,1,298.31,210.85Zm.06-5.24a1.66,1.66,0,0,0-1.35.6,2.58,2.58,0,0,0-.49,1.67,2.37,2.37,0,0,0,.5,1.61,1.67,1.67,0,0,0,1.34.59,1.56,1.56,0,0,0,1.32-.58,2.54,2.54,0,0,0,.47-1.64,2.63,2.63,0,0,0-.47-1.67A1.56,1.56,0,0,0,298.37,205.61Z"/><path class="cls-20" d="M302.31,210.51v-1a2.55,2.55,0,0,0,1.59.56q1.17,0,1.17-.81a.71.71,0,0,0-.1-.39,1,1,0,0,0-.27-.28,1.71,1.71,0,0,0-.4-.22l-.5-.21a4.79,4.79,0,0,1-.64-.31,1.67,1.67,0,0,1-.46-.34,1.4,1.4,0,0,1-.29-.44,1.72,1.72,0,0,1-.09-.58,1.43,1.43,0,0,1,.18-.72,1.67,1.67,0,0,1,.47-.52,2.24,2.24,0,0,1,.68-.32,3,3,0,0,1,.79-.11,3.08,3.08,0,0,1,1.28.26V206a2.39,2.39,0,0,0-1.4-.42,1.53,1.53,0,0,0-.45.06,1.07,1.07,0,0,0-.34.16.77.77,0,0,0-.22.26.62.62,0,0,0-.08.33.7.7,0,0,0,.08.37.6.6,0,0,0,.23.27,2,2,0,0,0,.36.22l.49.21a4.07,4.07,0,0,1,.66.3,2.09,2.09,0,0,1,.5.34,1.42,1.42,0,0,1,.32.45,1.57,1.57,0,0,1,.11.6,1.36,1.36,0,0,1-.19.74,1.5,1.5,0,0,1-.48.52,2,2,0,0,1-.69.31,3.25,3.25,0,0,1-.83.1A3,3,0,0,1,302.31,210.51Z"/><path class="cls-20" d="M311.15,203.51a.54.54,0,0,1-.4-.17.57.57,0,0,1-.17-.42.58.58,0,0,1,.17-.43.52.52,0,0,1,.4-.18.6.6,0,0,1,.59.61.58.58,0,0,1-.59.59Zm.43,7.21h-.88V205h.88Z"/><path class="cls-20" d="M318.13,210.72h-.88v-3.28q0-1.83-1.29-1.83a1.37,1.37,0,0,0-1.1.52,2,2,0,0,0-.43,1.31v3.28h-.89V205h.89v.95h0a2,2,0,0,1,1.82-1.09,1.67,1.67,0,0,1,1.38.61,2.83,2.83,0,0,1,.48,1.77Z"/><path class="cls-20" d="M324.69,210.26q0,3.17-2.92,3.17A3.78,3.78,0,0,1,320,213v-.92a3.57,3.57,0,0,0,1.78.54c1.36,0,2-.75,2-2.26v-.63h0a2.19,2.19,0,0,1-3.56.34,3.15,3.15,0,0,1-.63-2.06,3.69,3.69,0,0,1,.68-2.33,2.22,2.22,0,0,1,1.85-.87,1.79,1.79,0,0,1,1.66.94h0V205h.89Zm-.89-2.14v-.85a1.66,1.66,0,0,0-.44-1.17,1.44,1.44,0,0,0-1.11-.49,1.53,1.53,0,0,0-1.29.62,2.84,2.84,0,0,0-.46,1.74,2.46,2.46,0,0,0,.44,1.53,1.41,1.41,0,0,0,1.18.58,1.51,1.51,0,0,0,1.22-.55A2.12,2.12,0,0,0,323.8,208.12Z"/><path class="cls-20" d="M331.09,208.08h-3.9a2.18,2.18,0,0,0,.5,1.48,1.65,1.65,0,0,0,1.3.52,2.63,2.63,0,0,0,1.72-.64v.86a3.11,3.11,0,0,1-1.93.55,2.3,2.3,0,0,1-1.84-.78,3.27,3.27,0,0,1-.67-2.2,3.2,3.2,0,0,1,.73-2.19,2.34,2.34,0,0,1,1.82-.85,2.05,2.05,0,0,1,1.68.74,3.08,3.08,0,0,1,.59,2Zm-.9-.79a2,2,0,0,0-.37-1.24,1.27,1.27,0,0,0-1-.44,1.41,1.41,0,0,0-1.06.47,2.15,2.15,0,0,0-.54,1.21Zm-.14-5.25-1.42,1.84h-.69l1.21-1.84Z"/><path class="cls-20" d="M337.19,210.72h-.89v-3.28c0-1.22-.42-1.83-1.28-1.83a1.37,1.37,0,0,0-1.1.52,2,2,0,0,0-.44,1.31v3.28h-.88V205h.88v.95h0a2,2,0,0,1,1.81-1.09,1.68,1.68,0,0,1,1.39.61,2.83,2.83,0,0,1,.48,1.77Z"/><path class="cls-20" d="M339.48,203.51a.56.56,0,0,1-.57-.59.57.57,0,0,1,.16-.43.56.56,0,0,1,.82,0,.58.58,0,0,1,.17.43.61.61,0,0,1-.17.42A.57.57,0,0,1,339.48,203.51Zm.43,7.21H339V205h.89Z"/><path class="cls-20" d="M346.31,208.08h-3.9a2.18,2.18,0,0,0,.5,1.48,1.65,1.65,0,0,0,1.3.52,2.63,2.63,0,0,0,1.72-.64v.86a3.11,3.11,0,0,1-1.93.55,2.3,2.3,0,0,1-1.84-.78,3.79,3.79,0,0,1,.06-4.39,2.34,2.34,0,0,1,1.82-.85,2.05,2.05,0,0,1,1.68.74,3.08,3.08,0,0,1,.59,2Zm-.9-.79a2,2,0,0,0-.37-1.24,1.27,1.27,0,0,0-1-.44,1.41,1.41,0,0,0-1.06.47,2.15,2.15,0,0,0-.54,1.21Z"/><path class="cls-20" d="M352.29,210.72h-.88v-.91h0a1.78,1.78,0,0,1-1.7,1c-1.32,0-2-.81-2-2.44V205h.88v3.29c0,1.21.45,1.82,1.34,1.82a1.35,1.35,0,0,0,1.07-.5,1.93,1.93,0,0,0,.42-1.3V205h.88Z"/><path class="cls-20" d="M357.13,205.9a1.09,1.09,0,0,0-.67-.18,1.12,1.12,0,0,0-.95.55,2.69,2.69,0,0,0-.38,1.52v2.93h-.88V205h.88v1.18h0a2.07,2.07,0,0,1,.58-.94,1.28,1.28,0,0,1,.87-.34,1.44,1.44,0,0,1,.53.08Z"/><path class="cls-20" d="M357.92,210.51v-1a2.58,2.58,0,0,0,1.6.56c.77,0,1.16-.27,1.16-.81a.71.71,0,0,0-.1-.39.8.8,0,0,0-.27-.28,1.39,1.39,0,0,0-.4-.22l-.49-.21a5,5,0,0,1-.65-.31,1.83,1.83,0,0,1-.46-.34,1.22,1.22,0,0,1-.28-.44,1.5,1.5,0,0,1-.1-.58,1.43,1.43,0,0,1,.18-.72,1.59,1.59,0,0,1,.48-.52,2.08,2.08,0,0,1,.67-.32,3,3,0,0,1,.79-.11,3.13,3.13,0,0,1,1.29.26V206a2.44,2.44,0,0,0-1.41-.42,1.63,1.63,0,0,0-.45.06,1.19,1.19,0,0,0-.34.16.77.77,0,0,0-.22.26.73.73,0,0,0-.08.33.81.81,0,0,0,.08.37.67.67,0,0,0,.23.27,1.81,1.81,0,0,0,.37.22l.49.21a5,5,0,0,1,.66.3,2,2,0,0,1,.49.34,1.28,1.28,0,0,1,.32.45,1.57,1.57,0,0,1,.11.6,1.44,1.44,0,0,1-.67,1.26,2,2,0,0,1-.69.31,3.2,3.2,0,0,1-.83.1A3,3,0,0,1,357.92,210.51Z"/><path class="cls-20" d="M61.4,15V6.6h2.87q4.31,0,4.3,4.09a4.25,4.25,0,0,1-1.17,3.14A4.26,4.26,0,0,1,64.27,15Zm1.82-6.86v5.32h.9A2.4,2.4,0,0,0,66,12.73a2.89,2.89,0,0,0,.67-2A2.62,2.62,0,0,0,66,8.83a2.5,2.5,0,0,0-1.88-.69Z"/><path class="cls-20" d="M75.1,12.53H71.33c.06.87.59,1.3,1.58,1.3a3,3,0,0,0,1.68-.46V14.7a4.22,4.22,0,0,1-2.08.45,2.85,2.85,0,0,1-2.17-.81,3.11,3.11,0,0,1-.77-2.25,3.25,3.25,0,0,1,.83-2.36,2.71,2.71,0,0,1,2-.88,2.49,2.49,0,0,1,2,.78,3.09,3.09,0,0,1,.69,2.12Zm-1.66-1.14c0-.86-.33-1.29-1-1.29a.94.94,0,0,0-.74.37,1.66,1.66,0,0,0-.38.92Z"/><path class="cls-20" d="M81.82,9l-2.14,6h-2L75.6,9h1.91l1,3.7a6,6,0,0,1,.2,1.06h0a6.05,6.05,0,0,1,.21-1L80,9Z"/><path class="cls-20" d="M86.35,15.15A3.7,3.7,0,0,1,83.52,14a4.3,4.3,0,0,1-1.1-3.06,4.58,4.58,0,0,1,1.12-3.22,3.77,3.77,0,0,1,2.94-1.23,3.63,3.63,0,0,1,2.8,1.17,4.48,4.48,0,0,1,1.06,3.11,4.56,4.56,0,0,1-1.1,3.19A3.75,3.75,0,0,1,86.35,15.15Zm.08-7.06a1.81,1.81,0,0,0-1.53.74,3.25,3.25,0,0,0-.56,2,3.21,3.21,0,0,0,.56,2,1.92,1.92,0,0,0,3,0,3.19,3.19,0,0,0,.55-2,3.37,3.37,0,0,0-.54-2A1.72,1.72,0,0,0,86.43,8.09Z"/><path class="cls-20" d="M93.49,14.3h0v3.46H91.68V9h1.78v.9h0a2.07,2.07,0,0,1,1.85-1.05,2,2,0,0,1,1.73.8,3.51,3.51,0,0,1,.62,2.18A3.78,3.78,0,0,1,97,14.24a2.29,2.29,0,0,1-1.89.91A1.76,1.76,0,0,1,93.49,14.3Zm0-2.46v.48a1.59,1.59,0,0,0,.31,1,1,1,0,0,0,.83.39,1.06,1.06,0,0,0,.94-.49,2.4,2.4,0,0,0,.34-1.39c0-1-.4-1.58-1.18-1.58a1.12,1.12,0,0,0-.9.43A1.78,1.78,0,0,0,93.44,11.84Z"/><path class="cls-20" d="M98.64,14.84v-1.5a3.42,3.42,0,0,0,.87.41,2.83,2.83,0,0,0,.83.14,1.68,1.68,0,0,0,.74-.14.42.42,0,0,0,.28-.41.36.36,0,0,0-.13-.29,1.05,1.05,0,0,0-.31-.21,4.31,4.31,0,0,0-.43-.15l-.45-.16a4.81,4.81,0,0,1-.6-.29,2,2,0,0,1-.44-.36,1.42,1.42,0,0,1-.27-.48,2,2,0,0,1-.09-.64,1.69,1.69,0,0,1,.21-.86,1.79,1.79,0,0,1,.56-.6,2.57,2.57,0,0,1,.81-.34,4.21,4.21,0,0,1,1.72,0,7.25,7.25,0,0,1,.78.17v1.43a2.74,2.74,0,0,0-.73-.3,2.91,2.91,0,0,0-.76-.11,1.24,1.24,0,0,0-.33,0,1.07,1.07,0,0,0-.27.09.4.4,0,0,0-.18.16.34.34,0,0,0-.07.22.4.4,0,0,0,.1.28.9.9,0,0,0,.26.2,1.79,1.79,0,0,0,.37.15l.39.14a5.76,5.76,0,0,1,.65.28,2,2,0,0,1,.49.36,1.55,1.55,0,0,1,.32.48,1.82,1.82,0,0,1,.11.66,1.76,1.76,0,0,1-.23.91,1.81,1.81,0,0,1-.59.61,2.5,2.5,0,0,1-.85.35,4.64,4.64,0,0,1-1,.11A5,5,0,0,1,98.64,14.84Z"/><path d="M7.85,32.07H7.06a7.32,7.32,0,0,1-1.67-4.9,7.61,7.61,0,0,1,1.67-5h.8a7.76,7.76,0,0,0-1.7,5A7.62,7.62,0,0,0,7.85,32.07Z"/><path d="M15,30.24H13.84l-4-6.41a3.44,3.44,0,0,1-.25-.51h0a8.6,8.6,0,0,1,0,1.11v5.81h-.9v-8H9.88l3.88,6.32c.16.26.27.44.32.54h0A8.12,8.12,0,0,1,14,27.86V22.19H15Z"/><path d="M18.9,30.38a2.51,2.51,0,0,1-2-.81,3,3,0,0,1-.73-2.13A3.2,3.2,0,0,1,17,25.17,2.69,2.69,0,0,1,19,24.36a2.43,2.43,0,0,1,1.93.79,3.24,3.24,0,0,1,.69,2.2,3.16,3.16,0,0,1-.75,2.2A2.57,2.57,0,0,1,18.9,30.38ZM19,25.13a1.64,1.64,0,0,0-1.35.61,2.53,2.53,0,0,0-.5,1.66A2.37,2.37,0,0,0,17.62,29,1.64,1.64,0,0,0,19,29.6,1.59,1.59,0,0,0,20.28,29a2.54,2.54,0,0,0,.46-1.64,2.6,2.6,0,0,0-.46-1.66A1.59,1.59,0,0,0,19,25.13Z"/><path d="M27.51,30.24h-.88v-1h0a2.18,2.18,0,0,1-3.56.34,3.26,3.26,0,0,1-.63-2.11,3.52,3.52,0,0,1,.69-2.28A2.24,2.24,0,0,1,25,24.36a1.74,1.74,0,0,1,1.65.93h0V21.73h.88Zm-.88-2.6V26.8a1.65,1.65,0,0,0-.45-1.18,1.43,1.43,0,0,0-1.12-.49,1.52,1.52,0,0,0-1.28.62,2.78,2.78,0,0,0-.46,1.71A2.5,2.5,0,0,0,23.77,29,1.42,1.42,0,0,0,25,29.6a1.48,1.48,0,0,0,1.2-.55A2.12,2.12,0,0,0,26.63,27.64Z"/><path d="M33.47,27.6h-3.9a2.21,2.21,0,0,0,.49,1.48,1.69,1.69,0,0,0,1.31.52A2.64,2.64,0,0,0,33.09,29v.87a3.18,3.18,0,0,1-1.93.55,2.28,2.28,0,0,1-1.84-.79,3.25,3.25,0,0,1-.67-2.2,3.24,3.24,0,0,1,.73-2.19,2.33,2.33,0,0,1,1.82-.84,2,2,0,0,1,1.68.73,3.17,3.17,0,0,1,.59,2Zm-.91-.78a1.91,1.91,0,0,0-.36-1.24,1.26,1.26,0,0,0-1-.45,1.4,1.4,0,0,0-1.06.47,2.18,2.18,0,0,0-.54,1.22Z"/><path d="M34.84,30.37a.59.59,0,0,1-.42-.19.6.6,0,0,1-.18-.44.64.64,0,0,1,.18-.45.59.59,0,0,1,.42-.19.61.61,0,0,1,.44.19.68.68,0,0,1,.17.45.64.64,0,0,1-.17.44A.61.61,0,0,1,34.84,30.37Z"/><path d="M37.54,30A3.66,3.66,0,0,1,37,32.18a1.8,1.8,0,0,1-1.56.77,1.62,1.62,0,0,1-.74-.18v-.86a1.42,1.42,0,0,0,.76.25c.8,0,1.21-.67,1.21-2V24.49h.88Zm-.43-7a.51.51,0,0,1-.4-.17.54.54,0,0,1-.17-.42.56.56,0,0,1,.17-.43.51.51,0,0,1,.4-.17.53.53,0,0,1,.41.17.56.56,0,0,1,.17.43.57.57,0,0,1-.17.42A.53.53,0,0,1,37.11,23Z"/><path d="M38.72,30v-1a2.59,2.59,0,0,0,1.6.55c.78,0,1.16-.27,1.16-.81a.71.71,0,0,0-.1-.39.89.89,0,0,0-.27-.28,1.67,1.67,0,0,0-.4-.22l-.49-.21a6.52,6.52,0,0,1-.64-.3,2,2,0,0,1-.47-.35,1.37,1.37,0,0,1-.28-.44,1.72,1.72,0,0,1-.09-.58,1.42,1.42,0,0,1,.17-.72,1.7,1.7,0,0,1,.48-.52,2.37,2.37,0,0,1,.68-.32,2.88,2.88,0,0,1,.78-.1,3,3,0,0,1,1.29.26v.93a2.44,2.44,0,0,0-1.41-.42,1.51,1.51,0,0,0-.44.06,1.14,1.14,0,0,0-.35.17.75.75,0,0,0-.22.25.73.73,0,0,0-.08.33.86.86,0,0,0,.08.38.83.83,0,0,0,.23.27,1.44,1.44,0,0,0,.37.21l.49.21.66.3a2,2,0,0,1,.49.35,1.34,1.34,0,0,1,.32.44,1.57,1.57,0,0,1,.11.6,1.49,1.49,0,0,1-.18.75,1.59,1.59,0,0,1-.48.52,2.23,2.23,0,0,1-.7.31,3.7,3.7,0,0,1-.83.1A3.17,3.17,0,0,1,38.72,30Z"/><path d="M49.72,22.19,46,31.58h-.83l3.71-9.39Z"/><path d="M53.32,30.37a.59.59,0,0,1-.42-.19.6.6,0,0,1-.17-.44.63.63,0,0,1,.17-.45.59.59,0,0,1,.42-.19.61.61,0,0,1,.44.19.64.64,0,0,1,.18.45.6.6,0,0,1-.18.44A.61.61,0,0,1,53.32,30.37Z"/><path d="M61.5,30.24H60.39l-4-6.41a3.44,3.44,0,0,1-.25-.51h0a8.6,8.6,0,0,1,0,1.11v5.81h-.9v-8h1.17l3.88,6.32c.16.26.27.44.32.54h0a8.12,8.12,0,0,1-.06-1.19V22.19h.91Z"/><path d="M67.36,30.24h-4.1v-8h3.93V23h-3v2.68H67v.85h-2.8v2.82h3.2Z"/><path d="M73.15,23H70.92v7.2H70V23H67.78v-.85h5.37Z"/><path d="M80.22,22.19l-3.71,9.39h-.83l3.7-9.39Z"/><path d="M83.82,30.37a.59.59,0,0,1-.42-.19.6.6,0,0,1-.18-.44.64.64,0,0,1,.18-.45.59.59,0,0,1,.42-.19.57.57,0,0,1,.43.19.64.64,0,0,1,.18.45.6.6,0,0,1-.18.44A.57.57,0,0,1,83.82,30.37Z"/><path d="M85.94,30.37a.59.59,0,0,1-.42-.19.6.6,0,0,1-.18-.44.64.64,0,0,1,.18-.45.59.59,0,0,1,.42-.19.61.61,0,0,1,.44.19.63.63,0,0,1,.17.45.6.6,0,0,1-.17.44A.61.61,0,0,1,85.94,30.37Z"/><path d="M88.07,30.37a.61.61,0,0,1-.6-.63.63.63,0,0,1,.17-.45.59.59,0,0,1,.43-.19.61.61,0,0,1,.43.19.64.64,0,0,1,.18.45.63.63,0,0,1-.61.63Z"/><path d="M92.75,30.24v-8h2.14q4.1,0,4.09,3.93a4,4,0,0,1-1.13,3,4.11,4.11,0,0,1-3,1.13Zm.91-7.2v6.35h1.15a3.21,3.21,0,0,0,2.38-.85,3.25,3.25,0,0,0,.84-2.4c0-2.06-1-3.1-3.16-3.1Z"/><path d="M104.56,27.6h-3.91a2.21,2.21,0,0,0,.5,1.48,1.67,1.67,0,0,0,1.31.52,2.62,2.62,0,0,0,1.71-.64v.87a3.13,3.13,0,0,1-1.92.55,2.29,2.29,0,0,1-1.85-.79,3.3,3.3,0,0,1-.67-2.2,3.24,3.24,0,0,1,.74-2.19,2.29,2.29,0,0,1,1.81-.84,2,2,0,0,1,1.68.73,3.11,3.11,0,0,1,.6,2Zm-.91-.78a1.91,1.91,0,0,0-.37-1.24,1.22,1.22,0,0,0-1-.45,1.43,1.43,0,0,0-1.07.47,2.18,2.18,0,0,0-.54,1.22Zm-.14-5.26-1.42,1.84h-.68l1.2-1.84Z"/><path d="M110,24.49l-2.2,5.75h-.87l-2.1-5.75h1l1.41,4.18a3.93,3.93,0,0,1,.19.8h0a5.62,5.62,0,0,1,.17-.78l1.47-4.2Z"/><path d="M115.09,27.6h-3.91a2.21,2.21,0,0,0,.5,1.48,1.67,1.67,0,0,0,1.31.52A2.62,2.62,0,0,0,114.7,29v.87a3.13,3.13,0,0,1-1.92.55,2.29,2.29,0,0,1-1.85-.79,3.3,3.3,0,0,1-.67-2.2A3.24,3.24,0,0,1,111,25.2a2.29,2.29,0,0,1,1.81-.84,2,2,0,0,1,1.68.73,3.11,3.11,0,0,1,.6,2Zm-.91-.78a1.91,1.91,0,0,0-.37-1.24,1.22,1.22,0,0,0-1-.45,1.43,1.43,0,0,0-1.07.47,2.18,2.18,0,0,0-.54,1.22Z"/><path d="M117,30.24h-.89V21.73H117Z"/><path d="M120.86,30.38a2.49,2.49,0,0,1-2-.81,3,3,0,0,1-.74-2.13,3.2,3.2,0,0,1,.77-2.27,2.67,2.67,0,0,1,2-.81,2.41,2.41,0,0,1,1.93.79,3.19,3.19,0,0,1,.7,2.2,3.16,3.16,0,0,1-.75,2.2A2.59,2.59,0,0,1,120.86,30.38Zm.07-5.25a1.64,1.64,0,0,0-1.35.61,2.53,2.53,0,0,0-.5,1.66,2.42,2.42,0,0,0,.5,1.61,1.68,1.68,0,0,0,1.35.59,1.59,1.59,0,0,0,1.32-.58,2.54,2.54,0,0,0,.46-1.64,2.6,2.6,0,0,0-.46-1.66A1.59,1.59,0,0,0,120.93,25.13Z"/><path d="M125.67,29.41h0v3.48h-.88v-8.4h.88v1h0a2.07,2.07,0,0,1,1.91-1.14,2,2,0,0,1,1.67.77,3.29,3.29,0,0,1,.6,2.07,3.67,3.67,0,0,1-.68,2.31,2.22,2.22,0,0,1-1.85.87A1.81,1.81,0,0,1,125.67,29.41Zm0-2.32v.81a1.76,1.76,0,0,0,.45,1.21,1.55,1.55,0,0,0,2.39-.15,3,3,0,0,0,.46-1.78,2.33,2.33,0,0,0-.43-1.5,1.37,1.37,0,0,0-1.15-.55,1.57,1.57,0,0,0-1.25.56A2.11,2.11,0,0,0,125.64,27.09Z"/><path d="M131.89,29.41h0v3.48H131v-8.4h.89v1h0a2.08,2.08,0,0,1,1.91-1.14,2,2,0,0,1,1.67.77,3.29,3.29,0,0,1,.6,2.07,3.67,3.67,0,0,1-.67,2.31,2.22,2.22,0,0,1-1.85.87A1.83,1.83,0,0,1,131.89,29.41Zm0-2.32v.81a1.76,1.76,0,0,0,.45,1.21,1.43,1.43,0,0,0,1.13.49,1.47,1.47,0,0,0,1.26-.64,3,3,0,0,0,.45-1.78,2.39,2.39,0,0,0-.42-1.5,1.39,1.39,0,0,0-1.16-.55,1.55,1.55,0,0,0-1.24.56A2.11,2.11,0,0,0,131.87,27.09Z"/><path d="M141.66,27.6h-3.91a2.21,2.21,0,0,0,.5,1.48,1.65,1.65,0,0,0,1.3.52,2.63,2.63,0,0,0,1.72-.64v.87a3.16,3.16,0,0,1-1.93.55,2.28,2.28,0,0,1-1.84-.79,3.3,3.3,0,0,1-.67-2.2,3.29,3.29,0,0,1,.73-2.19,2.33,2.33,0,0,1,1.82-.84,2,2,0,0,1,1.68.73,3.11,3.11,0,0,1,.6,2Zm-.91-.78a2,2,0,0,0-.37-1.24,1.22,1.22,0,0,0-1-.45,1.42,1.42,0,0,0-1.07.47,2.18,2.18,0,0,0-.54,1.22Z"/><path d="M147.19,30.24h-.88v-.91h0a1.79,1.79,0,0,1-1.7,1.05c-1.32,0-2-.82-2-2.45V24.49h.88v3.29c0,1.22.45,1.82,1.34,1.82a1.34,1.34,0,0,0,1.07-.49,2,2,0,0,0,.42-1.3V24.49h.88Z"/><path d="M151.59,25.43a1,1,0,0,0-.67-.19,1.12,1.12,0,0,0-.95.56,2.58,2.58,0,0,0-.38,1.51v2.93h-.89V24.49h.89v1.19h0a2,2,0,0,1,.58-.95,1.32,1.32,0,0,1,.87-.34,1.48,1.48,0,0,1,.53.08Z"/><path d="M151.94,30v-1a2.54,2.54,0,0,0,1.59.55q1.17,0,1.17-.81a.81.81,0,0,0-.1-.39,1.19,1.19,0,0,0-.27-.28,2.18,2.18,0,0,0-.4-.22l-.5-.21a6.52,6.52,0,0,1-.64-.3,2.21,2.21,0,0,1-.47-.35,1.37,1.37,0,0,1-.28-.44A1.72,1.72,0,0,1,152,26a1.43,1.43,0,0,1,.18-.72,1.55,1.55,0,0,1,.47-.52,2.37,2.37,0,0,1,.68-.32,2.88,2.88,0,0,1,.78-.1,3,3,0,0,1,1.29.26v.93a2.43,2.43,0,0,0-1.4-.42,1.53,1.53,0,0,0-.45.06,1.14,1.14,0,0,0-.35.17.75.75,0,0,0-.22.25.73.73,0,0,0-.08.33.86.86,0,0,0,.08.38.83.83,0,0,0,.23.27,1.63,1.63,0,0,0,.37.21L154,27a7,7,0,0,1,.66.3,2.34,2.34,0,0,1,.5.35,1.47,1.47,0,0,1,.31.44,1.4,1.4,0,0,1,.11.6,1.49,1.49,0,0,1-.18.75,1.59,1.59,0,0,1-.48.52,2.13,2.13,0,0,1-.7.31,3.68,3.68,0,0,1-.82.1A3.11,3.11,0,0,1,151.94,30Z"/><path d="M156.71,32.07h-.79a7.62,7.62,0,0,0,1.69-4.91,7.76,7.76,0,0,0-1.7-5h.8a7.62,7.62,0,0,1,1.69,5A7.33,7.33,0,0,1,156.71,32.07Z"/><path class="cls-13" d="M161.42,148.84h-2.06l-.6-1.87h-3l-.59,1.87h-2l3.06-8.4h2.24Zm-3.09-3.32-.91-2.83a4,4,0,0,1-.14-.75h0a3.06,3.06,0,0,1-.15.73l-.91,2.85Z"/><path class="cls-13" d="M167,148.84h-5.39v-.77l3-3.87H162v-1.36h5v.91l-2.86,3.72H167Z"/><path class="cls-13" d="M173.74,148.84h-1.85v-.92h0A2.09,2.09,0,0,1,170,149c-1.39,0-2.09-.84-2.09-2.52v-3.62h1.85v3.45c0,.85.33,1.28,1,1.28a1,1,0,0,0,.8-.35,1.42,1.42,0,0,0,.3-1v-3.43h1.85Z"/><path class="cls-13" d="M179.21,144.51a1.63,1.63,0,0,0-.78-.18,1.11,1.11,0,0,0-.94.44,1.84,1.84,0,0,0-.34,1.2v2.87h-1.86v-6h1.86V144h0a1.6,1.6,0,0,1,1.58-1.22,1.43,1.43,0,0,1,.46.07Z"/><path class="cls-13" d="M185.41,146.37H181.5c.06.87.61,1.3,1.65,1.3a3.14,3.14,0,0,0,1.74-.47v1.34a4.65,4.65,0,0,1-2.17.44,2.79,2.79,0,0,1-3.05-2.49,4.34,4.34,0,0,1,0-.51,3.29,3.29,0,0,1,.86-2.37,2.91,2.91,0,0,1,2.14-.87,2.63,2.63,0,0,1,2,.78,3,3,0,0,1,.71,2.12Zm-1.71-1.14c0-.86-.33-1.29-1-1.29a1,1,0,0,0-.77.37,1.73,1.73,0,0,0-.39.92Z"/><path class="cls-13" d="M189.62,148.52v-1.88a3.42,3.42,0,0,0,1.11.64,3.59,3.59,0,0,0,1.21.22,2.56,2.56,0,0,0,.62-.07,1.14,1.14,0,0,0,.44-.18.7.7,0,0,0,.27-.27.63.63,0,0,0,.09-.33.77.77,0,0,0-.14-.44,1.48,1.48,0,0,0-.39-.36,4,4,0,0,0-.57-.32l-.72-.31a3.54,3.54,0,0,1-1.47-1,2.23,2.23,0,0,1-.48-1.43,2.34,2.34,0,0,1,.26-1.13,2.13,2.13,0,0,1,.72-.77,2.88,2.88,0,0,1,1.05-.45,5.36,5.36,0,0,1,1.26-.15,7.67,7.67,0,0,1,1.17.08,4.91,4.91,0,0,1,.93.25v1.75a3,3,0,0,0-.46-.26,5.17,5.17,0,0,0-.51-.18,3,3,0,0,0-.52-.11H193a2.88,2.88,0,0,0-.59.06,1.85,1.85,0,0,0-.44.18.77.77,0,0,0-.28.26.62.62,0,0,0-.1.35.73.73,0,0,0,.11.38,1.22,1.22,0,0,0,.32.32,3.5,3.5,0,0,0,.49.29c.2.1.42.19.67.3a9.37,9.37,0,0,1,.9.44,3.29,3.29,0,0,1,.69.54,2.15,2.15,0,0,1,.44.68,2.5,2.5,0,0,1,.15.9,2.41,2.41,0,0,1-.27,1.18,2.05,2.05,0,0,1-.72.77,3.08,3.08,0,0,1-1.06.43,6.28,6.28,0,0,1-1.3.1,7.35,7.35,0,0,1-1.32-.11A4.45,4.45,0,0,1,189.62,148.52Z"/><path class="cls-13" d="M199.88,148.77a2.92,2.92,0,0,1-1.24.21,1.75,1.75,0,0,1-1.95-2V144.2h-1v-1.36h1v-1.3l1.84-.52v1.82h1.35v1.36h-1.35v2.43c0,.62.25.94.75.94a1.39,1.39,0,0,0,.6-.17Z"/><path class="cls-13" d="M205.92,148.84h-1.76V148h0a2,2,0,0,1-1.79,1,1.87,1.87,0,0,1-1.37-.49,1.79,1.79,0,0,1-.5-1.32c0-1.17.69-1.84,2.07-2l1.63-.21c0-.66-.36-1-1.07-1a3.57,3.57,0,0,0-2,.64V143.2a4.91,4.91,0,0,1,1.06-.36,6.26,6.26,0,0,1,1.22-.15,2.27,2.27,0,0,1,2.57,1.93,2.22,2.22,0,0,1,0,.63Zm-1.74-2.44V146l-1.09.14c-.61.07-.91.35-.91.81a.73.73,0,0,0,.22.52.87.87,0,0,0,.6.2,1.11,1.11,0,0,0,.85-.36A1.33,1.33,0,0,0,204.18,146.4Z"/><path class="cls-13" d="M211.93,148.62a3.65,3.65,0,0,1-1.81.36,3,3,0,0,1-2.24-.83A2.89,2.89,0,0,1,207,146a3.18,3.18,0,0,1,.92-2.41,3.45,3.45,0,0,1,2.45-.88,3.25,3.25,0,0,1,1.54.28v1.57a2.16,2.16,0,0,0-1.3-.43,1.65,1.65,0,0,0-1.26.47,2,2,0,0,0,0,2.53,1.59,1.59,0,0,0,1.22.46,2.45,2.45,0,0,0,1.36-.44Z"/><path class="cls-13" d="M219.15,148.84h-2.22l-1.91-3h0v3h-1.85V140H215v5.65h0l1.78-2.77H219l-2.15,2.82Z"/><path class="cls-13" d="M230.61,148.84h-1.9v-3.42h-3.48v3.42h-1.89v-8.4h1.89v3.35h3.48v-3.35h1.9Z"/><path class="cls-13" d="M238.05,148.84h-1.84v-.92h0a2.09,2.09,0,0,1-1.83,1.06c-1.39,0-2.09-.84-2.09-2.52v-3.62h1.85v3.45c0,.85.33,1.28,1,1.28a1,1,0,0,0,.8-.35,1.42,1.42,0,0,0,.3-.95v-3.43h1.84Z"/><path class="cls-13" d="M241.49,148.14h0v.7h-1.85V140h1.85v3.78h0a2.18,2.18,0,0,1,1.95-1.05,2.14,2.14,0,0,1,1.79.8,3.52,3.52,0,0,1,.62,2.18,3.72,3.72,0,0,1-.73,2.41,2.41,2.41,0,0,1-2,.9A1.88,1.88,0,0,1,241.49,148.14Zm-.05-2.53v.61a1.46,1.46,0,0,0,.33,1,1.1,1.1,0,0,0,.86.38,1.16,1.16,0,0,0,1-.49,2.35,2.35,0,0,0,.35-1.39,1.91,1.91,0,0,0-.32-1.16,1.09,1.09,0,0,0-.92-.42,1.18,1.18,0,0,0-.92.42A1.56,1.56,0,0,0,241.44,145.61Z"/><path class="cls-13" d="M191.69,70h-2.06l-.6-1.87h-3L185.45,70h-2l3.06-8.4h2.24Zm-3.09-3.32-.91-2.83a4,4,0,0,1-.14-.75h0a3.06,3.06,0,0,1-.15.73l-.91,2.85Z"/><path class="cls-13" d="M197.31,70h-5.39v-.77l3-3.86H192.2V64h5.07v.91l-2.86,3.72h2.88Z"/><path class="cls-13" d="M204,70h-1.85v-.91h0a2.1,2.1,0,0,1-1.83,1.06c-1.39,0-2.09-.85-2.09-2.53V64h1.85v3.46c0,.84.33,1.27,1,1.27a1,1,0,0,0,.8-.35,1.42,1.42,0,0,0,.3-.95V64H204Z"/><path class="cls-13" d="M209.48,65.67a1.63,1.63,0,0,0-.78-.18,1.11,1.11,0,0,0-.94.44,2,2,0,0,0-.34,1.2V70h-1.86V64h1.86v1.11h0A1.6,1.6,0,0,1,209,63.89a1.43,1.43,0,0,1,.46.07Z"/><path class="cls-13" d="M215.68,67.53h-3.91c.06.87.61,1.3,1.65,1.3a3.22,3.22,0,0,0,1.74-.46V69.7a4.53,4.53,0,0,1-2.17.45,2.79,2.79,0,0,1-3.05-2.5,2.62,2.62,0,0,1,0-.56,3.18,3.18,0,0,1,.86-2.36,2.87,2.87,0,0,1,2.14-.88,2.63,2.63,0,0,1,2,.78,3,3,0,0,1,.71,2.12ZM214,66.39q0-1.29-1.05-1.29a1,1,0,0,0-.77.37,1.65,1.65,0,0,0-.39.92Z"/></g></svg>