<svg xmlns="http://www.w3.org/2000/svg" xmlns:xlink="http://www.w3.org/1999/xlink" viewBox="0 0 395 201.5"><defs><style>.cls-1{fill:#fff;}.cls-2,.cls-8{fill:#3c3c41;}.cls-2,.cls-6{opacity:0.08;}.cls-2,.cls-3,.cls-4,.cls-5,.cls-6,.cls-7,.cls-8,.cls-9{isolation:isolate;}.cls-3,.cls-4,.cls-5{opacity:0.7;}.cls-3{fill:url(#Degradado_sin_nombre);}.cls-4{fill:url(#Degradado_sin_nombre_2);}.cls-5{fill:url(#Degradado_sin_nombre_3);}.cls-6{fill:#0078d4;}.cls-7,.cls-9{fill:none;stroke-miterlimit:10;stroke-width:0.5px;}.cls-7{stroke:#0078d4;opacity:0.6;}.cls-8{opacity:0.15;}.cls-9{stroke:#3c3c41;opacity:0.5;}.cls-10{fill:url(#Degradado_sin_nombre_4);}.cls-11{fill:#f2f2f2;}.cls-12{fill:#1e1e1e;}</style><linearGradient id="Degradado_sin_nombre" x1="62.5" y1="201.89" x2="62.5" y2="26.89" gradientTransform="matrix(1, 0, 0, -1, 0, 201.89)" gradientUnits="userSpaceOnUse"><stop offset="0" stop-color="#5ea0ef"/><stop offset="0.18" stop-color="#559cec"/><stop offset="0.47" stop-color="#3c91e5"/><stop offset="0.84" stop-color="#1380da"/><stop offset="1" stop-color="#0078d4"/></linearGradient><linearGradient id="Degradado_sin_nombre_2" x1="197.5" y1="201.89" x2="197.5" y2="26.89" xlink:href="#Degradado_sin_nombre"/><linearGradient id="Degradado_sin_nombre_3" x1="332.5" y1="201.89" x2="332.5" y2="26.89" xlink:href="#Degradado_sin_nombre"/><linearGradient id="Degradado_sin_nombre_4" x1="146.77" y1="486.39" x2="146.77" y2="509.39" gradientTransform="translate(0 -307.89)" xlink:href="#Degradado_sin_nombre"/></defs><g id="bg"><g id="Shapes"><rect class="cls-1" x="135" width="260" height="195"/><rect class="cls-2" x="135" width="260" height="195"/><rect class="cls-1" width="125" height="175"/><rect class="cls-3" width="125" height="175"/><rect class="cls-1" x="135" width="125" height="175"/><rect class="cls-4" x="135" width="125" height="175"/><rect class="cls-1" x="270" width="125" height="175"/><rect class="cls-5" x="270" width="125" height="175"/><rect class="cls-1" x="5" y="40" width="250" height="40"/><rect class="cls-6" x="5" y="40" width="250" height="40"/><rect class="cls-7" x="5" y="40" width="250" height="40"/><rect class="cls-1" x="140" y="85" width="250" height="40"/><rect class="cls-8" x="140" y="85" width="250" height="40"/><rect class="cls-9" x="140" y="85" width="250" height="40"/><rect class="cls-1" x="5" y="85" width="115" height="50"/><rect class="cls-6" x="5" y="85" width="115" height="50"/><rect class="cls-7" x="5" y="85" width="115" height="50"/><rect class="cls-1" x="5" y="140" width="115" height="25"/><rect class="cls-6" x="5" y="140" width="115" height="25"/><rect class="cls-7" x="5" y="140" width="115" height="25"/><rect class="cls-1" x="140" y="140" width="250" height="25"/><rect class="cls-8" x="140" y="140" width="250" height="25"/><rect class="cls-9" x="140" y="140" width="250" height="25"/><path class="cls-10" d="M153.53,179.27v21.46a.75.75,0,0,1-.74.77h-12a.75.75,0,0,1-.77-.74V179.27a.75.75,0,0,1,.74-.77h12a.75.75,0,0,1,.77.74Z"/><path id="a1bc77ea-5288-41a0-8f9a-2d282cf54a86" class="cls-11" d="M141.8,180.89h2.26a.21.21,0,0,1,.19.19v2.85a.19.19,0,0,1-.19.18H141.8a.18.18,0,0,1-.2-.16v-2.87A.2.2,0,0,1,141.8,180.89Zm3.87,0h2.19a.2.2,0,0,1,.19.19h0v2.85a.18.18,0,0,1-.18.18h-2.2a.18.18,0,0,1-.19-.17h0v-2.85a.2.2,0,0,1,.19-.19Zm3.87,0h2.19a.2.2,0,0,1,.2.19v2.85a.18.18,0,0,1-.18.18h-2.21a.18.18,0,0,1-.19-.17h0v-2.85a.2.2,0,0,1,.19-.19Zm-7.74,5.16h2.26a.2.2,0,0,1,.19.19h0v2.84a.19.19,0,0,1-.18.2H141.8a.2.2,0,0,1-.2-.2v-2.84a.19.19,0,0,1,.19-.19Zm3.87,0h2.19a.18.18,0,0,1,.19.17v0h0v2.84a.19.19,0,0,1-.18.2h-2.2a.19.19,0,0,1-.19-.19h0v-2.84a.18.18,0,0,1,.17-.19Zm3.87,0h2.19a.19.19,0,0,1,.2.18h0v2.84a.2.2,0,0,1-.2.2h-2.19a.19.19,0,0,1-.19-.19h0v-2.84a.18.18,0,0,1,.17-.19Zm-7.74,5.17h2.26a.2.2,0,0,1,.19.19h0v2.84a.21.21,0,0,1-.19.19H141.8a.2.2,0,0,1-.2-.19v-2.9a.2.2,0,0,1,.2-.13Zm3.87,0h2.19a.19.19,0,0,1,.25.1h0v2.84a.2.2,0,0,1-.19.19h-2.26a.18.18,0,0,1-.19-.17v0h0v-2.84a.18.18,0,0,1,.2-.1Zm0,5.15h2.19a.2.2,0,0,1,.19.19h0v4.26a.18.18,0,0,1-.17.19h-2.21a.18.18,0,0,1-.19-.17v-4.28a.2.2,0,0,1,.19-.19Zm3.87-5.15h2.19a.19.19,0,0,1,.2.18h0v2.84a.2.2,0,0,1-.2.19h-2.19a.2.2,0,0,1-.19-.19h0v-2.9a.18.18,0,0,1,.19-.13Z"/></g><path class="cls-12" d="M54.28,17H52.22l-.6-1.87h-3L48,17H46l3.06-8.4H51.3Zm-3.09-3.32-.9-2.83a2.76,2.76,0,0,1-.14-.75h0a3.06,3.06,0,0,1-.15.73l-1,2.85Z"/><path class="cls-12" d="M60.21,17H54.83v-.77l3-3.86h-2.7V11h5.06v.91l-2.86,3.72h2.88Z"/><path class="cls-12" d="M67,17H65.13v-.91h0a2.1,2.1,0,0,1-1.83,1.06c-1.39,0-2.09-.85-2.09-2.53V11H63v3.46c0,.84.33,1.27,1,1.27a1,1,0,0,0,.8-.35,1.43,1.43,0,0,0,.3-1V11H67Z"/><path class="cls-12" d="M72.42,12.67a1.75,1.75,0,0,0-.78-.18,1.14,1.14,0,0,0-1,.44,2,2,0,0,0-.34,1.2V17H68.5V11h1.85v1.11h0A1.6,1.6,0,0,1,72,10.89a1.43,1.43,0,0,1,.46.07Z"/><path class="cls-12" d="M78.74,14.53H74.83c.06.87.61,1.3,1.65,1.3a3.22,3.22,0,0,0,1.74-.46V16.7a4.53,4.53,0,0,1-2.17.45,3,3,0,0,1-2.25-.81,3,3,0,0,1-.8-2.25,3.18,3.18,0,0,1,.86-2.36A2.87,2.87,0,0,1,76,10.85a2.63,2.63,0,0,1,2,.78,3,3,0,0,1,.71,2.12ZM77,13.39c0-.86-.33-1.29-1-1.29a1,1,0,0,0-.77.37,1.65,1.65,0,0,0-.39.92Z"/></g><g id="txt"><path class="cls-12" d="M293.61,16.07h-2.1l-.61-1.93h-3l-.6,1.93h-2.08l3.11-8.65h2.28Zm-3.15-3.42-.92-2.91A4.41,4.41,0,0,1,289.4,9h0a3.3,3.3,0,0,1-.15.76l-.93,2.93Z"/><path class="cls-12" d="M299.32,16.07h-5.48v-.79l3.07-4h-2.76V9.89h5.15v.94l-2.91,3.83h2.93Z"/><path class="cls-12" d="M306.13,16.07h-1.88v-.94h0a2.1,2.1,0,0,1-1.86,1.09c-1.42,0-2.12-.87-2.12-2.6V9.89h1.87v3.56c0,.87.35,1.31,1,1.31a1,1,0,0,0,.81-.36,1.46,1.46,0,0,0,.3-1V9.89h1.88Z"/><path class="cls-12" d="M311.69,11.61a1.65,1.65,0,0,0-.79-.18,1.14,1.14,0,0,0-1,.45,2,2,0,0,0-.34,1.24v3h-1.89V9.89h1.89V11h0a1.62,1.62,0,0,1,1.61-1.25,1.14,1.14,0,0,1,.46.07Z"/><path class="cls-12" d="M318,13.52h-4c.07.9.62,1.35,1.68,1.35a3.26,3.26,0,0,0,1.77-.48v1.37a4.58,4.58,0,0,1-2.2.46,3.1,3.1,0,0,1-2.3-.83,3.16,3.16,0,0,1-.81-2.31,3.32,3.32,0,0,1,.88-2.44,2.92,2.92,0,0,1,2.17-.9,2.64,2.64,0,0,1,2.06.8,3.12,3.12,0,0,1,.73,2.18Zm-1.74-1.17c0-.88-.36-1.32-1.06-1.32a1,1,0,0,0-.79.38,1.75,1.75,0,0,0-.4.94Z"/><path class="cls-12" d="M322.28,15.74V13.81a3.8,3.8,0,0,0,1.13.66,3.7,3.7,0,0,0,1.22.22,2.41,2.41,0,0,0,.64-.07,1.32,1.32,0,0,0,.45-.18.8.8,0,0,0,.27-.28.7.7,0,0,0,.09-.35.77.77,0,0,0-.14-.45,2,2,0,0,0-.39-.37,4,4,0,0,0-.59-.32l-.73-.32a3.7,3.7,0,0,1-1.49-1,2.28,2.28,0,0,1-.5-1.47,2.38,2.38,0,0,1,.27-1.17,2.21,2.21,0,0,1,.73-.79,3.35,3.35,0,0,1,1.07-.47,6,6,0,0,1,1.29-.14,7,7,0,0,1,1.18.08,4.56,4.56,0,0,1,1,.25v1.8a2.37,2.37,0,0,0-.47-.26,3.24,3.24,0,0,0-.52-.19,5,5,0,0,0-.53-.12l-.5,0a2.77,2.77,0,0,0-.6.06,1.32,1.32,0,0,0-.45.18,1,1,0,0,0-.29.27.65.65,0,0,0-.1.36.71.71,0,0,0,.11.39,1.65,1.65,0,0,0,.32.33,3.83,3.83,0,0,0,.51.3c.2.1.42.2.67.3a7.88,7.88,0,0,1,.92.46,3.07,3.07,0,0,1,.7.56,2,2,0,0,1,.45.7,2.56,2.56,0,0,1,.16.92,2.36,2.36,0,0,1-.28,1.21,2.16,2.16,0,0,1-.73.8,3.27,3.27,0,0,1-1.08.44,6.1,6.1,0,0,1-1.3.13,7.18,7.18,0,0,1-1.34-.12A4.06,4.06,0,0,1,322.28,15.74Z"/><path class="cls-12" d="M332.71,16a2.88,2.88,0,0,1-1.25.22c-1.33,0-2-.7-2-2.09V11.3h-1V9.89h1V8.56L331.34,8V9.89h1.37V11.3h-1.37v2.5c0,.64.25,1,.76,1a1.31,1.31,0,0,0,.61-.17Z"/><path class="cls-12" d="M338.85,16.07h-1.78v-.89h0a2,2,0,0,1-1.81,1,1.88,1.88,0,0,1-1.4-.51,1.83,1.83,0,0,1-.51-1.36q0-1.8,2.1-2.07l1.66-.23c0-.67-.36-1-1.09-1a3.68,3.68,0,0,0-2.07.66V10.26A4.23,4.23,0,0,1,335,9.9a5.27,5.27,0,0,1,1.24-.16,2.32,2.32,0,0,1,2.61,2.64Zm-1.77-2.51v-.42l-1.11.15c-.61.08-.92.36-.92.84a.7.7,0,0,0,.23.53.83.83,0,0,0,.6.21,1.16,1.16,0,0,0,.87-.37A1.37,1.37,0,0,0,337.08,13.56Z"/><path class="cls-12" d="M345,15.85a3.78,3.78,0,0,1-1.84.37,3.12,3.12,0,0,1-2.28-.86,3,3,0,0,1-.87-2.23,3.28,3.28,0,0,1,.94-2.48,3.43,3.43,0,0,1,2.49-.91A3.19,3.19,0,0,1,345,10v1.62a2.11,2.11,0,0,0-1.32-.45,1.72,1.72,0,0,0-1.28.48,1.79,1.79,0,0,0-.47,1.33,1.77,1.77,0,0,0,.45,1.28,1.66,1.66,0,0,0,1.24.47,2.46,2.46,0,0,0,1.38-.45Z"/><path class="cls-12" d="M352.31,16.07h-2.26L348.1,13h0v3.06h-1.89V6.93h1.89v5.82h0l1.82-2.86h2.23L350,12.79Z"/><path class="cls-12" d="M364,16.07H362V12.55h-3.54v3.52h-1.92V7.42h1.92v3.45H362V7.42H364Z"/><path class="cls-12" d="M371.52,16.07h-1.87v-.94h0a2.13,2.13,0,0,1-1.87,1.09c-1.41,0-2.12-.87-2.12-2.6V9.89h1.88v3.56c0,.87.34,1.31,1,1.31a1,1,0,0,0,.81-.36,1.41,1.41,0,0,0,.31-1V9.89h1.87Z"/><path class="cls-12" d="M375,15.35h0v.72h-1.88V6.93H375v3.89h0a2.39,2.39,0,0,1,3.8-.26,3.62,3.62,0,0,1,.63,2.25,3.81,3.81,0,0,1-.74,2.47,2.41,2.41,0,0,1-2,.94A1.9,1.9,0,0,1,375,15.35Zm-.06-2.6v.63a1.49,1.49,0,0,0,.34,1,1.11,1.11,0,0,0,.87.39,1.17,1.17,0,0,0,1-.5,2.44,2.44,0,0,0,.35-1.43,1.94,1.94,0,0,0-.32-1.2,1.12,1.12,0,0,0-.93-.43,1.19,1.19,0,0,0-.94.43A1.7,1.7,0,0,0,375,12.75Z"/><path class="cls-12" d="M330.46,30.37h-1.93V26.85H325v3.52h-1.93V21.72H325v3.45h3.54V21.72h1.93Z"/><path class="cls-12" d="M338.54,30.06a5.55,5.55,0,0,1-2.45.46A4.08,4.08,0,0,1,333,29.35a4.32,4.32,0,0,1-1.13-3.12,4.61,4.61,0,0,1,1.27-3.36,4.4,4.4,0,0,1,3.29-1.29,6,6,0,0,1,2.11.32v1.87a3.8,3.8,0,0,0-2-.52,2.58,2.58,0,0,0-1.94.77,2.87,2.87,0,0,0-.74,2.07,2.77,2.77,0,0,0,.7,2,2.43,2.43,0,0,0,1.87.75,4,4,0,0,0,2.07-.56Z"/><path class="cls-12" d="M342,30.37H340V21.72H342Z"/><path class="cls-12" d="M159,17.23h-2.1l-.61-1.92h-3l-.6,1.92h-2.08l3.11-8.65H156Zm-3.15-3.42L155,10.9a4.46,4.46,0,0,1-.14-.77h-.05a3.32,3.32,0,0,1-.15.75l-.92,2.93Z"/><path class="cls-12" d="M164.73,17.23h-5.48v-.79l3.07-4h-2.76V11.05h5.15V12l-2.91,3.82h2.93Z"/><path class="cls-12" d="M171.54,17.23h-1.88v-.94h0a2.1,2.1,0,0,1-1.86,1.09c-1.42,0-2.12-.87-2.12-2.6V11.05h1.87v3.56c0,.88.35,1.31,1,1.31a1,1,0,0,0,.81-.36,1.46,1.46,0,0,0,.3-1V11.05h1.88Z"/><path class="cls-12" d="M177.1,12.77a1.65,1.65,0,0,0-.79-.18,1.14,1.14,0,0,0-1,.45,2,2,0,0,0-.34,1.24v3h-1.89V11.05H175V12.2h0A1.62,1.62,0,0,1,176.64,11a1.14,1.14,0,0,1,.46.07Z"/><path class="cls-12" d="M183.41,14.68h-4c.07.9.62,1.35,1.68,1.35a3.26,3.26,0,0,0,1.77-.48v1.37a4.58,4.58,0,0,1-2.2.46,3.1,3.1,0,0,1-2.3-.83,3.16,3.16,0,0,1-.81-2.31,3.32,3.32,0,0,1,.88-2.44,2.92,2.92,0,0,1,2.17-.9,2.62,2.62,0,0,1,2.06.81,3.08,3.08,0,0,1,.73,2.17Zm-1.74-1.16c0-.89-.36-1.33-1.06-1.33a1,1,0,0,0-.79.38,1.75,1.75,0,0,0-.4.95Z"/><path class="cls-12" d="M187.69,16.9V15a3.8,3.8,0,0,0,1.13.66,3.46,3.46,0,0,0,1.22.22,2.41,2.41,0,0,0,.64-.07,1.32,1.32,0,0,0,.45-.18.8.8,0,0,0,.27-.28.7.7,0,0,0,.09-.35.8.8,0,0,0-.14-.45,2,2,0,0,0-.39-.37,4,4,0,0,0-.59-.32l-.73-.32a3.7,3.7,0,0,1-1.49-1,2.28,2.28,0,0,1-.5-1.47,2.34,2.34,0,0,1,.27-1.16,2.24,2.24,0,0,1,.73-.8,3.35,3.35,0,0,1,1.07-.47A6,6,0,0,1,191,8.44a7,7,0,0,1,1.18.08,4.56,4.56,0,0,1,.95.25v1.8a2.37,2.37,0,0,0-.47-.26,3.24,3.24,0,0,0-.52-.19,3.33,3.33,0,0,0-.53-.11,3,3,0,0,0-.5,0,2.77,2.77,0,0,0-.6.06,1.32,1.32,0,0,0-.45.18,1,1,0,0,0-.29.27.65.65,0,0,0-.1.36.71.71,0,0,0,.11.39,1.42,1.42,0,0,0,.32.33,3.83,3.83,0,0,0,.51.3c.2.1.42.2.67.3a6.56,6.56,0,0,1,.92.47,3.05,3.05,0,0,1,.71.55,2.13,2.13,0,0,1,.44.7,2.56,2.56,0,0,1,.16.92,2.46,2.46,0,0,1-.27,1.21,2.28,2.28,0,0,1-.74.8,3.27,3.27,0,0,1-1.08.44,6.1,6.1,0,0,1-1.3.13,7.18,7.18,0,0,1-1.34-.12A4.06,4.06,0,0,1,187.69,16.9Z"/><path class="cls-12" d="M198.12,17.16a2.76,2.76,0,0,1-1.26.22c-1.32,0-2-.7-2-2.09V12.46h-1V11.05h1V9.72l1.87-.54v1.87h1.37v1.41h-1.37V15c0,.64.25,1,.76,1a1.31,1.31,0,0,0,.61-.17Z"/><path class="cls-12" d="M204.26,17.23h-1.78v-.89h0a2,2,0,0,1-1.81,1,1.88,1.88,0,0,1-1.4-.51,1.83,1.83,0,0,1-.51-1.36q0-1.8,2.1-2.07l1.66-.23c0-.67-.36-1-1.09-1a3.68,3.68,0,0,0-2.07.66V11.42a4.66,4.66,0,0,1,1.08-.36,5.86,5.86,0,0,1,1.24-.16,2.32,2.32,0,0,1,2.61,2.64Zm-1.77-2.51v-.41l-1.11.14c-.61.08-.92.36-.92.84a.69.69,0,0,0,.23.53.83.83,0,0,0,.6.21,1.13,1.13,0,0,0,.87-.37A1.37,1.37,0,0,0,202.49,14.72Z"/><path class="cls-12" d="M210.37,17a3.67,3.67,0,0,1-1.84.37,3.12,3.12,0,0,1-2.28-.86,3,3,0,0,1-.87-2.23,3.32,3.32,0,0,1,.94-2.48,3.43,3.43,0,0,1,2.49-.91,3.19,3.19,0,0,1,1.56.29v1.62a2.11,2.11,0,0,0-1.32-.45,1.72,1.72,0,0,0-1.28.48,1.79,1.79,0,0,0-.47,1.33,1.77,1.77,0,0,0,.45,1.28,1.62,1.62,0,0,0,1.24.47,2.46,2.46,0,0,0,1.38-.45Z"/><path class="cls-12" d="M217.72,17.23h-2.26l-2-3.06h0v3.06H211.6V8.09h1.89v5.82h0l1.82-2.86h2.23L215.38,14Z"/><path class="cls-12" d="M229.37,17.23h-1.93V13.71H223.9v3.52H222V8.58h1.92V12h3.54V8.58h1.93Z"/><path class="cls-12" d="M236.93,17.23h-1.87v-.94h0a2.13,2.13,0,0,1-1.87,1.09c-1.41,0-2.12-.87-2.12-2.6V11.05h1.88v3.56c0,.88.34,1.31,1,1.31a1,1,0,0,0,.81-.36,1.41,1.41,0,0,0,.31-1V11.05h1.87Z"/><path class="cls-12" d="M240.43,16.51h0v.72h-1.88V8.09h1.88V12h0a2.39,2.39,0,0,1,3.8-.26,3.62,3.62,0,0,1,.63,2.25,3.86,3.86,0,0,1-.74,2.48,2.42,2.42,0,0,1-2,.93A1.9,1.9,0,0,1,240.43,16.51Zm-.06-2.6v.63a1.49,1.49,0,0,0,.34,1,1.11,1.11,0,0,0,.87.39,1.17,1.17,0,0,0,1-.5,2.44,2.44,0,0,0,.35-1.43,1.94,1.94,0,0,0-.32-1.2,1.12,1.12,0,0,0-.93-.43,1.19,1.19,0,0,0-.93.43A1.65,1.65,0,0,0,240.37,13.91Z"/><path class="cls-12" d="M32.43,52.58v3.18h-1v-8.4h2.28A3,3,0,0,1,35.8,48a2.37,2.37,0,0,1,.73,1.86,2.55,2.55,0,0,1-.81,2,3.1,3.1,0,0,1-2.2.76Zm0-4.33v3.44h1A2.24,2.24,0,0,0,35,51.23a1.67,1.67,0,0,0,.53-1.32c0-1.11-.65-1.66-1.94-1.66Z"/><path class="cls-12" d="M39.88,55.9a2.72,2.72,0,0,1-2.09-.84A3.1,3.1,0,0,1,37,52.83a3.24,3.24,0,0,1,.82-2.36,2.89,2.89,0,0,1,2.2-.85,2.63,2.63,0,0,1,2.07.83A3.79,3.79,0,0,1,42,55,2.84,2.84,0,0,1,39.88,55.9ZM40,50.43a1.77,1.77,0,0,0-1.44.63A2.59,2.59,0,0,0,38,52.8a2.46,2.46,0,0,0,.54,1.68,1.82,1.82,0,0,0,1.44.61,1.73,1.73,0,0,0,1.42-.6,3.28,3.28,0,0,0,0-3.45A1.71,1.71,0,0,0,40,50.43Z"/><path class="cls-12" d="M47.33,50.73a1.16,1.16,0,0,0-.72-.19,1.2,1.2,0,0,0-1,.58,2.72,2.72,0,0,0-.41,1.58v3.06h-1v-6h1V51h0a2.08,2.08,0,0,1,.62-1,1.35,1.35,0,0,1,.93-.35,1.5,1.5,0,0,1,.57.08Z"/><path class="cls-12" d="M51,55.7a1.78,1.78,0,0,1-.89.19c-1,0-1.56-.59-1.56-1.76V50.58h-1v-.82h1V48.3l1-.31v1.77H51v.82h-1.5V54a1.37,1.37,0,0,0,.21.86.79.79,0,0,0,.67.26,1,1,0,0,0,.62-.2Z"/><path class="cls-12" d="M56.38,55.76h-1v-.94h0a2,2,0,0,1-1.83,1.08,1.94,1.94,0,0,1-1.38-.47,1.64,1.64,0,0,1-.5-1.26c0-1.12.65-1.78,1.95-2L55.43,52c0-1-.41-1.53-1.22-1.53a2.88,2.88,0,0,0-1.94.74v-1a3.72,3.72,0,0,1,2-.56c1.39,0,2.09.75,2.09,2.24Zm-1-3L54,52.92a2.43,2.43,0,0,0-1,.34,1,1,0,0,0-.33.84.89.89,0,0,0,.31.71,1.15,1.15,0,0,0,.82.28,1.51,1.51,0,0,0,1.17-.5,1.79,1.79,0,0,0,.46-1.27Z"/><path class="cls-12" d="M58.53,48.24a.58.58,0,0,1-.43-.18.59.59,0,0,1-.18-.44.61.61,0,0,1,.18-.45.58.58,0,0,1,.43-.18.62.62,0,0,1,.63.63.62.62,0,0,1-.18.44A.61.61,0,0,1,58.53,48.24ZM59,55.76h-1v-6h1Z"/><path class="cls-12" d="M61.75,55.76h-1V46.88h1Z"/><path class="cls-12" d="M73.23,55.76H72.16l-.88-2.35H67.76l-.83,2.35H65.85L69,47.36h1ZM71,52.52l-1.3-3.58a2.59,2.59,0,0,1-.13-.56h0a3.23,3.23,0,0,1-.14.56l-1.29,3.58Z"/><path class="cls-12" d="M78.34,50l-3.51,4.9h3.48v.82H73.44v-.3L77,50.58H73.77v-.82h4.57Z"/><path class="cls-12" d="M84.24,55.76h-.95v-.95h0a1.93,1.93,0,0,1-1.83,1.09c-1.41,0-2.12-.85-2.12-2.55V49.76h1v3.43c0,1.27.48,1.9,1.43,1.9a1.44,1.44,0,0,0,1.15-.52,2,2,0,0,0,.44-1.35V49.76h.95Z"/><path class="cls-12" d="M89.13,50.73a1.13,1.13,0,0,0-.72-.19,1.2,1.2,0,0,0-1,.58A2.72,2.72,0,0,0,87,52.7v3.06H86v-6H87V51h0a2.16,2.16,0,0,1,.62-1,1.38,1.38,0,0,1,.93-.35,1.44,1.44,0,0,1,.57.08Z"/><path class="cls-12" d="M94.81,53H90.62a2.3,2.3,0,0,0,.54,1.55,1.81,1.81,0,0,0,1.4.54,2.88,2.88,0,0,0,1.84-.67v.91a3.43,3.43,0,0,1-2.07.57,2.45,2.45,0,0,1-2-.82,3.35,3.35,0,0,1-.72-2.3,3.32,3.32,0,0,1,.78-2.28,2.52,2.52,0,0,1,2-.88,2.2,2.2,0,0,1,1.8.76,3.18,3.18,0,0,1,.64,2.12Zm-1-.81a2,2,0,0,0-.4-1.3,1.34,1.34,0,0,0-1.09-.46,1.56,1.56,0,0,0-1.14.48,2.3,2.3,0,0,0-.58,1.28Z"/><path class="cls-12" d="M97,54.42l-.92,2.89h-.68l.68-2.89Z"/><path class="cls-12" d="M108.26,55.76h-1.08l-.88-2.35h-3.52L102,55.76h-1.08l3.18-8.4h1ZM106,52.52l-1.3-3.58a3.38,3.38,0,0,1-.13-.56h0a3.36,3.36,0,0,1-.13.56l-1.3,3.58Z"/><path class="cls-12" d="M110.33,52.58v3.18h-1v-8.4h2.28a3,3,0,0,1,2.06.65,2.37,2.37,0,0,1,.74,1.86,2.52,2.52,0,0,1-.82,2,3.06,3.06,0,0,1-2.19.76Zm0-4.33v3.44h1a2.28,2.28,0,0,0,1.54-.46,1.67,1.67,0,0,0,.53-1.32c0-1.11-.65-1.66-2-1.66Z"/><path class="cls-12" d="M116.85,55.76h-1v-8.4h1Z"/><path class="cls-12" d="M119.66,54.42l-.93,2.89h-.68l.68-2.89Z"/><path class="cls-12" d="M125.47,55.76h-1v-8.4h1Z"/><path class="cls-12" d="M131.65,55.76h-1v-.94h0a2,2,0,0,1-1.83,1.08,1.94,1.94,0,0,1-1.38-.47,1.64,1.64,0,0,1-.5-1.26c0-1.12.65-1.78,1.95-2L130.7,52c0-1-.41-1.53-1.22-1.53a2.88,2.88,0,0,0-1.94.74v-1a3.72,3.72,0,0,1,2-.56c1.39,0,2.09.75,2.09,2.24Zm-1-3-1.43.19a2.43,2.43,0,0,0-1,.34,1,1,0,0,0-.33.84.89.89,0,0,0,.31.71,1.15,1.15,0,0,0,.82.28,1.51,1.51,0,0,0,1.17-.5,1.79,1.79,0,0,0,.46-1.27Z"/><path class="cls-12" d="M137.56,55.76h-.95v-.94h0a2,2,0,0,1-1.83,1.08,1.94,1.94,0,0,1-1.38-.47,1.64,1.64,0,0,1-.5-1.26c0-1.12.65-1.78,2-2l1.78-.25c0-1-.41-1.53-1.22-1.53a2.85,2.85,0,0,0-1.93.74v-1a3.66,3.66,0,0,1,2-.56c1.39,0,2.09.75,2.09,2.24Zm-.95-3-1.43.19a2.32,2.32,0,0,0-1,.34.93.93,0,0,0-.34.84.89.89,0,0,0,.31.71,1.17,1.17,0,0,0,.82.28,1.49,1.49,0,0,0,1.17-.5,1.79,1.79,0,0,0,.46-1.27Z"/><path class="cls-12" d="M138.87,55.54v-1a2.78,2.78,0,0,0,1.71.58c.83,0,1.25-.28,1.25-.84a.76.76,0,0,0-.11-.41,1,1,0,0,0-.29-.29,1.94,1.94,0,0,0-.43-.24l-.52-.21a6.76,6.76,0,0,1-.7-.32,2.15,2.15,0,0,1-.49-.36A1.38,1.38,0,0,1,139,52a1.85,1.85,0,0,1-.1-.61,1.48,1.48,0,0,1,.19-.74,1.78,1.78,0,0,1,.51-.55,2.86,2.86,0,0,1,.73-.33,3.5,3.5,0,0,1,2.22.16v1a2.67,2.67,0,0,0-1.51-.43,1.86,1.86,0,0,0-.48.06,1.2,1.2,0,0,0-.36.17.87.87,0,0,0-.24.27.66.66,0,0,0-.08.34.75.75,0,0,0,.08.39,1,1,0,0,0,.25.29,1.75,1.75,0,0,0,.39.22l.53.22a6.64,6.64,0,0,1,.7.31,2.45,2.45,0,0,1,.53.36,1.41,1.41,0,0,1,.34.47,1.48,1.48,0,0,1,.12.63,1.49,1.49,0,0,1-.19.77,1.58,1.58,0,0,1-.52.54,2.22,2.22,0,0,1-.75.33,3.6,3.6,0,0,1-.88.1A3.33,3.33,0,0,1,138.87,55.54Z"/><path class="cls-12" d="M152,53h-4.18a2.25,2.25,0,0,0,.53,1.55,1.84,1.84,0,0,0,1.4.54,2.86,2.86,0,0,0,1.84-.67v.91a3.42,3.42,0,0,1-2.06.57,2.49,2.49,0,0,1-2-.82,3.89,3.89,0,0,1,.07-4.58,2.49,2.49,0,0,1,1.95-.88,2.22,2.22,0,0,1,1.8.76A3.23,3.23,0,0,1,152,52.5Zm-1-.81a2,2,0,0,0-.39-1.3,1.36,1.36,0,0,0-1.09-.46,1.53,1.53,0,0,0-1.14.48,2.24,2.24,0,0,0-.58,1.28Z"/><path class="cls-12" d="M156.1,55.7a1.74,1.74,0,0,1-.88.19c-1,0-1.56-.59-1.56-1.76V50.58h-1v-.82h1V48.3l1-.31v1.77h1.49v.82h-1.49V54a1.38,1.38,0,0,0,.2.86.82.82,0,0,0,.67.26,1,1,0,0,0,.62-.2Z"/><path class="cls-12" d="M161.48,52.58v3.18h-1v-8.4h2.28a3,3,0,0,1,2.06.65,2.37,2.37,0,0,1,.73,1.86,2.55,2.55,0,0,1-.81,2,3.08,3.08,0,0,1-2.2.76Zm0-4.33v3.44h1a2.24,2.24,0,0,0,1.53-.46,1.64,1.64,0,0,0,.53-1.32c0-1.11-.64-1.66-1.94-1.66Z"/><path class="cls-12" d="M170.74,55.76h-1v-.94h0a2.15,2.15,0,0,1-3.21.61,1.68,1.68,0,0,1-.5-1.26c0-1.12.66-1.78,2-2l1.78-.25c0-1-.41-1.53-1.22-1.53a2.88,2.88,0,0,0-1.94.74v-1a3.72,3.72,0,0,1,2-.56c1.39,0,2.09.75,2.09,2.24Zm-1-3-1.43.19a2.43,2.43,0,0,0-1,.34,1,1,0,0,0-.33.84.89.89,0,0,0,.31.71,1.15,1.15,0,0,0,.82.28,1.51,1.51,0,0,0,1.17-.5,1.83,1.83,0,0,0,.46-1.27Z"/><path class="cls-12" d="M176.65,55.76h-1v-.94h0a2,2,0,0,1-1.83,1.08,1.94,1.94,0,0,1-1.38-.47,1.64,1.64,0,0,1-.5-1.26c0-1.12.65-1.78,1.95-2L175.7,52c0-1-.41-1.53-1.22-1.53a2.85,2.85,0,0,0-1.93.74v-1a3.66,3.66,0,0,1,2-.56c1.39,0,2.09.75,2.09,2.24Zm-1-3-1.43.19a2.43,2.43,0,0,0-1,.34,1,1,0,0,0-.33.84.89.89,0,0,0,.31.71,1.17,1.17,0,0,0,.82.28,1.51,1.51,0,0,0,1.17-.5,1.79,1.79,0,0,0,.46-1.27Z"/><path class="cls-12" d="M178.06,55.42V54.26a2.42,2.42,0,0,0,.47.32,3.69,3.69,0,0,0,.58.23,3.39,3.39,0,0,0,.61.15,2.91,2.91,0,0,0,.57.06,2.24,2.24,0,0,0,1.34-.34,1.17,1.17,0,0,0,.44-1,1.13,1.13,0,0,0-.15-.59,1.6,1.6,0,0,0-.41-.46,3.79,3.79,0,0,0-.61-.4l-.77-.4q-.44-.22-.81-.45a3.41,3.41,0,0,1-.65-.51,2.06,2.06,0,0,1-.44-.62,1.91,1.91,0,0,1-.16-.82,1.93,1.93,0,0,1,.25-1,2.29,2.29,0,0,1,.65-.7,3,3,0,0,1,.93-.41,4.08,4.08,0,0,1,1-.13,4,4,0,0,1,1.79.3v1.1a3.24,3.24,0,0,0-1.89-.51,2.7,2.7,0,0,0-.63.07,1.58,1.58,0,0,0-.57.22,1.15,1.15,0,0,0-.4.39,1,1,0,0,0-.16.58,1.22,1.22,0,0,0,.12.56,1.28,1.28,0,0,0,.35.43,3.2,3.2,0,0,0,.56.37c.22.12.48.26.77.4s.58.31.84.47a3.55,3.55,0,0,1,.7.55,2.19,2.19,0,0,1,.48.66,1.84,1.84,0,0,1,.18.83,2.14,2.14,0,0,1-.24,1,2,2,0,0,1-.65.7,2.83,2.83,0,0,1-.94.39,5.13,5.13,0,0,1-1.12.12l-.49,0-.59-.09-.57-.16A1.93,1.93,0,0,1,178.06,55.42Z"/><path class="cls-12" d="M185.37,54.42l-.93,2.89h-.68l.68-2.89Z"/><path class="cls-12" d="M194.84,53h-4.18a2.25,2.25,0,0,0,.53,1.55,1.84,1.84,0,0,0,1.4.54,2.86,2.86,0,0,0,1.84-.67v.91a3.43,3.43,0,0,1-2.07.57,2.48,2.48,0,0,1-2-.82,3.35,3.35,0,0,1-.72-2.3,3.28,3.28,0,0,1,.79-2.28,2.49,2.49,0,0,1,1.95-.88,2.22,2.22,0,0,1,1.8.76,3.23,3.23,0,0,1,.63,2.12Zm-1-.81a2,2,0,0,0-.4-1.3,1.33,1.33,0,0,0-1.08-.46,1.53,1.53,0,0,0-1.14.48,2.24,2.24,0,0,0-.58,1.28Z"/><path class="cls-12" d="M198.91,55.7a1.78,1.78,0,0,1-.89.19c-1,0-1.55-.59-1.55-1.76V50.58h-1v-.82h1V48.3l.95-.31v1.77h1.49v.82h-1.49V54a1.38,1.38,0,0,0,.2.86.8.8,0,0,0,.67.26,1,1,0,0,0,.62-.2Z"/><path class="cls-12" d="M205.67,55.9a2.73,2.73,0,0,1-2.1-.84,3.1,3.1,0,0,1-.79-2.23,3.24,3.24,0,0,1,.82-2.36,2.89,2.89,0,0,1,2.2-.85,2.63,2.63,0,0,1,2.07.83,3.79,3.79,0,0,1-.05,4.59A2.83,2.83,0,0,1,205.67,55.9Zm.06-5.47a1.79,1.79,0,0,0-1.44.63,2.59,2.59,0,0,0-.54,1.74,2.46,2.46,0,0,0,.54,1.68,1.82,1.82,0,0,0,1.44.61,1.73,1.73,0,0,0,1.42-.6,3.28,3.28,0,0,0,0-3.45A1.71,1.71,0,0,0,205.73,50.43Z"/><path class="cls-12" d="M214.81,55.76h-.95v-.95h0A1.93,1.93,0,0,1,212,55.9c-1.42,0-2.12-.85-2.12-2.55V49.76h.94v3.43c0,1.27.48,1.9,1.44,1.9a1.43,1.43,0,0,0,1.14-.52,2,2,0,0,0,.45-1.35V49.76h.95Z"/><path class="cls-12" d="M219.35,55.7a1.72,1.72,0,0,1-.88.19c-1,0-1.56-.59-1.56-1.76V50.58h-1v-.82h1V48.3l1-.31v1.77h1.49v.82h-1.49V54a1.45,1.45,0,0,0,.2.86.83.83,0,0,0,.68.26,1,1,0,0,0,.61-.2Z"/><path class="cls-12" d="M221,48.24a.58.58,0,0,1-.43-.18.59.59,0,0,1-.18-.44.61.61,0,0,1,.18-.45A.58.58,0,0,1,221,47a.6.6,0,0,1,.44.18.62.62,0,0,1,.19.45.63.63,0,0,1-.19.44A.6.6,0,0,1,221,48.24Zm.46,7.52h-.95v-6h.95Z"/><path class="cls-12" d="M224.21,55.76h-1V46.88h1Z"/><path class="cls-12" d="M225.65,55.54v-1a2.78,2.78,0,0,0,1.71.58c.83,0,1.25-.28,1.25-.84a.76.76,0,0,0-.11-.41,1,1,0,0,0-.29-.29,1.94,1.94,0,0,0-.43-.24l-.53-.21c-.26-.11-.49-.21-.69-.32a2.47,2.47,0,0,1-.5-.36,1.52,1.52,0,0,1-.3-.46,1.85,1.85,0,0,1-.1-.61,1.48,1.48,0,0,1,.19-.74,1.78,1.78,0,0,1,.51-.55,2.86,2.86,0,0,1,.73-.33,3.34,3.34,0,0,1,.84-.11,3.4,3.4,0,0,1,1.38.27v1a2.67,2.67,0,0,0-1.51-.43,1.86,1.86,0,0,0-.48.06,1.2,1.2,0,0,0-.36.17.76.76,0,0,0-.24.27.67.67,0,0,0-.09.34.75.75,0,0,0,.09.39A.93.93,0,0,0,227,52a2.11,2.11,0,0,0,.4.22l.52.22a6,6,0,0,1,.71.31,2.45,2.45,0,0,1,.53.36,1.41,1.41,0,0,1,.34.47,1.48,1.48,0,0,1,.12.63,1.49,1.49,0,0,1-.19.77,1.68,1.68,0,0,1-.52.54,2.32,2.32,0,0,1-.75.33,3.6,3.6,0,0,1-.88.1A3.33,3.33,0,0,1,225.65,55.54Z"/><path class="cls-12" d="M35.27,70.26h-.94v-1h0a2.38,2.38,0,0,1-3.82.36,3.32,3.32,0,0,1-.67-2.2A3.62,3.62,0,0,1,30.55,65a2.42,2.42,0,0,1,2-.9,1.89,1.89,0,0,1,1.78,1h0V61.38h.94Zm-.94-2.71v-.89a1.73,1.73,0,0,0-.48-1.23,1.61,1.61,0,0,0-1.2-.5,1.63,1.63,0,0,0-1.37.64,2.87,2.87,0,0,0-.5,1.78A2.54,2.54,0,0,0,31.26,69a1.56,1.56,0,0,0,1.28.6A1.61,1.61,0,0,0,33.83,69,2.16,2.16,0,0,0,34.33,67.55Z"/><path class="cls-12" d="M38.25,61.72l-.81,2.61h-.69l.65-2.61Z"/><path class="cls-12" d="M43.92,70.26H43v-.94h0a2.15,2.15,0,0,1-3.21.61,1.68,1.68,0,0,1-.5-1.26c0-1.12.66-1.78,2-2L43,66.46c0-1-.41-1.53-1.22-1.53a2.88,2.88,0,0,0-1.94.74v-1a3.72,3.72,0,0,1,2-.56c1.39,0,2.09.75,2.09,2.24Zm-1-3-1.43.19a2.43,2.43,0,0,0-1,.34,1,1,0,0,0-.33.84.89.89,0,0,0,.31.71,1.15,1.15,0,0,0,.82.28,1.51,1.51,0,0,0,1.17-.5A1.83,1.83,0,0,0,43,67.82Z"/><path class="cls-12" d="M50.65,70.26H49.7v-1h0a2.19,2.19,0,0,1-2,1.16,2.23,2.23,0,0,1-1.79-.8,3.32,3.32,0,0,1-.67-2.2A3.62,3.62,0,0,1,45.92,65a2.44,2.44,0,0,1,2-.9,1.88,1.88,0,0,1,1.77,1h0V61.38h.95Zm-.95-2.71v-.89a1.73,1.73,0,0,0-.48-1.23,1.59,1.59,0,0,0-1.2-.5,1.63,1.63,0,0,0-1.37.64,2.87,2.87,0,0,0-.5,1.78A2.54,2.54,0,0,0,46.63,69a1.56,1.56,0,0,0,1.28.6A1.61,1.61,0,0,0,49.2,69,2.16,2.16,0,0,0,49.7,67.55Z"/><path class="cls-12" d="M60.87,70.26h-.95V66.82a2.67,2.67,0,0,0-.31-1.45,1.15,1.15,0,0,0-1-.44,1.27,1.27,0,0,0-1,.56,2.16,2.16,0,0,0-.43,1.35v3.42h-1V66.7q0-1.77-1.35-1.77a1.26,1.26,0,0,0-1,.53,2.2,2.2,0,0,0-.4,1.38v3.42h-.95v-6h.95v.95h0a2,2,0,0,1,1.84-1.09,1.68,1.68,0,0,1,1.06.34,1.73,1.73,0,0,1,.62.9,2.11,2.11,0,0,1,2-1.24c1.3,0,2,.81,2,2.44Z"/><path class="cls-12" d="M63,62.74a.6.6,0,0,1-.44-.18.59.59,0,0,1-.18-.44.61.61,0,0,1,.18-.45.63.63,0,0,1,.88,0,.61.61,0,0,1,.18.45.62.62,0,0,1-.18.44A.6.6,0,0,1,63,62.74Zm.46,7.52h-1v-6h1Z"/><path class="cls-12" d="M70.21,70.26h-.95V66.84c0-1.27-.45-1.91-1.37-1.91a1.48,1.48,0,0,0-1.18.54,2,2,0,0,0-.47,1.37v3.42h-.95v-6h.95v1h0a2.12,2.12,0,0,1,1.94-1.14,1.8,1.8,0,0,1,1.49.64,2.85,2.85,0,0,1,.51,1.83Z"/><path class="cls-12" d="M72.37,62.74a.58.58,0,0,1-.43-.18.59.59,0,0,1-.18-.44.61.61,0,0,1,.18-.45.58.58,0,0,1,.43-.18.6.6,0,0,1,.44.18.62.62,0,0,1,.19.45.63.63,0,0,1-.19.44A.6.6,0,0,1,72.37,62.74Zm.46,7.52h-1v-6h1Z"/><path class="cls-12" d="M74.28,70V69a2.73,2.73,0,0,0,1.7.58q1.26,0,1.26-.84a.76.76,0,0,0-.11-.41,1,1,0,0,0-.29-.29,2.19,2.19,0,0,0-.43-.24l-.53-.21c-.26-.11-.49-.21-.69-.32a2.22,2.22,0,0,1-.5-.36,1.52,1.52,0,0,1-.3-.46,1.63,1.63,0,0,1-.1-.61,1.38,1.38,0,0,1,.19-.74,1.78,1.78,0,0,1,.51-.55,2.57,2.57,0,0,1,.73-.33,3.34,3.34,0,0,1,.84-.11,3.4,3.4,0,0,1,1.38.27v1a2.67,2.67,0,0,0-1.51-.43A1.75,1.75,0,0,0,76,65a1.26,1.26,0,0,0-.37.17.83.83,0,0,0-.23.27.67.67,0,0,0-.09.34.75.75,0,0,0,.09.39.81.81,0,0,0,.24.29,2.36,2.36,0,0,0,.39.22l.53.22a6.85,6.85,0,0,1,.71.31,2.73,2.73,0,0,1,.53.36,1.41,1.41,0,0,1,.34.47,1.48,1.48,0,0,1,.12.63,1.5,1.5,0,0,1-.2.77,1.65,1.65,0,0,1-.51.54,2.32,2.32,0,0,1-.75.33,3.68,3.68,0,0,1-.89.1A3.29,3.29,0,0,1,74.28,70Z"/><path class="cls-12" d="M82.3,70.2a1.78,1.78,0,0,1-.89.19c-1,0-1.56-.59-1.56-1.76V65.08h-1v-.82h1V62.8l1-.31v1.77h1.5v.82H80.8v3.38a1.37,1.37,0,0,0,.21.86.8.8,0,0,0,.67.26,1,1,0,0,0,.62-.2Z"/><path class="cls-12" d="M86.54,65.23a1.16,1.16,0,0,0-.72-.19,1.21,1.21,0,0,0-1,.58,2.72,2.72,0,0,0-.4,1.58v3.06h-1v-6h1V65.5h0a2.08,2.08,0,0,1,.62-1,1.38,1.38,0,0,1,.93-.35,1.44,1.44,0,0,1,.57.08Z"/><path class="cls-12" d="M91.69,70.26h-1v-.94h0a2.15,2.15,0,0,1-3.21.61,1.68,1.68,0,0,1-.5-1.26c0-1.12.65-1.78,2-2l1.77-.25c0-1-.41-1.53-1.22-1.53a2.85,2.85,0,0,0-1.93.74v-1a3.66,3.66,0,0,1,2-.56c1.4,0,2.09.75,2.09,2.24Zm-1-3-1.43.19a2.32,2.32,0,0,0-1,.34.93.93,0,0,0-.34.84.89.89,0,0,0,.31.71,1.18,1.18,0,0,0,.83.28,1.47,1.47,0,0,0,1.16-.5,1.79,1.79,0,0,0,.46-1.27Z"/><path class="cls-12" d="M96.11,70.2a1.74,1.74,0,0,1-.88.19c-1,0-1.56-.59-1.56-1.76V65.08h-1v-.82h1V62.8l1-.31v1.77h1.49v.82H94.62v3.38a1.45,1.45,0,0,0,.2.86.82.82,0,0,0,.67.26,1,1,0,0,0,.62-.2Z"/><path class="cls-12" d="M97.75,62.74a.6.6,0,0,1-.44-.18.59.59,0,0,1-.18-.44.61.61,0,0,1,.18-.45.63.63,0,0,1,.88,0,.61.61,0,0,1,.18.45.62.62,0,0,1-.18.44A.6.6,0,0,1,97.75,62.74Zm.46,7.52h-.95v-6h.95Z"/><path class="cls-12" d="M102.49,70.4a2.73,2.73,0,0,1-2.1-.84,3.14,3.14,0,0,1-.78-2.23,3.28,3.28,0,0,1,.81-2.36,2.92,2.92,0,0,1,2.21-.85,2.66,2.66,0,0,1,2.07.83,3.32,3.32,0,0,1,.74,2.29,3.29,3.29,0,0,1-.8,2.3A2.8,2.8,0,0,1,102.49,70.4Zm.07-5.47a1.81,1.81,0,0,0-1.45.63,2.64,2.64,0,0,0-.53,1.74,2.46,2.46,0,0,0,.54,1.68,1.82,1.82,0,0,0,1.44.61A1.71,1.71,0,0,0,104,69a3.23,3.23,0,0,0,0-3.45A1.69,1.69,0,0,0,102.56,64.93Z"/><path class="cls-12" d="M111.76,70.26h-1V66.84c0-1.27-.46-1.91-1.38-1.91a1.51,1.51,0,0,0-1.18.54,2,2,0,0,0-.46,1.37v3.42h-1v-6h1v1h0a2.14,2.14,0,0,1,2-1.14,1.77,1.77,0,0,1,1.48.64,2.79,2.79,0,0,1,.52,1.83Z"/><path class="cls-12" d="M121.62,70.26h-1v-1h0a2.19,2.19,0,0,1-2,1.16,2.23,2.23,0,0,1-1.79-.8,3.38,3.38,0,0,1-.67-2.2,3.62,3.62,0,0,1,.74-2.38,2.45,2.45,0,0,1,2-.9,1.91,1.91,0,0,1,1.78,1h0V61.38h1Zm-1-2.71v-.89a1.73,1.73,0,0,0-.48-1.23,1.58,1.58,0,0,0-1.2-.5,1.64,1.64,0,0,0-1.37.64,2.87,2.87,0,0,0-.49,1.78A2.6,2.6,0,0,0,117.6,69a1.57,1.57,0,0,0,1.29.6,1.6,1.6,0,0,0,1.28-.58A2.16,2.16,0,0,0,120.67,67.55Z"/><path class="cls-12" d="M128.18,67.5H124a2.3,2.3,0,0,0,.53,1.55,1.84,1.84,0,0,0,1.4.54,2.86,2.86,0,0,0,1.84-.67v.91a3.42,3.42,0,0,1-2.06.57,2.49,2.49,0,0,1-2-.82A3.89,3.89,0,0,1,123.8,65a2.49,2.49,0,0,1,2-.88,2.22,2.22,0,0,1,1.8.76,3.23,3.23,0,0,1,.63,2.12Zm-1-.81a2,2,0,0,0-.39-1.3,1.35,1.35,0,0,0-1.09-.46,1.53,1.53,0,0,0-1.14.48,2.24,2.24,0,0,0-.58,1.28Z"/><path class="cls-12" d="M133.58,70.26h-1V61.38h1Z"/><path class="cls-12" d="M139.63,70.26h-.95v-.94h0a2.15,2.15,0,0,1-3.21.61,1.68,1.68,0,0,1-.5-1.26c0-1.12.65-1.78,2-2l1.78-.25c0-1-.41-1.53-1.22-1.53a2.88,2.88,0,0,0-1.94.74v-1a3.69,3.69,0,0,1,2-.56c1.39,0,2.09.75,2.09,2.24Zm-.95-3-1.43.19a2.37,2.37,0,0,0-1,.34,1,1,0,0,0-.33.84.89.89,0,0,0,.31.71,1.15,1.15,0,0,0,.82.28,1.51,1.51,0,0,0,1.17-.5,1.83,1.83,0,0,0,.46-1.27Z"/><path class="cls-12" d="M145.4,69.39h0V73h-1V64.26h1v1.06h0a2.23,2.23,0,0,1,2-1.2,2.13,2.13,0,0,1,1.78.81,3.32,3.32,0,0,1,.65,2.15,3.73,3.73,0,0,1-.73,2.42,2.4,2.4,0,0,1-2,.9A2,2,0,0,1,145.4,69.39Zm0-2.42v.84a1.77,1.77,0,0,0,.48,1.26,1.56,1.56,0,0,0,1.21.52,1.59,1.59,0,0,0,1.36-.67,3.11,3.11,0,0,0,.48-1.85,2.46,2.46,0,0,0-.45-1.57,1.51,1.51,0,0,0-1.24-.57,1.66,1.66,0,0,0-1.33.58A2.15,2.15,0,0,0,145.37,67Z"/><path class="cls-12" d="M152.22,70.26h-.95V61.38h.95Z"/><path class="cls-12" d="M158.27,70.26h-1v-.94h0a2,2,0,0,1-1.83,1.08,1.94,1.94,0,0,1-1.38-.47,1.64,1.64,0,0,1-.5-1.26c0-1.12.65-1.78,1.95-2l1.78-.25c0-1-.41-1.53-1.22-1.53a2.85,2.85,0,0,0-1.93.74v-1a3.66,3.66,0,0,1,2-.56c1.39,0,2.09.75,2.09,2.24Zm-1-3-1.43.19a2.32,2.32,0,0,0-1,.34.93.93,0,0,0-.34.84.89.89,0,0,0,.31.71,1.17,1.17,0,0,0,.82.28,1.51,1.51,0,0,0,1.17-.5,1.79,1.79,0,0,0,.46-1.27Z"/><path class="cls-12" d="M162.69,70.2a1.76,1.76,0,0,1-.89.19c-1,0-1.55-.59-1.55-1.76V65.08h-1v-.82h1V62.8l.95-.31v1.77h1.49v.82H161.2v3.38a1.38,1.38,0,0,0,.2.86.8.8,0,0,0,.67.26,1,1,0,0,0,.62-.2Z"/><path class="cls-12" d="M168.6,67.5h-4.18a2.25,2.25,0,0,0,.53,1.55,1.84,1.84,0,0,0,1.4.54,2.86,2.86,0,0,0,1.84-.67v.91a3.43,3.43,0,0,1-2.07.57,2.48,2.48,0,0,1-2-.82,3.35,3.35,0,0,1-.72-2.3,3.28,3.28,0,0,1,.79-2.28,2.49,2.49,0,0,1,1.95-.88,2.22,2.22,0,0,1,1.8.76A3.23,3.23,0,0,1,168.6,67Zm-1-.81a2,2,0,0,0-.4-1.3,1.33,1.33,0,0,0-1.08-.46,1.53,1.53,0,0,0-1.14.48,2.18,2.18,0,0,0-.58,1.28Z"/><path class="cls-12" d="M172.85,62.22a1.34,1.34,0,0,0-.63-.16c-.67,0-1,.43-1,1.27v.93h1.39v.82h-1.39v5.18h-.94V65.08h-1v-.82h1v-1a2,2,0,0,1,.54-1.49,1.76,1.76,0,0,1,1.34-.55,1.86,1.86,0,0,1,.69.1Z"/><path class="cls-12" d="M176,70.4a2.73,2.73,0,0,1-2.1-.84,3.14,3.14,0,0,1-.78-2.23,3.28,3.28,0,0,1,.81-2.36,2.92,2.92,0,0,1,2.21-.85,2.66,2.66,0,0,1,2.07.83,3.32,3.32,0,0,1,.74,2.29,3.29,3.29,0,0,1-.8,2.3A2.82,2.82,0,0,1,176,70.4Zm.07-5.47a1.81,1.81,0,0,0-1.45.63,2.64,2.64,0,0,0-.53,1.74,2.46,2.46,0,0,0,.54,1.68,1.82,1.82,0,0,0,1.44.61,1.72,1.72,0,0,0,1.41-.6,3.23,3.23,0,0,0,0-3.45A1.7,1.7,0,0,0,176.06,64.93Z"/><path class="cls-12" d="M183.43,65.23a1.16,1.16,0,0,0-.72-.19,1.2,1.2,0,0,0-1,.58,2.64,2.64,0,0,0-.41,1.58v3.06h-.95v-6h.95V65.5h0a2.16,2.16,0,0,1,.62-1,1.38,1.38,0,0,1,.93-.35,1.44,1.44,0,0,1,.57.08Z"/><path class="cls-12" d="M192.76,70.26h-.95V66.82a2.58,2.58,0,0,0-.31-1.45,1.15,1.15,0,0,0-1-.44,1.27,1.27,0,0,0-1,.56,2.22,2.22,0,0,0-.43,1.35v3.42h-1V66.7c0-1.18-.45-1.77-1.34-1.77a1.25,1.25,0,0,0-1,.53,2.2,2.2,0,0,0-.41,1.38v3.42h-.95v-6h.95v.95h0a2,2,0,0,1,1.84-1.09,1.68,1.68,0,0,1,1.06.34,1.73,1.73,0,0,1,.62.9,2.11,2.11,0,0,1,2-1.24c1.3,0,2,.81,2,2.44Z"/><path class="cls-12" d="M199.2,67.5H195a2.35,2.35,0,0,0,.53,1.55,1.85,1.85,0,0,0,1.41.54,2.88,2.88,0,0,0,1.84-.67v.91a3.43,3.43,0,0,1-2.07.57,2.45,2.45,0,0,1-2-.82,3.35,3.35,0,0,1-.72-2.3,3.32,3.32,0,0,1,.78-2.28,2.5,2.5,0,0,1,1.95-.88,2.2,2.2,0,0,1,1.8.76A3.18,3.18,0,0,1,199.2,67Zm-1-.81a2,2,0,0,0-.39-1.3,1.34,1.34,0,0,0-1.09-.46,1.54,1.54,0,0,0-1.14.48,2.3,2.3,0,0,0-.58,1.28Z"/><path class="cls-12" d="M207.68,70a3.09,3.09,0,0,1-1.62.41,2.68,2.68,0,0,1-2-.83,3.06,3.06,0,0,1-.78-2.17,3.34,3.34,0,0,1,.84-2.38,2.91,2.91,0,0,1,2.24-.9,3.1,3.1,0,0,1,1.37.29v1a2.34,2.34,0,0,0-1.41-.47,1.91,1.91,0,0,0-1.49.66,2.5,2.5,0,0,0-.58,1.73,2.36,2.36,0,0,0,.55,1.66,1.85,1.85,0,0,0,1.46.61,2.33,2.33,0,0,0,1.46-.52Z"/><path class="cls-12" d="M210,70.26H209V61.38H210Z"/><path class="cls-12" d="M214.23,70.4a2.73,2.73,0,0,1-2.1-.84,3.14,3.14,0,0,1-.78-2.23,3.28,3.28,0,0,1,.81-2.36,2.92,2.92,0,0,1,2.21-.85,2.66,2.66,0,0,1,2.07.83,3.32,3.32,0,0,1,.74,2.29,3.29,3.29,0,0,1-.8,2.3A2.82,2.82,0,0,1,214.23,70.4Zm.07-5.47a1.81,1.81,0,0,0-1.45.63,2.64,2.64,0,0,0-.53,1.74,2.46,2.46,0,0,0,.54,1.68,1.82,1.82,0,0,0,1.44.61,1.72,1.72,0,0,0,1.41-.6,3.23,3.23,0,0,0,0-3.45A1.7,1.7,0,0,0,214.3,64.93Z"/><path class="cls-12" d="M223.37,70.26h-1v-1h0a1.93,1.93,0,0,1-1.83,1.09c-1.41,0-2.12-.85-2.12-2.55V64.26h1v3.43c0,1.27.48,1.9,1.43,1.9a1.42,1.42,0,0,0,1.14-.52,2,2,0,0,0,.45-1.35V64.26h1Z"/><path class="cls-12" d="M230.23,70.26h-.95v-1h0a2.19,2.19,0,0,1-2,1.16,2.23,2.23,0,0,1-1.79-.8,3.38,3.38,0,0,1-.67-2.2,3.57,3.57,0,0,1,.75-2.38,2.42,2.42,0,0,1,2-.9,1.9,1.9,0,0,1,1.78,1h0V61.38h.95Zm-.95-2.71v-.89a1.73,1.73,0,0,0-.48-1.23,1.58,1.58,0,0,0-1.2-.5,1.61,1.61,0,0,0-1.36.64,2.81,2.81,0,0,0-.5,1.78,2.6,2.6,0,0,0,.47,1.64,1.57,1.57,0,0,0,1.29.6,1.61,1.61,0,0,0,1.29-.58A2.2,2.2,0,0,0,229.28,67.55Z"/><path class="cls-12" d="M210.52,101.86h-1V96.22c0-.44,0-1,.08-1.63h0a6.37,6.37,0,0,1-.25.81l-2.84,6.46h-.48l-2.83-6.41a5.09,5.09,0,0,1-.24-.86h0c0,.33.05.88.05,1.64v5.63h-.94v-8.4h1.29l2.54,5.86a7.37,7.37,0,0,1,.39,1h0c.17-.46.3-.8.4-1l2.6-5.83h1.21Z"/><path class="cls-12" d="M213,94.33a.6.6,0,0,1-.44-.17.61.61,0,0,1-.18-.45.57.57,0,0,1,.18-.44.63.63,0,0,1,.88,0,.57.57,0,0,1,.18.44.59.59,0,0,1-.18.44A.6.6,0,0,1,213,94.33Zm.46,7.53h-.95v-6h.95Z"/><path class="cls-12" d="M214.85,101.64v-1a2.78,2.78,0,0,0,1.71.58c.83,0,1.25-.28,1.25-.84a.68.68,0,0,0-.11-.41,1.13,1.13,0,0,0-.28-.3,3.45,3.45,0,0,0-.43-.23l-.53-.21a5.71,5.71,0,0,1-.69-.32,2.22,2.22,0,0,1-.5-.36,1.22,1.22,0,0,1-.3-.46,1.66,1.66,0,0,1-.1-.61,1.44,1.44,0,0,1,.19-.75,1.63,1.63,0,0,1,.51-.54,2.16,2.16,0,0,1,.72-.33,2.94,2.94,0,0,1,.84-.11,3.33,3.33,0,0,1,1.38.27v1a2.64,2.64,0,0,0-1.5-.43,1.75,1.75,0,0,0-.48.06,1.15,1.15,0,0,0-.37.17.78.78,0,0,0-.24.27.74.74,0,0,0-.08.34.87.87,0,0,0,.08.39.83.83,0,0,0,.25.28,1.82,1.82,0,0,0,.39.23l.53.21a5.79,5.79,0,0,1,.7.32,2.42,2.42,0,0,1,.54.36,1.45,1.45,0,0,1,.34.47,1.64,1.64,0,0,1,.11.62,1.5,1.5,0,0,1-.19.78,1.67,1.67,0,0,1-.52.54,2.16,2.16,0,0,1-.74.32,3.74,3.74,0,0,1-.89.11A3.33,3.33,0,0,1,214.85,101.64Z"/><path class="cls-12" d="M224.89,99.1H220.7a2.3,2.3,0,0,0,.54,1.55,1.82,1.82,0,0,0,1.4.54,2.88,2.88,0,0,0,1.84-.67v.9a3.37,3.37,0,0,1-2.07.58,2.47,2.47,0,0,1-2-.82,3.35,3.35,0,0,1-.72-2.3,3.32,3.32,0,0,1,.78-2.28,2.52,2.52,0,0,1,1.95-.88,2.2,2.2,0,0,1,1.8.76,3.17,3.17,0,0,1,.64,2.11Zm-1-.82a2,2,0,0,0-.4-1.29,1.34,1.34,0,0,0-1.09-.46,1.56,1.56,0,0,0-1.14.48,2.31,2.31,0,0,0-.58,1.27Z"/><path class="cls-12" d="M234.1,99.1h-4.19a2.3,2.3,0,0,0,.54,1.55,1.81,1.81,0,0,0,1.4.54,2.88,2.88,0,0,0,1.84-.67v.9a3.37,3.37,0,0,1-2.07.58,2.47,2.47,0,0,1-2-.82,3.35,3.35,0,0,1-.72-2.3,3.32,3.32,0,0,1,.78-2.28,2.5,2.5,0,0,1,1.95-.88,2.2,2.2,0,0,1,1.8.76,3.22,3.22,0,0,1,.64,2.11Zm-1-.82a2,2,0,0,0-.4-1.29,1.34,1.34,0,0,0-1.09-.46,1.56,1.56,0,0,0-1.14.48,2.31,2.31,0,0,0-.58,1.27Z"/><path class="cls-12" d="M240.33,101.86h-1V98.44c0-1.28-.45-1.91-1.37-1.91a1.48,1.48,0,0,0-1.18.54,2,2,0,0,0-.47,1.37v3.42h-1v-6h1v1h0a2.13,2.13,0,0,1,1.94-1.13,1.81,1.81,0,0,1,1.49.63,2.9,2.9,0,0,1,.51,1.84Z"/><path class="cls-12" d="M248.22,96.83a1.11,1.11,0,0,0-.71-.19,1.2,1.2,0,0,0-1,.58,2.7,2.7,0,0,0-.41,1.58v3.06h-1v-6h1v1.23h0a2.06,2.06,0,0,1,.61-1,1.4,1.4,0,0,1,.94-.36,1.62,1.62,0,0,1,.56.08Z"/><path class="cls-12" d="M253.9,99.1h-4.19a2.3,2.3,0,0,0,.54,1.55,1.82,1.82,0,0,0,1.4.54,2.86,2.86,0,0,0,1.84-.67v.9a3.37,3.37,0,0,1-2.07.58,2.47,2.47,0,0,1-2-.82,3.35,3.35,0,0,1-.72-2.3,3.32,3.32,0,0,1,.78-2.28,2.52,2.52,0,0,1,2-.88,2.2,2.2,0,0,1,1.8.76,3.17,3.17,0,0,1,.64,2.11Zm-1-.82a2,2,0,0,0-.4-1.29,1.33,1.33,0,0,0-1.08-.46,1.56,1.56,0,0,0-1.15.48,2.23,2.23,0,0,0-.57,1.27Zm-.15-5.48-1.52,1.92h-.74l1.3-1.92Z"/><path class="cls-12" d="M254.86,101.64v-1a2.73,2.73,0,0,0,1.7.58q1.26,0,1.26-.84a.76.76,0,0,0-.11-.41,1.17,1.17,0,0,0-.29-.3,2.86,2.86,0,0,0-.43-.23l-.53-.21c-.26-.11-.49-.21-.69-.32a2.22,2.22,0,0,1-.5-.36,1.52,1.52,0,0,1-.3-.46,1.66,1.66,0,0,1-.1-.61,1.44,1.44,0,0,1,.19-.75,1.87,1.87,0,0,1,.51-.54,2.12,2.12,0,0,1,.73-.33,2.94,2.94,0,0,1,.84-.11,3.4,3.4,0,0,1,1.38.27v1a2.67,2.67,0,0,0-1.51-.43,1.75,1.75,0,0,0-.48.06,1.26,1.26,0,0,0-.37.17.78.78,0,0,0-.24.27.74.74,0,0,0-.08.34.87.87,0,0,0,.08.39.83.83,0,0,0,.25.28,1.82,1.82,0,0,0,.39.23l.53.21a6.81,6.81,0,0,1,.71.32,2.35,2.35,0,0,1,.53.36,1.32,1.32,0,0,1,.34.47,1.46,1.46,0,0,1,.12.62,1.51,1.51,0,0,1-.2.78,1.75,1.75,0,0,1-.51.54,2.3,2.3,0,0,1-.75.32,3.68,3.68,0,0,1-.89.11A3.26,3.26,0,0,1,254.86,101.64Z"/><path class="cls-12" d="M264.89,99.1h-4.18a2.25,2.25,0,0,0,.53,1.55,1.84,1.84,0,0,0,1.4.54,2.86,2.86,0,0,0,1.84-.67v.9a3.37,3.37,0,0,1-2.07.58,2.48,2.48,0,0,1-2-.82,3.35,3.35,0,0,1-.72-2.3,3.28,3.28,0,0,1,.79-2.28,2.48,2.48,0,0,1,1.94-.88,2.2,2.2,0,0,1,1.8.76,3.17,3.17,0,0,1,.64,2.11Zm-1-.82a2,2,0,0,0-.4-1.29,1.33,1.33,0,0,0-1.08-.46,1.53,1.53,0,0,0-1.14.48,2.18,2.18,0,0,0-.58,1.27Z"/><path class="cls-12" d="M270.45,101.86h-.95v-.94h0a2,2,0,0,1-1.82,1.08,1.92,1.92,0,0,1-1.39-.48,1.65,1.65,0,0,1-.5-1.26c0-1.12.65-1.77,2-2l1.77-.25c0-1-.41-1.53-1.22-1.53a2.89,2.89,0,0,0-1.93.73v-1a3.66,3.66,0,0,1,2-.56c1.39,0,2.09.74,2.09,2.24Zm-.95-3-1.43.2a2.33,2.33,0,0,0-1,.33,1,1,0,0,0-.34.84.9.9,0,0,0,.31.72,1.18,1.18,0,0,0,.83.28,1.51,1.51,0,0,0,1.16-.5,1.79,1.79,0,0,0,.46-1.27Z"/><path class="cls-12" d="M276.91,101.86h-1v-1h0a1.93,1.93,0,0,1-1.83,1.09c-1.41,0-2.12-.85-2.12-2.56V95.86h.95v3.43c0,1.27.48,1.9,1.43,1.9a1.44,1.44,0,0,0,1.15-.52,2,2,0,0,0,.44-1.35V95.86h1Z"/><path class="cls-12" d="M279.58,100.52l-.93,2.88H278l.67-2.88Z"/><path class="cls-12" d="M283.93,101.64v-1a2.78,2.78,0,0,0,1.71.58c.83,0,1.25-.28,1.25-.84a.76.76,0,0,0-.11-.41,1.17,1.17,0,0,0-.29-.3,2.44,2.44,0,0,0-.43-.23l-.52-.21a6.76,6.76,0,0,1-.7-.32,2.15,2.15,0,0,1-.49-.36,1.38,1.38,0,0,1-.31-.46,1.9,1.9,0,0,1-.1-.61,1.55,1.55,0,0,1,.19-.75,1.87,1.87,0,0,1,.51-.54,2.31,2.31,0,0,1,.73-.33,2.94,2.94,0,0,1,.84-.11,3.36,3.36,0,0,1,1.38.27v1a2.67,2.67,0,0,0-1.51-.43,1.86,1.86,0,0,0-.48.06,1.2,1.2,0,0,0-.36.17A.69.69,0,0,0,285,97a.63.63,0,0,0-.08.34.75.75,0,0,0,.08.39.83.83,0,0,0,.25.28,1.61,1.61,0,0,0,.39.23l.53.21a6.6,6.6,0,0,1,.7.32,2.42,2.42,0,0,1,.54.36,1.43,1.43,0,0,1,.33.47,1.46,1.46,0,0,1,.12.62,1.5,1.5,0,0,1-.19.78,1.67,1.67,0,0,1-.52.54,2.21,2.21,0,0,1-.75.32,3.6,3.6,0,0,1-.88.11A3.33,3.33,0,0,1,283.93,101.64Z"/><path class="cls-12" d="M292,101.8a1.85,1.85,0,0,1-.88.19c-1,0-1.56-.59-1.56-1.76V96.68h-1v-.82h1V94.39l.95-.31v1.78H292v.82h-1.49v3.38a1.45,1.45,0,0,0,.2.86.82.82,0,0,0,.67.26,1,1,0,0,0,.62-.2Z"/><path class="cls-12" d="M295.58,102a2.73,2.73,0,0,1-2.1-.84,3.16,3.16,0,0,1-.78-2.23,3.27,3.27,0,0,1,.81-2.36,2.92,2.92,0,0,1,2.21-.85,2.65,2.65,0,0,1,2.07.82,3.34,3.34,0,0,1,.74,2.29,3.25,3.25,0,0,1-.8,2.3A2.79,2.79,0,0,1,295.58,102Zm.07-5.47a1.81,1.81,0,0,0-1.45.63,2.63,2.63,0,0,0-.53,1.73,2.5,2.5,0,0,0,.54,1.69,1.82,1.82,0,0,0,1.44.61,1.72,1.72,0,0,0,1.41-.6,3.23,3.23,0,0,0,0-3.45A1.7,1.7,0,0,0,295.65,96.53Z"/><path class="cls-12" d="M304,101.58a3.05,3.05,0,0,1-1.62.42,2.66,2.66,0,0,1-2.05-.84,3,3,0,0,1-.78-2.16,3.34,3.34,0,0,1,.84-2.38,2.92,2.92,0,0,1,2.24-.9A3.18,3.18,0,0,1,304,96v1a2.4,2.4,0,0,0-1.41-.46,1.88,1.88,0,0,0-1.49.66,2.48,2.48,0,0,0-.58,1.73,2.42,2.42,0,0,0,.54,1.66,1.88,1.88,0,0,0,1.47.61,2.35,2.35,0,0,0,1.46-.52Z"/><path class="cls-12" d="M310.21,101.86h-1.34L306.26,99h0v2.88h-.94V93h.94v5.63h0l2.49-2.75H310l-2.75,2.89Z"/><path class="cls-12" d="M315.3,101.86h-.95v-.94h0a2,2,0,0,1-1.82,1.08,1.92,1.92,0,0,1-1.39-.48,1.65,1.65,0,0,1-.5-1.26c0-1.12.65-1.77,2-2l1.77-.25c0-1-.4-1.53-1.22-1.53a2.89,2.89,0,0,0-1.93.73v-1a3.66,3.66,0,0,1,2-.56c1.4,0,2.09.74,2.09,2.24Zm-.95-3-1.43.2a2.33,2.33,0,0,0-1,.33,1,1,0,0,0-.34.84.93.93,0,0,0,.31.72,1.18,1.18,0,0,0,.83.28,1.51,1.51,0,0,0,1.16-.5,1.79,1.79,0,0,0,.46-1.27Z"/><path class="cls-12" d="M322,101.38q0,3.3-3.12,3.3a4.19,4.19,0,0,1-1.93-.42v-1a4,4,0,0,0,1.91.56c1.46,0,2.19-.78,2.19-2.35v-.66h0a2.38,2.38,0,0,1-3.82.35,3.22,3.22,0,0,1-.67-2.15,3.78,3.78,0,0,1,.72-2.43,2.43,2.43,0,0,1,2-.9,1.93,1.93,0,0,1,1.78,1h0v-.83H322Zm-.95-2.23v-.89A1.71,1.71,0,0,0,320.6,97a1.54,1.54,0,0,0-1.18-.51,1.64,1.64,0,0,0-1.38.64,3,3,0,0,0-.5,1.82,2.48,2.48,0,0,0,.48,1.6,1.54,1.54,0,0,0,1.26.6,1.65,1.65,0,0,0,1.3-.57A2.15,2.15,0,0,0,321.08,99.15Z"/><path class="cls-12" d="M328.6,99.1h-4.19a2.3,2.3,0,0,0,.54,1.55,1.82,1.82,0,0,0,1.4.54,2.88,2.88,0,0,0,1.84-.67v.9a3.37,3.37,0,0,1-2.07.58,2.47,2.47,0,0,1-2-.82,3.35,3.35,0,0,1-.72-2.3,3.32,3.32,0,0,1,.78-2.28,2.52,2.52,0,0,1,2-.88,2.2,2.2,0,0,1,1.8.76,3.17,3.17,0,0,1,.64,2.11Zm-1-.82a2,2,0,0,0-.4-1.29,1.34,1.34,0,0,0-1.09-.46A1.56,1.56,0,0,0,325,97a2.31,2.31,0,0,0-.58,1.27Z"/><path class="cls-12" d="M207.5,113.4h-4.18a2.2,2.2,0,0,0,.53,1.54,1.81,1.81,0,0,0,1.4.55,2.86,2.86,0,0,0,1.84-.67v.9a3.37,3.37,0,0,1-2.07.58,2.48,2.48,0,0,1-2-.82,3.35,3.35,0,0,1-.72-2.3,3.28,3.28,0,0,1,.79-2.28,2.49,2.49,0,0,1,1.95-.88,2.22,2.22,0,0,1,1.8.76,3.22,3.22,0,0,1,.63,2.11Zm-1-.82a2,2,0,0,0-.4-1.29,1.33,1.33,0,0,0-1.08-.46,1.53,1.53,0,0,0-1.14.48,2.18,2.18,0,0,0-.58,1.27Z"/><path class="cls-12" d="M211.57,116.1a1.9,1.9,0,0,1-.89.19c-1,0-1.55-.59-1.55-1.76V111h-1v-.82h1v-1.47l1-.31v1.78h1.49V111h-1.49v3.38a1.38,1.38,0,0,0,.2.86.8.8,0,0,0,.67.26,1,1,0,0,0,.62-.2Z"/><path class="cls-12" d="M219.89,115.88a3.05,3.05,0,0,1-1.62.42,2.66,2.66,0,0,1-2.05-.84,3,3,0,0,1-.78-2.16,3.34,3.34,0,0,1,.84-2.38,2.92,2.92,0,0,1,2.24-.9,3,3,0,0,1,1.38.29v1a2.4,2.4,0,0,0-1.41-.46,1.9,1.9,0,0,0-1.49.65,2.53,2.53,0,0,0-.59,1.74,2.43,2.43,0,0,0,.55,1.66,1.87,1.87,0,0,0,1.47.61,2.35,2.35,0,0,0,1.46-.52Z"/><path class="cls-12" d="M225.45,116.16h-.95v-.94h0a2,2,0,0,1-1.82,1.08,1.94,1.94,0,0,1-1.39-.48,1.65,1.65,0,0,1-.5-1.26c0-1.12.66-1.77,2-2l1.78-.26c0-1-.41-1.52-1.22-1.52a2.91,2.91,0,0,0-1.94.73v-1a3.61,3.61,0,0,1,2-.56c1.39,0,2.09.74,2.09,2.24Zm-.95-3-1.43.2a2.25,2.25,0,0,0-1,.33,1,1,0,0,0-.33.84.9.9,0,0,0,.31.72,1.15,1.15,0,0,0,.82.28A1.54,1.54,0,0,0,224,115a1.85,1.85,0,0,0,.46-1.27Z"/><path class="cls-12" d="M228.07,116.16h-.95v-8.89h.95Z"/><path class="cls-12" d="M233.91,115.88a3.05,3.05,0,0,1-1.62.42,2.66,2.66,0,0,1-2-.84,3,3,0,0,1-.78-2.16,3.34,3.34,0,0,1,.84-2.38,2.92,2.92,0,0,1,2.24-.9,3,3,0,0,1,1.38.29v1a2.4,2.4,0,0,0-1.41-.46,1.92,1.92,0,0,0-1.49.65,2.52,2.52,0,0,0-.58,1.74,2.42,2.42,0,0,0,.54,1.66,1.88,1.88,0,0,0,1.47.61,2.35,2.35,0,0,0,1.46-.52Z"/><path class="cls-12" d="M240,116.16h-1v-1h0a2,2,0,0,1-1.83,1.09c-1.42,0-2.12-.85-2.12-2.56v-3.58H236v3.43c0,1.27.48,1.9,1.44,1.9a1.43,1.43,0,0,0,1.14-.52,2,2,0,0,0,.45-1.36v-3.45h1Z"/><path class="cls-12" d="M242.76,116.16h-.94v-8.89h.94Z"/><path class="cls-12" d="M252.62,116.16h-1V112.7c0-1.25-.46-1.87-1.38-1.87a1.51,1.51,0,0,0-1.17.54,2,2,0,0,0-.47,1.39v3.4h-1v-8.89h1v3.88h0a2.15,2.15,0,0,1,1.94-1.13c1.34,0,2,.81,2,2.44Z"/><path class="cls-12" d="M259,110.16l-2.72,7c-.49,1.24-1.17,1.86-2,1.86a2.21,2.21,0,0,1-.62-.07V118a1.73,1.73,0,0,0,.56.11,1.17,1.17,0,0,0,1.08-.87l.47-1.13-2.31-6h1.05l1.6,4.61c0,.06.06.22.12.46h0c0-.09.06-.24.11-.44l1.69-4.63Z"/><path class="cls-12" d="M260.88,115.29h0v3.63h-1v-8.76h1v1h0a2.24,2.24,0,0,1,2.05-1.19,2.15,2.15,0,0,1,1.78.8,3.37,3.37,0,0,1,.65,2.16,3.69,3.69,0,0,1-.73,2.41,2.38,2.38,0,0,1-2,.91A2,2,0,0,1,260.88,115.29Zm0-2.42v.84a1.79,1.79,0,0,0,.48,1.26,1.56,1.56,0,0,0,1.21.52,1.59,1.59,0,0,0,1.36-.67,3.12,3.12,0,0,0,.48-1.86,2.48,2.48,0,0,0-.45-1.57,1.54,1.54,0,0,0-1.24-.56,1.66,1.66,0,0,0-1.33.58A2.13,2.13,0,0,0,260.85,112.87Z"/><path class="cls-12" d="M271.52,113.4h-4.19a2.26,2.26,0,0,0,.54,1.54,1.79,1.79,0,0,0,1.4.55,2.88,2.88,0,0,0,1.84-.67v.9a3.37,3.37,0,0,1-2.07.58,2.47,2.47,0,0,1-2-.82,3.35,3.35,0,0,1-.72-2.3,3.32,3.32,0,0,1,.78-2.28,2.52,2.52,0,0,1,1.95-.88,2.2,2.2,0,0,1,1.8.76,3.17,3.17,0,0,1,.64,2.11Zm-1-.82a2,2,0,0,0-.4-1.29,1.34,1.34,0,0,0-1.09-.46,1.56,1.56,0,0,0-1.14.48,2.23,2.23,0,0,0-.57,1.27Z"/><path class="cls-12" d="M275.93,111.13a1.16,1.16,0,0,0-.72-.19,1.2,1.2,0,0,0-1,.58,2.7,2.7,0,0,0-.4,1.58v3.06h-1v-6h1v1.23h0a2,2,0,0,1,.62-1,1.4,1.4,0,0,1,.93-.36,1.69,1.69,0,0,1,.57.08Z"/><path class="cls-12" d="M280.88,115.88a3.05,3.05,0,0,1-1.62.42,2.66,2.66,0,0,1-2.05-.84,3,3,0,0,1-.78-2.16,3.34,3.34,0,0,1,.84-2.38,2.92,2.92,0,0,1,2.24-.9,3,3,0,0,1,1.38.29v1a2.4,2.4,0,0,0-1.41-.46,1.92,1.92,0,0,0-1.49.65,2.52,2.52,0,0,0-.58,1.74,2.42,2.42,0,0,0,.54,1.66,1.88,1.88,0,0,0,1.47.61,2.35,2.35,0,0,0,1.46-.52Z"/><path class="cls-12" d="M284.67,116.3a2.76,2.76,0,0,1-2.1-.84,3.16,3.16,0,0,1-.78-2.23,3.23,3.23,0,0,1,.82-2.36,2.88,2.88,0,0,1,2.2-.85,2.64,2.64,0,0,1,2.07.82,3.29,3.29,0,0,1,.74,2.29,3.21,3.21,0,0,1-.8,2.3A2.77,2.77,0,0,1,284.67,116.3Zm.07-5.47a1.81,1.81,0,0,0-1.45.63,2.61,2.61,0,0,0-.53,1.73,2.46,2.46,0,0,0,.54,1.68,1.82,1.82,0,0,0,1.44.62,1.73,1.73,0,0,0,1.42-.6,2.67,2.67,0,0,0,.49-1.72,2.71,2.71,0,0,0-.49-1.74A1.73,1.73,0,0,0,284.74,110.83Z"/><path class="cls-12" d="M293.94,116.16H293v-3.42c0-1.28-.46-1.91-1.37-1.91a1.48,1.48,0,0,0-1.18.54,2,2,0,0,0-.47,1.37v3.42h-1v-6h1v1h0a2.13,2.13,0,0,1,1.94-1.13,1.82,1.82,0,0,1,1.49.63,2.9,2.9,0,0,1,.51,1.84Z"/><path class="cls-12" d="M300.27,110.16l-2.36,6H297l-2.25-6h1l1.51,4.36a4.38,4.38,0,0,1,.21.83h0a3.7,3.7,0,0,1,.19-.81l1.57-4.38Z"/><path class="cls-12" d="M305.94,113.4h-4.19a2.25,2.25,0,0,0,.53,1.54,1.81,1.81,0,0,0,1.4.55,2.86,2.86,0,0,0,1.84-.67v.9a3.33,3.33,0,0,1-2.06.58,2.49,2.49,0,0,1-2-.82,3.4,3.4,0,0,1-.71-2.3,3.32,3.32,0,0,1,.78-2.28,2.49,2.49,0,0,1,1.95-.88,2.21,2.21,0,0,1,1.8.76,3.22,3.22,0,0,1,.64,2.11Zm-1-.82a2,2,0,0,0-.39-1.29,1.35,1.35,0,0,0-1.09-.46,1.53,1.53,0,0,0-1.14.48,2.31,2.31,0,0,0-.58,1.27Z"/><path class="cls-12" d="M310.34,111.13a1.11,1.11,0,0,0-.71-.19,1.2,1.2,0,0,0-1,.58,2.7,2.7,0,0,0-.41,1.58v3.06h-.95v-6h.95v1.23h0a2.15,2.15,0,0,1,.62-1,1.4,1.4,0,0,1,.94-.36,1.62,1.62,0,0,1,.56.08Z"/><path class="cls-12" d="M316.31,115.68q0,3.3-3.12,3.3a4.18,4.18,0,0,1-1.92-.42v-1a3.92,3.92,0,0,0,1.91.56c1.46,0,2.19-.78,2.19-2.35v-.66h0a2.21,2.21,0,0,1-2,1.15,2.23,2.23,0,0,1-1.78-.8,3.27,3.27,0,0,1-.67-2.15,3.73,3.73,0,0,1,.73-2.43,2.4,2.4,0,0,1,2-.9,1.91,1.91,0,0,1,1.77,1h0v-.83h.94Zm-.94-2.24v-.88a1.71,1.71,0,0,0-.48-1.22,1.57,1.57,0,0,0-1.19-.51,1.64,1.64,0,0,0-1.38.64,2.94,2.94,0,0,0-.5,1.82,2.5,2.5,0,0,0,.48,1.6,1.54,1.54,0,0,0,1.27.6,1.63,1.63,0,0,0,1.29-.57A2.16,2.16,0,0,0,315.37,113.44Z"/><path class="cls-12" d="M322.88,113.4H318.7a2.2,2.2,0,0,0,.53,1.54,1.81,1.81,0,0,0,1.4.55,2.86,2.86,0,0,0,1.84-.67v.9a3.37,3.37,0,0,1-2.07.58,2.48,2.48,0,0,1-2-.82,3.35,3.35,0,0,1-.72-2.3,3.28,3.28,0,0,1,.79-2.28,2.48,2.48,0,0,1,1.94-.88,2.23,2.23,0,0,1,1.81.76,3.22,3.22,0,0,1,.63,2.11Zm-1-.82a2,2,0,0,0-.4-1.29,1.33,1.33,0,0,0-1.08-.46,1.53,1.53,0,0,0-1.14.48,2.18,2.18,0,0,0-.58,1.27Zm-.15-5.48L320.24,109h-.73l1.29-1.92Z"/><path class="cls-12" d="M323.84,115.94v-1a2.78,2.78,0,0,0,1.71.58c.83,0,1.25-.28,1.25-.84a.76.76,0,0,0-.11-.41,1.17,1.17,0,0,0-.29-.3,2.44,2.44,0,0,0-.43-.23l-.53-.21c-.26-.11-.49-.21-.69-.32a2.16,2.16,0,0,1-.5-.37,1.31,1.31,0,0,1-.3-.46,1.57,1.57,0,0,1-.1-.6A1.55,1.55,0,0,1,324,111a1.87,1.87,0,0,1,.51-.54,2.21,2.21,0,0,1,.73-.33,2.94,2.94,0,0,1,.84-.11,3.4,3.4,0,0,1,1.38.27v1a2.67,2.67,0,0,0-1.51-.43,1.86,1.86,0,0,0-.48.06,1.4,1.4,0,0,0-.37.17.67.67,0,0,0-.23.27.64.64,0,0,0-.09.34.75.75,0,0,0,.09.39.8.8,0,0,0,.24.28,1.68,1.68,0,0,0,.4.23l.52.21a6,6,0,0,1,.71.32,1.9,1.9,0,0,1,.53.36,1.32,1.32,0,0,1,.34.47,1.46,1.46,0,0,1,.12.62,1.5,1.5,0,0,1-.19.78,1.78,1.78,0,0,1-.52.54,2.3,2.3,0,0,1-.75.32,3.66,3.66,0,0,1-.88.11A3.33,3.33,0,0,1,323.84,115.94Z"/><path class="cls-12" d="M32.19,98.64h-1V93c0-.44,0-1,.08-1.63h0a5.05,5.05,0,0,1-.25.81l-2.84,6.46h-.47l-2.83-6.41a4.93,4.93,0,0,1-.25-.86h0c0,.33,0,.88,0,1.64v5.63h-.93v-8.4H25l2.55,5.86a8.53,8.53,0,0,1,.38,1h0c.17-.46.3-.8.4-1L31,90.24h1.22Z"/><path class="cls-12" d="M34.61,91.11a.57.57,0,0,1-.43-.17.61.61,0,0,1-.18-.45.57.57,0,0,1,.18-.44.58.58,0,0,1,.43-.18.6.6,0,0,1,.44.18.58.58,0,0,1,.19.44.6.6,0,0,1-.19.44A.6.6,0,0,1,34.61,91.11Zm.46,7.53h-1v-6h1Z"/><path class="cls-12" d="M36.52,98.42v-1a2.74,2.74,0,0,0,1.71.58c.83,0,1.25-.28,1.25-.84a.76.76,0,0,0-.11-.41,1.17,1.17,0,0,0-.29-.3,2.86,2.86,0,0,0-.43-.23L38.12,96c-.26-.11-.49-.21-.69-.32a2.22,2.22,0,0,1-.5-.36,1.52,1.52,0,0,1-.3-.46,1.66,1.66,0,0,1-.1-.61,1.44,1.44,0,0,1,.19-.75,1.87,1.87,0,0,1,.51-.54,2.12,2.12,0,0,1,.73-.33,2.94,2.94,0,0,1,.84-.11,3.4,3.4,0,0,1,1.38.27v1a2.67,2.67,0,0,0-1.51-.43,1.75,1.75,0,0,0-.48.06,1.26,1.26,0,0,0-.37.17.67.67,0,0,0-.23.27.64.64,0,0,0-.09.34.75.75,0,0,0,.09.39.71.71,0,0,0,.24.28,1.68,1.68,0,0,0,.4.23l.52.21a6.81,6.81,0,0,1,.71.32,2.35,2.35,0,0,1,.53.36,1.32,1.32,0,0,1,.34.47,1.46,1.46,0,0,1,.12.62,1.51,1.51,0,0,1-.2.78,1.75,1.75,0,0,1-.51.54,2.3,2.3,0,0,1-.75.32,3.68,3.68,0,0,1-.89.11A3.29,3.29,0,0,1,36.52,98.42Z"/><path class="cls-12" d="M46.55,95.88H42.37a2.25,2.25,0,0,0,.53,1.55,1.84,1.84,0,0,0,1.4.54,2.86,2.86,0,0,0,1.84-.67v.9a3.37,3.37,0,0,1-2.07.58,2.48,2.48,0,0,1-2-.82,3.35,3.35,0,0,1-.72-2.3,3.28,3.28,0,0,1,.79-2.28,2.49,2.49,0,0,1,1.95-.88,2.22,2.22,0,0,1,1.8.76,3.22,3.22,0,0,1,.63,2.11Zm-1-.82a2,2,0,0,0-.4-1.29,1.33,1.33,0,0,0-1.08-.46,1.53,1.53,0,0,0-1.14.48,2.24,2.24,0,0,0-.58,1.27Z"/><path class="cls-12" d="M55.76,95.88H51.58a2.25,2.25,0,0,0,.53,1.55,1.84,1.84,0,0,0,1.4.54,2.86,2.86,0,0,0,1.84-.67v.9a3.37,3.37,0,0,1-2.07.58,2.48,2.48,0,0,1-2-.82,3.35,3.35,0,0,1-.72-2.3,3.28,3.28,0,0,1,.79-2.28,2.48,2.48,0,0,1,1.94-.88,2.2,2.2,0,0,1,1.8.76,3.17,3.17,0,0,1,.64,2.11Zm-1-.82a2,2,0,0,0-.4-1.29,1.33,1.33,0,0,0-1.08-.46,1.53,1.53,0,0,0-1.14.48,2.18,2.18,0,0,0-.58,1.27Z"/><path class="cls-12" d="M62,98.64h-1V95.22c0-1.28-.46-1.91-1.38-1.91a1.5,1.5,0,0,0-1.18.54A2,2,0,0,0,58,95.22v3.42h-1v-6h1v1h0a2.15,2.15,0,0,1,2-1.13,1.8,1.8,0,0,1,1.48.63A2.84,2.84,0,0,1,62,95Z"/><path class="cls-12" d="M69.89,93.61a1.16,1.16,0,0,0-.72-.19,1.21,1.21,0,0,0-1,.58,2.7,2.7,0,0,0-.4,1.58v3.06h-1v-6h1v1.23h0a2,2,0,0,1,.62-1,1.4,1.4,0,0,1,.93-.36,1.65,1.65,0,0,1,.57.08Z"/><path class="cls-12" d="M75.56,95.88H71.38a2.25,2.25,0,0,0,.53,1.55,1.84,1.84,0,0,0,1.4.54,2.86,2.86,0,0,0,1.84-.67v.9a3.35,3.35,0,0,1-2.06.58,2.49,2.49,0,0,1-2-.82,3.85,3.85,0,0,1,.07-4.58,2.49,2.49,0,0,1,1.95-.88,2.22,2.22,0,0,1,1.8.76,3.22,3.22,0,0,1,.63,2.11Zm-1-.82a2,2,0,0,0-.4-1.29,1.33,1.33,0,0,0-1.08-.46,1.53,1.53,0,0,0-1.14.48,2.24,2.24,0,0,0-.58,1.27Zm-.15-5.48L72.92,91.5h-.73l1.29-1.92Z"/><path class="cls-12" d="M76.52,98.42v-1a2.78,2.78,0,0,0,1.71.58c.83,0,1.25-.28,1.25-.84a.76.76,0,0,0-.11-.41,1.17,1.17,0,0,0-.29-.3,2.44,2.44,0,0,0-.43-.23L78.12,96c-.26-.11-.49-.21-.69-.32a2.47,2.47,0,0,1-.5-.36,1.52,1.52,0,0,1-.3-.46,1.9,1.9,0,0,1-.1-.61,1.55,1.55,0,0,1,.19-.75,1.87,1.87,0,0,1,.51-.54,2.31,2.31,0,0,1,.73-.33,2.94,2.94,0,0,1,.84-.11,3.4,3.4,0,0,1,1.38.27v1a2.67,2.67,0,0,0-1.51-.43,1.86,1.86,0,0,0-.48.06,1.2,1.2,0,0,0-.36.17.69.69,0,0,0-.24.27.64.64,0,0,0-.09.34.75.75,0,0,0,.09.39.92.92,0,0,0,.24.28,1.68,1.68,0,0,0,.4.23l.53.21a6.6,6.6,0,0,1,.7.32,2.14,2.14,0,0,1,.53.36,1.32,1.32,0,0,1,.34.47,1.46,1.46,0,0,1,.12.62,1.5,1.5,0,0,1-.19.78,1.67,1.67,0,0,1-.52.54,2.3,2.3,0,0,1-.75.32,3.6,3.6,0,0,1-.88.11A3.33,3.33,0,0,1,76.52,98.42Z"/><path class="cls-12" d="M86.56,95.88H82.37a2.3,2.3,0,0,0,.53,1.55,1.84,1.84,0,0,0,1.4.54,2.86,2.86,0,0,0,1.84-.67v.9a3.35,3.35,0,0,1-2.06.58,2.49,2.49,0,0,1-2-.82,3.4,3.4,0,0,1-.71-2.3,3.32,3.32,0,0,1,.78-2.28,2.49,2.49,0,0,1,2-.88,2.22,2.22,0,0,1,1.8.76,3.22,3.22,0,0,1,.64,2.11Zm-1-.82a2,2,0,0,0-.39-1.29,1.35,1.35,0,0,0-1.09-.46,1.53,1.53,0,0,0-1.14.48,2.31,2.31,0,0,0-.58,1.27Z"/><path class="cls-12" d="M92.12,98.64h-1V97.7h0a2,2,0,0,1-1.82,1.08,1.94,1.94,0,0,1-1.39-.48,1.65,1.65,0,0,1-.5-1.26c0-1.12.65-1.77,2-2l1.78-.25q0-1.53-1.23-1.53A2.91,2.91,0,0,0,88,94v-1a3.61,3.61,0,0,1,2-.56c1.39,0,2.09.74,2.09,2.24Zm-1-3-1.43.2a2.25,2.25,0,0,0-1,.33,1,1,0,0,0-.34.84.93.93,0,0,0,.31.72,1.19,1.19,0,0,0,.83.28,1.54,1.54,0,0,0,1.17-.5,1.83,1.83,0,0,0,.46-1.27Z"/><path class="cls-12" d="M98.58,98.64h-1v-1h0a2,2,0,0,1-1.83,1.09c-1.42,0-2.12-.85-2.12-2.56V92.64h.94v3.43c0,1.27.48,1.9,1.44,1.9a1.43,1.43,0,0,0,1.14-.52,2,2,0,0,0,.45-1.35V92.64h1Z"/><path class="cls-12" d="M101.24,97.3l-.92,2.88h-.68l.68-2.88Z"/><path class="cls-12" d="M17.56,112.92v-1a2.78,2.78,0,0,0,1.71.58c.83,0,1.25-.28,1.25-.84a.76.76,0,0,0-.11-.41,1.17,1.17,0,0,0-.29-.3,2.44,2.44,0,0,0-.43-.23l-.52-.21a6.76,6.76,0,0,1-.7-.32,2.15,2.15,0,0,1-.49-.36,1.38,1.38,0,0,1-.31-.46,1.9,1.9,0,0,1-.1-.61,1.55,1.55,0,0,1,.19-.75,1.87,1.87,0,0,1,.51-.54,2.31,2.31,0,0,1,.73-.33,2.94,2.94,0,0,1,.84-.11,3.36,3.36,0,0,1,1.38.27v1a2.66,2.66,0,0,0-1.5-.43,1.88,1.88,0,0,0-.49.06,1.2,1.2,0,0,0-.36.17.78.78,0,0,0-.24.27.63.63,0,0,0-.08.34.75.75,0,0,0,.08.39.83.83,0,0,0,.25.28,1.61,1.61,0,0,0,.39.23l.53.21a6.6,6.6,0,0,1,.7.32,2.42,2.42,0,0,1,.54.36,1.43,1.43,0,0,1,.33.47,1.46,1.46,0,0,1,.12.62,1.5,1.5,0,0,1-.19.78,1.67,1.67,0,0,1-.52.54,2.21,2.21,0,0,1-.75.32,3.6,3.6,0,0,1-.88.11A3.33,3.33,0,0,1,17.56,112.92Z"/><path class="cls-12" d="M25.58,113.08a1.85,1.85,0,0,1-.88.19c-1,0-1.56-.59-1.56-1.76V108h-1v-.82h1v-1.47l.95-.31v1.78h1.49V108H24.09v3.38a1.45,1.45,0,0,0,.2.86.82.82,0,0,0,.67.26,1,1,0,0,0,.62-.2Z"/><path class="cls-12" d="M29.21,113.28a2.73,2.73,0,0,1-2.1-.84,3.16,3.16,0,0,1-.78-2.23,3.27,3.27,0,0,1,.81-2.36,2.92,2.92,0,0,1,2.21-.85,2.65,2.65,0,0,1,2.07.82,3.34,3.34,0,0,1,.74,2.29,3.25,3.25,0,0,1-.8,2.3A2.79,2.79,0,0,1,29.21,113.28Zm.07-5.47a1.81,1.81,0,0,0-1.45.63,2.61,2.61,0,0,0-.53,1.73,2.46,2.46,0,0,0,.54,1.68,1.79,1.79,0,0,0,1.44.62,1.72,1.72,0,0,0,1.41-.6,3.23,3.23,0,0,0,0-3.45A1.7,1.7,0,0,0,29.28,107.81Z"/><path class="cls-12" d="M37.6,112.86a3.05,3.05,0,0,1-1.62.42,2.66,2.66,0,0,1-2-.84,3,3,0,0,1-.78-2.16A3.34,3.34,0,0,1,34,107.9a2.92,2.92,0,0,1,2.24-.9,3.18,3.18,0,0,1,1.38.29v1a2.4,2.4,0,0,0-1.41-.46,1.89,1.89,0,0,0-1.49.66,2.48,2.48,0,0,0-.58,1.73,2.42,2.42,0,0,0,.54,1.66,1.88,1.88,0,0,0,1.47.61A2.35,2.35,0,0,0,37.6,112Z"/><path class="cls-12" d="M43.84,113.14H42.5l-2.61-2.88h0v2.88h-.94v-8.88h.94v5.63h0l2.49-2.75h1.24L40.87,110Z"/><path class="cls-12" d="M48.93,113.14H48v-.94h0a2,2,0,0,1-1.82,1.08,1.92,1.92,0,0,1-1.39-.48,1.65,1.65,0,0,1-.5-1.26c0-1.12.65-1.77,2-2l1.77-.25c0-1-.4-1.53-1.22-1.53a2.89,2.89,0,0,0-1.93.73v-1a3.58,3.58,0,0,1,2-.56c1.4,0,2.09.74,2.09,2.24Zm-1-3-1.43.2a2.2,2.2,0,0,0-1,.33,1,1,0,0,0-.34.84.93.93,0,0,0,.31.72,1.18,1.18,0,0,0,.83.28,1.51,1.51,0,0,0,1.16-.5A1.79,1.79,0,0,0,48,110.7Z"/><path class="cls-12" d="M55.66,112.66q0,3.3-3.12,3.3a4.19,4.19,0,0,1-1.93-.42v-1a4,4,0,0,0,1.91.56c1.46,0,2.19-.78,2.19-2.35v-.66h0a2.38,2.38,0,0,1-3.82.35,3.22,3.22,0,0,1-.67-2.15,3.78,3.78,0,0,1,.72-2.43,2.43,2.43,0,0,1,2-.9,1.93,1.93,0,0,1,1.78,1h0v-.83h.95Zm-.95-2.23v-.89a1.71,1.71,0,0,0-.48-1.22,1.54,1.54,0,0,0-1.19-.51,1.63,1.63,0,0,0-1.37.64,2.9,2.9,0,0,0-.5,1.82,2.5,2.5,0,0,0,.48,1.6,1.54,1.54,0,0,0,1.26.6,1.65,1.65,0,0,0,1.3-.57A2.2,2.2,0,0,0,54.71,110.43Z"/><path class="cls-12" d="M62.23,110.38H58a2.3,2.3,0,0,0,.54,1.55,1.82,1.82,0,0,0,1.4.54,2.88,2.88,0,0,0,1.84-.67v.9a3.37,3.37,0,0,1-2.07.58,2.47,2.47,0,0,1-2-.82,3.35,3.35,0,0,1-.72-2.3,3.32,3.32,0,0,1,.78-2.28,2.52,2.52,0,0,1,1.95-.88,2.2,2.2,0,0,1,1.8.76,3.17,3.17,0,0,1,.64,2.11Zm-1-.82a2,2,0,0,0-.4-1.29,1.34,1.34,0,0,0-1.09-.46,1.56,1.56,0,0,0-1.14.48,2.23,2.23,0,0,0-.57,1.27Z"/><path class="cls-12" d="M71.44,110.38H67.25a2.3,2.3,0,0,0,.54,1.55,1.81,1.81,0,0,0,1.4.54A2.88,2.88,0,0,0,71,111.8v.9a3.37,3.37,0,0,1-2.07.58,2.45,2.45,0,0,1-2-.82,3.35,3.35,0,0,1-.72-2.3,3.32,3.32,0,0,1,.78-2.28,2.52,2.52,0,0,1,2-.88,2.2,2.2,0,0,1,1.8.76,3.17,3.17,0,0,1,.64,2.11Zm-1-.82a2,2,0,0,0-.4-1.29,1.34,1.34,0,0,0-1.09-.46,1.56,1.56,0,0,0-1.14.48,2.31,2.31,0,0,0-.58,1.27Z"/><path class="cls-12" d="M75.5,113.08a1.85,1.85,0,0,1-.88.19c-1,0-1.56-.59-1.56-1.76V108H72v-.82h1v-1.47l1-.31v1.78H75.5V108H74v3.38a1.45,1.45,0,0,0,.2.86.82.82,0,0,0,.67.26,1,1,0,0,0,.62-.2Z"/><path class="cls-12" d="M83.82,112.86a3,3,0,0,1-1.62.42,2.68,2.68,0,0,1-2-.84,3.05,3.05,0,0,1-.77-2.16,3.34,3.34,0,0,1,.84-2.38,2.91,2.91,0,0,1,2.24-.9,3.1,3.1,0,0,1,1.37.29v1a2.4,2.4,0,0,0-1.41-.46,1.91,1.91,0,0,0-1.49.66,2.48,2.48,0,0,0-.58,1.73,2.38,2.38,0,0,0,.55,1.66,1.85,1.85,0,0,0,1.46.61,2.33,2.33,0,0,0,1.46-.52Z"/><path class="cls-12" d="M89.38,113.14h-.95v-.94h0a2,2,0,0,1-1.82,1.08,1.92,1.92,0,0,1-1.39-.48,1.65,1.65,0,0,1-.5-1.26c0-1.12.65-1.77,2-2l1.77-.25c0-1-.41-1.53-1.22-1.53a2.89,2.89,0,0,0-1.93.73v-1a3.58,3.58,0,0,1,2-.56c1.4,0,2.09.74,2.09,2.24Zm-.95-3-1.43.2a2.2,2.2,0,0,0-1,.33,1,1,0,0,0-.34.84.9.9,0,0,0,.31.72,1.18,1.18,0,0,0,.83.28A1.51,1.51,0,0,0,88,112a1.79,1.79,0,0,0,.46-1.27Z"/><path class="cls-12" d="M92,113.14h-1v-8.88h1Z"/><path class="cls-12" d="M97.84,112.86a3,3,0,0,1-1.62.42,2.65,2.65,0,0,1-2-.84,3,3,0,0,1-.78-2.16,3.34,3.34,0,0,1,.84-2.38,2.91,2.91,0,0,1,2.24-.9,3.18,3.18,0,0,1,1.38.29v1a2.43,2.43,0,0,0-1.42-.46,1.91,1.91,0,0,0-1.49.66,2.48,2.48,0,0,0-.58,1.73,2.38,2.38,0,0,0,.55,1.66,1.85,1.85,0,0,0,1.47.61,2.33,2.33,0,0,0,1.45-.52Z"/><path class="cls-12" d="M104,113.14h-1v-1h0a1.93,1.93,0,0,1-1.83,1.09c-1.41,0-2.12-.85-2.12-2.56v-3.58h1v3.43c0,1.27.48,1.9,1.43,1.9a1.44,1.44,0,0,0,1.15-.52,2,2,0,0,0,.44-1.35v-3.46h1Z"/><path class="cls-12" d="M106.7,113.14h-1v-8.88h1Z"/><path class="cls-12" d="M34.39,127.64h-1v-1h0a2.37,2.37,0,0,1-3.82.35,3.29,3.29,0,0,1-.67-2.19,3.67,3.67,0,0,1,.74-2.39,2.44,2.44,0,0,1,2-.89,1.89,1.89,0,0,1,1.78,1h0v-3.71h1Zm-1-2.71V124a1.72,1.72,0,0,0-.47-1.23,1.57,1.57,0,0,0-1.2-.5,1.63,1.63,0,0,0-1.37.64,2.85,2.85,0,0,0-.5,1.78,2.56,2.56,0,0,0,.48,1.64,1.55,1.55,0,0,0,1.28.6,1.61,1.61,0,0,0,1.29-.58A2.17,2.17,0,0,0,33.44,124.93Z"/><path class="cls-12" d="M40.44,127.64h-.95v-.94h0a2,2,0,0,1-1.83,1.08,1.9,1.9,0,0,1-1.38-.48,1.61,1.61,0,0,1-.5-1.26q0-1.68,2-2l1.78-.25c0-1-.41-1.53-1.22-1.53a2.91,2.91,0,0,0-1.94.73v-1a3.63,3.63,0,0,1,2-.56c1.39,0,2.09.74,2.09,2.24Zm-.95-3-1.43.2a2.3,2.3,0,0,0-1,.33,1,1,0,0,0-.33.84.9.9,0,0,0,.31.72,1.15,1.15,0,0,0,.82.28,1.54,1.54,0,0,0,1.17-.5,1.79,1.79,0,0,0,.46-1.27Z"/><path class="cls-12" d="M47,127.64h-1v-3.42c0-1.28-.46-1.91-1.38-1.91a1.5,1.5,0,0,0-1.18.54,2,2,0,0,0-.46,1.37v3.42h-1v-6h1v1h0a2.15,2.15,0,0,1,2-1.13,1.8,1.8,0,0,1,1.48.63A2.84,2.84,0,0,1,47,124Z"/><path class="cls-12" d="M48.34,127.42v-1a2.78,2.78,0,0,0,1.71.58c.83,0,1.25-.28,1.25-.84a.76.76,0,0,0-.11-.41,1.17,1.17,0,0,0-.29-.3,2.44,2.44,0,0,0-.43-.23l-.53-.21c-.26-.11-.49-.21-.69-.32a2.47,2.47,0,0,1-.5-.36,1.52,1.52,0,0,1-.3-.46,1.9,1.9,0,0,1-.1-.61,1.55,1.55,0,0,1,.19-.75,1.87,1.87,0,0,1,.51-.54,2.21,2.21,0,0,1,.73-.33,2.94,2.94,0,0,1,.84-.11,3.4,3.4,0,0,1,1.38.27v1a2.67,2.67,0,0,0-1.51-.43,1.86,1.86,0,0,0-.48.06,1.2,1.2,0,0,0-.36.17.62.62,0,0,0-.24.27.64.64,0,0,0-.09.34.75.75,0,0,0,.09.39.8.8,0,0,0,.24.28,1.68,1.68,0,0,0,.4.23l.52.21a6,6,0,0,1,.71.32,2.14,2.14,0,0,1,.53.36,1.32,1.32,0,0,1,.34.47,1.46,1.46,0,0,1,.12.62,1.5,1.5,0,0,1-.19.78,1.78,1.78,0,0,1-.52.54,2.3,2.3,0,0,1-.75.32,3.66,3.66,0,0,1-.88.11A3.33,3.33,0,0,1,48.34,127.42Z"/><path class="cls-12" d="M57.69,127.64h-.95v-8.88h.95Z"/><path class="cls-12" d="M64.26,124.88H60.07a2.3,2.3,0,0,0,.53,1.55A1.84,1.84,0,0,0,62,127a2.86,2.86,0,0,0,1.84-.67v.9a3.35,3.35,0,0,1-2.06.58,2.49,2.49,0,0,1-2-.82,3.4,3.4,0,0,1-.71-2.3,3.32,3.32,0,0,1,.78-2.28,2.49,2.49,0,0,1,2-.88,2.22,2.22,0,0,1,1.8.76,3.22,3.22,0,0,1,.64,2.11Zm-1-.82a2,2,0,0,0-.39-1.29,1.35,1.35,0,0,0-1.09-.46,1.53,1.53,0,0,0-1.14.48,2.31,2.31,0,0,0-.58,1.27Z"/><path class="cls-12" d="M72.74,127.36a3,3,0,0,1-1.62.42,2.68,2.68,0,0,1-2.05-.84,3.05,3.05,0,0,1-.77-2.16,3.34,3.34,0,0,1,.84-2.38,2.89,2.89,0,0,1,2.24-.9,3.1,3.1,0,0,1,1.37.29v1a2.4,2.4,0,0,0-1.41-.46,1.89,1.89,0,0,0-1.49.66,2.48,2.48,0,0,0-.58,1.73,2.38,2.38,0,0,0,.55,1.66,1.85,1.85,0,0,0,1.46.61,2.33,2.33,0,0,0,1.46-.52Z"/><path class="cls-12" d="M75,127.64h-1v-8.88h1Z"/><path class="cls-12" d="M79.29,127.78a2.73,2.73,0,0,1-2.1-.84,3.16,3.16,0,0,1-.78-2.23,3.27,3.27,0,0,1,.81-2.36,2.92,2.92,0,0,1,2.21-.85,2.65,2.65,0,0,1,2.07.82,3.34,3.34,0,0,1,.74,2.29,3.25,3.25,0,0,1-.8,2.3A2.79,2.79,0,0,1,79.29,127.78Zm.07-5.47a1.81,1.81,0,0,0-1.45.63,2.61,2.61,0,0,0-.53,1.73,2.46,2.46,0,0,0,.54,1.68,1.78,1.78,0,0,0,1.44.62,1.72,1.72,0,0,0,1.41-.6,3.23,3.23,0,0,0,0-3.45A1.7,1.7,0,0,0,79.36,122.31Z"/><path class="cls-12" d="M88.43,127.64h-1v-1h0a2,2,0,0,1-1.83,1.09c-1.41,0-2.12-.85-2.12-2.56v-3.58h.94v3.43c0,1.27.48,1.9,1.44,1.9a1.43,1.43,0,0,0,1.14-.52,2,2,0,0,0,.45-1.35v-3.46h1Z"/><path class="cls-12" d="M95.29,127.64h-1v-1h0a2.18,2.18,0,0,1-2,1.16,2.2,2.2,0,0,1-1.79-.81,3.35,3.35,0,0,1-.67-2.19,3.67,3.67,0,0,1,.74-2.39,2.47,2.47,0,0,1,2-.89,1.88,1.88,0,0,1,1.77,1h0v-3.71h1Zm-1-2.71V124a1.73,1.73,0,0,0-.48-1.23,1.54,1.54,0,0,0-1.2-.5,1.64,1.64,0,0,0-1.37.64,2.85,2.85,0,0,0-.49,1.78,2.56,2.56,0,0,0,.47,1.64,1.56,1.56,0,0,0,1.28.6,1.61,1.61,0,0,0,1.29-.58A2.17,2.17,0,0,0,94.34,124.93Z"/><path class="cls-12" d="M163.65,189.12h-4.36v-8.4h1v7.51h3.38Z"/><path class="cls-12" d="M167.26,189.26a2.79,2.79,0,0,1-2.13-.84,3.12,3.12,0,0,1-.79-2.23,3.19,3.19,0,0,1,.83-2.36,3,3,0,0,1,2.23-.85,2.68,2.68,0,0,1,2.09.82,3.25,3.25,0,0,1,.76,2.29,3.21,3.21,0,0,1-.81,2.3A2.85,2.85,0,0,1,167.26,189.26Zm.07-5.47a1.84,1.84,0,0,0-1.47.63,2.56,2.56,0,0,0-.54,1.73,2.46,2.46,0,0,0,.55,1.68,1.85,1.85,0,0,0,1.46.62,1.75,1.75,0,0,0,1.43-.6,2.61,2.61,0,0,0,.5-1.72,2.65,2.65,0,0,0-.5-1.74A1.75,1.75,0,0,0,167.33,183.79Z"/><path class="cls-12" d="M175.82,188.84a3.14,3.14,0,0,1-1.65.42,2.72,2.72,0,0,1-2.07-.84,3,3,0,0,1-.79-2.16,3.35,3.35,0,0,1,.85-2.38,3,3,0,0,1,2.27-.9,3.13,3.13,0,0,1,1.4.29v1a2.48,2.48,0,0,0-1.43-.46,1.94,1.94,0,0,0-1.51.65,2.48,2.48,0,0,0-.59,1.74,2.38,2.38,0,0,0,.55,1.66,1.91,1.91,0,0,0,1.49.61,2.43,2.43,0,0,0,1.48-.52Z"/><path class="cls-12" d="M181.51,189.12h-1v-.94h0a2,2,0,0,1-1.85,1.08,2,2,0,0,1-1.4-.48,1.62,1.62,0,0,1-.51-1.26q0-1.68,2-2l1.8-.26c0-1-.41-1.52-1.23-1.52a3,3,0,0,0-2,.73v-1a3.68,3.68,0,0,1,2-.56c1.41,0,2.12.74,2.12,2.24Zm-1-3-1.44.2a2.25,2.25,0,0,0-1,.33,1,1,0,0,0-.34.84.9.9,0,0,0,.31.72,1.2,1.2,0,0,0,.84.28,1.56,1.56,0,0,0,1.18-.5,1.8,1.8,0,0,0,.46-1.27Z"/><path class="cls-12" d="M184.22,189.12h-1v-8.89h1Z"/><path class="cls-12" d="M204.45,155.86h-.95v-5.64c0-.44,0-1,.08-1.63h0a5.3,5.3,0,0,1-.24.81l-2.81,6.46H200l-2.8-6.41a6,6,0,0,1-.25-.86h0c0,.33.05.88.05,1.64v5.63h-.93v-8.4h1.27l2.52,5.85a7.13,7.13,0,0,1,.37,1h0c.16-.46.29-.8.39-1l2.57-5.83h1.2Z"/><path class="cls-12" d="M210.55,155.86h-.93v-.94h0a1.94,1.94,0,0,1-1.8,1.08,1.89,1.89,0,0,1-1.37-.48,1.64,1.64,0,0,1-.49-1.26c0-1.12.64-1.77,1.93-1.95l1.76-.25c0-1-.41-1.53-1.21-1.53a2.86,2.86,0,0,0-1.91.73v-1a3.53,3.53,0,0,1,2-.56c1.38,0,2.06.74,2.06,2.24Zm-.93-3-1.41.2a2.2,2.2,0,0,0-1,.33,1,1,0,0,0-.33.84.9.9,0,0,0,.31.72,1.13,1.13,0,0,0,.81.28,1.48,1.48,0,0,0,1.15-.5,1.8,1.8,0,0,0,.46-1.27Z"/><path class="cls-12" d="M214.92,155.8a1.81,1.81,0,0,1-.87.19c-1,0-1.54-.59-1.54-1.76v-3.55h-1v-.82h1v-1.47l.94-.31v1.78h1.47v.82h-1.47v3.38a1.38,1.38,0,0,0,.2.86.78.78,0,0,0,.66.26,1,1,0,0,0,.61-.2Z"/><path class="cls-12" d="M220.76,153.1h-4.13a2.25,2.25,0,0,0,.52,1.54,1.79,1.79,0,0,0,1.39.55,2.83,2.83,0,0,0,1.82-.67v.9a3.31,3.31,0,0,1-2,.58,2.42,2.42,0,0,1-1.95-.82,3.91,3.91,0,0,1,.06-4.58,2.46,2.46,0,0,1,1.93-.88,2.16,2.16,0,0,1,1.77.76,3.22,3.22,0,0,1,.63,2.11Zm-1-.82a2,2,0,0,0-.39-1.29,1.31,1.31,0,0,0-1.07-.46,1.52,1.52,0,0,0-1.13.48,2.23,2.23,0,0,0-.57,1.27Zm-.15-5.48-1.49,1.92h-.73l1.27-1.92Z"/><path class="cls-12" d="M225.12,150.83a1.13,1.13,0,0,0-.71-.19,1.17,1.17,0,0,0-1,.58,2.7,2.7,0,0,0-.41,1.58v3.06h-.94v-6H223v1.23h0a2,2,0,0,1,.61-1,1.35,1.35,0,0,1,.92-.36,1.62,1.62,0,0,1,.56.08Z"/><path class="cls-12" d="M226.5,148.33a.57.57,0,0,1-.43-.17.61.61,0,0,1-.18-.45.57.57,0,0,1,.18-.44.58.58,0,0,1,.43-.18.6.6,0,0,1,.44.18.57.57,0,0,1,.18.44.59.59,0,0,1-.18.44A.6.6,0,0,1,226.5,148.33Zm.46,7.53H226v-6H227Z"/><path class="cls-12" d="M233.44,153.1h-4.13a2.25,2.25,0,0,0,.53,1.54,1.75,1.75,0,0,0,1.38.55,2.81,2.81,0,0,0,1.82-.67v.9a3.31,3.31,0,0,1-2,.58,2.42,2.42,0,0,1-1.95-.82,3.91,3.91,0,0,1,.06-4.58,2.46,2.46,0,0,1,1.93-.88,2.18,2.18,0,0,1,1.78.76,3.22,3.22,0,0,1,.62,2.11Zm-1-.82a2,2,0,0,0-.39-1.29,1.31,1.31,0,0,0-1.07-.46,1.52,1.52,0,0,0-1.13.48,2.23,2.23,0,0,0-.57,1.27Z"/><path class="cls-12" d="M235.68,155.86h-.93V147h.93Z"/><path class="cls-12" d="M240.2,155.64v-1a2.71,2.71,0,0,0,1.69.58q1.23,0,1.23-.84a.76.76,0,0,0-.1-.41,1.17,1.17,0,0,0-.29-.3,2.73,2.73,0,0,0-.42-.23l-.52-.21c-.26-.11-.49-.21-.69-.32a2.39,2.39,0,0,1-.49-.36,1.52,1.52,0,0,1-.3-.46,1.9,1.9,0,0,1-.1-.61,1.55,1.55,0,0,1,.19-.75,2,2,0,0,1,.5-.54,2.16,2.16,0,0,1,.72-.33,2.91,2.91,0,0,1,.83-.11,3.32,3.32,0,0,1,1.37.27v1a2.63,2.63,0,0,0-1.49-.43,1.8,1.8,0,0,0-.48.06,1.2,1.2,0,0,0-.36.17.67.67,0,0,0-.23.27.64.64,0,0,0-.09.34.75.75,0,0,0,.09.39.71.71,0,0,0,.24.28,1.82,1.82,0,0,0,.39.23l.52.21a6.6,6.6,0,0,1,.7.32,2,2,0,0,1,.52.36,1.32,1.32,0,0,1,.34.47,1.64,1.64,0,0,1,.11.62,1.5,1.5,0,0,1-.19.78,1.75,1.75,0,0,1-.51.54,2.16,2.16,0,0,1-.74.32,3.58,3.58,0,0,1-.87.11A3.25,3.25,0,0,1,240.2,155.64Z"/><path class="cls-12" d="M248.13,155.8a1.88,1.88,0,0,1-.88.19c-1,0-1.54-.59-1.54-1.76v-3.55h-1v-.82h1v-1.47l.94-.31v1.78h1.48v.82h-1.48v3.38a1.45,1.45,0,0,0,.2.86.78.78,0,0,0,.66.26,1,1,0,0,0,.62-.2Z"/><path class="cls-12" d="M253.45,155.86h-.94v-.94h0a2,2,0,0,1-1.8,1.08,1.89,1.89,0,0,1-1.37-.48,1.65,1.65,0,0,1-.5-1.26c0-1.12.65-1.77,1.94-1.95l1.75-.25q0-1.53-1.2-1.53a2.82,2.82,0,0,0-1.91.73v-1a3.49,3.49,0,0,1,2-.56c1.37,0,2.06.74,2.06,2.24Zm-.94-3-1.41.2a2.2,2.2,0,0,0-1,.33,1,1,0,0,0-.33.84.92.92,0,0,0,.3.72,1.15,1.15,0,0,0,.82.28,1.51,1.51,0,0,0,1.15-.5,1.84,1.84,0,0,0,.45-1.27Z"/><path class="cls-12" d="M260,155.86H259v-3.42c0-1.28-.45-1.91-1.36-1.91a1.46,1.46,0,0,0-1.16.54,2,2,0,0,0-.46,1.37v3.42h-.94v-6H256v1h0a2.11,2.11,0,0,1,1.92-1.13,1.78,1.78,0,0,1,1.47.63,2.9,2.9,0,0,1,.51,1.84Z"/><path class="cls-12" d="M266.61,155.86h-.94v-1h0a2.33,2.33,0,0,1-3.78.35,3.35,3.35,0,0,1-.66-2.19,3.72,3.72,0,0,1,.73-2.39,2.41,2.41,0,0,1,1.95-.89,1.87,1.87,0,0,1,1.76,1h0V147h.94Zm-.94-2.72v-.88a1.72,1.72,0,0,0-.47-1.23,1.54,1.54,0,0,0-1.19-.5,1.61,1.61,0,0,0-1.35.64,2.92,2.92,0,0,0-.49,1.78,2.62,2.62,0,0,0,.47,1.64,1.54,1.54,0,0,0,1.27.6,1.57,1.57,0,0,0,1.27-.58A2.19,2.19,0,0,0,265.67,153.14Z"/><path class="cls-12" d="M272.58,155.86h-.94v-.94h0a2,2,0,0,1-1.8,1.08,1.89,1.89,0,0,1-1.37-.48,1.64,1.64,0,0,1-.49-1.26c0-1.12.64-1.77,1.93-1.95l1.75-.25q0-1.53-1.2-1.53a2.84,2.84,0,0,0-1.91.73v-1a3.51,3.51,0,0,1,2-.56c1.37,0,2.06.74,2.06,2.24Zm-.94-3-1.41.2a2.2,2.2,0,0,0-1,.33,1,1,0,0,0-.33.84.92.92,0,0,0,.3.72,1.17,1.17,0,0,0,.82.28,1.5,1.5,0,0,0,1.15-.5,1.84,1.84,0,0,0,.45-1.27Z"/><path class="cls-12" d="M277.29,150.83a1.13,1.13,0,0,0-.71-.19,1.2,1.2,0,0,0-1,.58,2.7,2.7,0,0,0-.4,1.58v3.06h-.94v-6h.94v1.23h0a2.14,2.14,0,0,1,.61-1,1.4,1.4,0,0,1,.93-.36,1.62,1.62,0,0,1,.56.08Z"/><path class="cls-12" d="M283.18,155.86h-.93v-1h0a2.32,2.32,0,0,1-3.77.35,3.35,3.35,0,0,1-.66-2.19,3.67,3.67,0,0,1,.73-2.39,2.41,2.41,0,0,1,2-.89,1.85,1.85,0,0,1,1.75,1h0V147h.93Zm-.93-2.72v-.88a1.77,1.77,0,0,0-.47-1.23,1.55,1.55,0,0,0-1.19-.5,1.61,1.61,0,0,0-1.35.64,2.85,2.85,0,0,0-.49,1.78,2.56,2.56,0,0,0,.47,1.64,1.53,1.53,0,0,0,1.27.6,1.58,1.58,0,0,0,1.27-.58A2.25,2.25,0,0,0,282.25,153.14Z"/><path class="cls-12" d="M293.06,155.86h-.94v-1h0a2.32,2.32,0,0,1-3.77.35,3.35,3.35,0,0,1-.66-2.19,3.67,3.67,0,0,1,.73-2.39,2.41,2.41,0,0,1,1.95-.89,1.85,1.85,0,0,1,1.75,1h0V147h.94Zm-.94-2.72v-.88a1.77,1.77,0,0,0-.47-1.23,1.54,1.54,0,0,0-1.19-.5,1.61,1.61,0,0,0-1.35.64,2.85,2.85,0,0,0-.49,1.78,2.62,2.62,0,0,0,.47,1.64,1.53,1.53,0,0,0,1.27.6,1.58,1.58,0,0,0,1.27-.58A2.19,2.19,0,0,0,292.12,153.14Z"/><path class="cls-12" d="M299.57,155.86h-.94v-1h0A1.92,1.92,0,0,1,296.8,156c-1.39,0-2.09-.85-2.09-2.56v-3.58h.93v3.43c0,1.27.48,1.9,1.42,1.9a1.4,1.4,0,0,0,1.13-.52,2,2,0,0,0,.44-1.36v-3.45h.94Z"/><path class="cls-12" d="M304.08,155.64v-1a2.73,2.73,0,0,0,1.69.58c.82,0,1.24-.28,1.24-.84a.76.76,0,0,0-.11-.41,1.17,1.17,0,0,0-.29-.3,2.73,2.73,0,0,0-.42-.23l-.52-.21c-.26-.11-.49-.21-.69-.32a2.39,2.39,0,0,1-.49-.36,1.32,1.32,0,0,1-.29-.46,1.66,1.66,0,0,1-.1-.61,1.54,1.54,0,0,1,.18-.75,1.87,1.87,0,0,1,.51-.54,2.2,2.2,0,0,1,.71-.33,2.94,2.94,0,0,1,.84-.11,3.3,3.3,0,0,1,1.36.27v1a2.61,2.61,0,0,0-1.49-.43,1.73,1.73,0,0,0-.47.06,1.26,1.26,0,0,0-.37.17.67.67,0,0,0-.23.27.63.63,0,0,0-.08.34.75.75,0,0,0,.08.39.8.8,0,0,0,.24.28,1.82,1.82,0,0,0,.39.23l.52.21a6.6,6.6,0,0,1,.7.32,1.84,1.84,0,0,1,.52.36,1.32,1.32,0,0,1,.34.47,1.46,1.46,0,0,1,.12.62,1.61,1.61,0,0,1-.19.78,1.67,1.67,0,0,1-.52.54,2.19,2.19,0,0,1-.73.32,3.6,3.6,0,0,1-.88.11A3.28,3.28,0,0,1,304.08,155.64Z"/><path class="cls-12" d="M314,153.1h-4.14a2.25,2.25,0,0,0,.53,1.54,1.75,1.75,0,0,0,1.38.55,2.81,2.81,0,0,0,1.82-.67v.9a3.27,3.27,0,0,1-2,.58,2.42,2.42,0,0,1-1.95-.82,3.4,3.4,0,0,1-.71-2.3,3.32,3.32,0,0,1,.78-2.28,2.43,2.43,0,0,1,1.92-.88,2.17,2.17,0,0,1,1.78.76,3.22,3.22,0,0,1,.63,2.11Zm-1-.82a2,2,0,0,0-.4-1.29,1.3,1.3,0,0,0-1.07-.46,1.48,1.48,0,0,0-1.12.48,2.31,2.31,0,0,0-.58,1.27Z"/><path class="cls-12" d="M319.29,155.58a3,3,0,0,1-1.6.42,2.6,2.6,0,0,1-2-.84,3,3,0,0,1-.77-2.16,3.34,3.34,0,0,1,.83-2.38,2.86,2.86,0,0,1,2.21-.9,3,3,0,0,1,1.36.29v1a2.34,2.34,0,0,0-1.39-.46,1.91,1.91,0,0,0-1.48.65,2.57,2.57,0,0,0-.57,1.74,2.42,2.42,0,0,0,.54,1.66,1.82,1.82,0,0,0,1.45.61,2.3,2.3,0,0,0,1.44-.52Z"/><path class="cls-12" d="M323.31,155.8a1.85,1.85,0,0,1-.88.19c-1,0-1.54-.59-1.54-1.76v-3.55h-1v-.82h1v-1.47l.94-.31v1.78h1.48v.82h-1.48v3.38a1.45,1.45,0,0,0,.2.86.82.82,0,0,0,.67.26,1,1,0,0,0,.61-.2Z"/><path class="cls-12" d="M329.15,153.1H325a2.3,2.3,0,0,0,.53,1.54,1.78,1.78,0,0,0,1.38.55,2.81,2.81,0,0,0,1.82-.67v.9a3.27,3.27,0,0,1-2,.58,2.42,2.42,0,0,1-1.95-.82,3.4,3.4,0,0,1-.71-2.3,3.32,3.32,0,0,1,.78-2.28,2.43,2.43,0,0,1,1.92-.88,2.17,2.17,0,0,1,1.78.76,3.22,3.22,0,0,1,.63,2.11Zm-1-.82a2.06,2.06,0,0,0-.39-1.29,1.33,1.33,0,0,0-1.08-.46,1.5,1.5,0,0,0-1.12.48,2.23,2.23,0,0,0-.57,1.27Z"/><path class="cls-12" d="M335.18,155.86h-.93v-1h0a1.91,1.91,0,0,1-1.8,1.09c-1.4,0-2.1-.85-2.1-2.56v-3.58h.94v3.43c0,1.27.47,1.9,1.41,1.9a1.4,1.4,0,0,0,1.13-.52,2,2,0,0,0,.45-1.36v-3.45h.93Z"/><path class="cls-12" d="M340,150.83a1.11,1.11,0,0,0-.71-.19,1.18,1.18,0,0,0-1,.58,2.7,2.7,0,0,0-.4,1.58v3.06H337v-6h.94v1.23h0a2.06,2.06,0,0,1,.61-1,1.37,1.37,0,0,1,.92-.36,1.58,1.58,0,0,1,.56.08Z"/><path class="cls-12" d="M35.46,155.86h-1v-5.64c0-.44,0-1,.08-1.63h0a4.19,4.19,0,0,1-.25.81l-2.8,6.46H31l-2.79-6.41a4.93,4.93,0,0,1-.25-.86h0c0,.33,0,.88,0,1.64v5.63H27.1v-8.4h1.27l2.51,5.85a7.5,7.5,0,0,1,.38,1h0c.17-.46.3-.8.4-1l2.57-5.83h1.2Z"/><path class="cls-12" d="M41.56,155.86h-.94v-.94h0A2,2,0,0,1,38.8,156a1.89,1.89,0,0,1-1.37-.48,1.64,1.64,0,0,1-.49-1.26c0-1.12.64-1.77,1.93-1.95l1.75-.25q0-1.53-1.2-1.53a2.82,2.82,0,0,0-1.91.73v-1a3.51,3.51,0,0,1,2-.56c1.37,0,2.06.74,2.06,2.24Zm-.94-3-1.41.2a2.2,2.2,0,0,0-1,.33,1,1,0,0,0-.33.84.92.92,0,0,0,.3.72,1.17,1.17,0,0,0,.82.28,1.5,1.5,0,0,0,1.15-.5,1.84,1.84,0,0,0,.45-1.27Z"/><path class="cls-12" d="M45.93,155.8a1.85,1.85,0,0,1-.88.19c-1,0-1.54-.59-1.54-1.76v-3.55h-1v-.82h1v-1.47l.94-.31v1.78h1.48v.82H44.45v3.38a1.45,1.45,0,0,0,.2.86.82.82,0,0,0,.67.26,1,1,0,0,0,.61-.2Z"/><path class="cls-12" d="M51.77,153.1H47.64a2.25,2.25,0,0,0,.52,1.54,1.78,1.78,0,0,0,1.38.55,2.81,2.81,0,0,0,1.82-.67v.9a3.27,3.27,0,0,1-2,.58,2.42,2.42,0,0,1-2-.82,3.4,3.4,0,0,1-.71-2.3,3.32,3.32,0,0,1,.78-2.28,2.44,2.44,0,0,1,1.92-.88,2.17,2.17,0,0,1,1.78.76,3.22,3.22,0,0,1,.63,2.11Zm-1-.82a2,2,0,0,0-.39-1.29,1.32,1.32,0,0,0-1.07-.46,1.5,1.5,0,0,0-1.13.48,2.23,2.23,0,0,0-.57,1.27Zm-.15-5.48-1.5,1.92h-.72l1.27-1.92Z"/><path class="cls-12" d="M56.12,150.83a1.11,1.11,0,0,0-.71-.19,1.18,1.18,0,0,0-1,.58,2.7,2.7,0,0,0-.4,1.58v3.06h-.94v-6H54v1.23h0a2.06,2.06,0,0,1,.61-1,1.37,1.37,0,0,1,.92-.36,1.58,1.58,0,0,1,.56.08Z"/><path class="cls-12" d="M57.5,148.33a.55.55,0,0,1-.42-.17.61.61,0,0,1-.18-.45.57.57,0,0,1,.18-.44.56.56,0,0,1,.42-.18.59.59,0,0,1,.44.18.57.57,0,0,1,.18.44.61.61,0,0,1-.62.62Zm.46,7.53H57v-6H58Z"/><path class="cls-12" d="M64.45,153.1H60.32a2.25,2.25,0,0,0,.52,1.54,1.79,1.79,0,0,0,1.39.55,2.78,2.78,0,0,0,1.81-.67v.9a3.27,3.27,0,0,1-2,.58,2.44,2.44,0,0,1-2-.82,3.4,3.4,0,0,1-.71-2.3,3.32,3.32,0,0,1,.78-2.28,2.46,2.46,0,0,1,1.92-.88,2.17,2.17,0,0,1,1.78.76,3.22,3.22,0,0,1,.63,2.11Zm-1-.82A2,2,0,0,0,63.1,151a1.32,1.32,0,0,0-1.07-.46,1.5,1.5,0,0,0-1.13.48,2.23,2.23,0,0,0-.57,1.27Z"/><path class="cls-12" d="M66.69,155.86h-.94V147h.94Z"/><path class="cls-12" d="M78,155.86H77l-.87-2.36H72.62l-.81,2.36H70.74l3.14-8.4h1Zm-2.24-3.24L74.5,149a5.16,5.16,0,0,1-.13-.57h0a3.51,3.51,0,0,1-.13.57l-1.28,3.58Z"/><path class="cls-12" d="M83.08,150.13,79.62,155h3.43v.82H78.24v-.3l3.46-4.88H78.56v-.82h4.52Z"/><path class="cls-12" d="M88.91,155.86H88v-1h0A1.92,1.92,0,0,1,86.14,156c-1.39,0-2.09-.85-2.09-2.56v-3.58H85v3.43c0,1.27.48,1.9,1.42,1.9a1.41,1.41,0,0,0,1.13-.52,2,2,0,0,0,.44-1.36v-3.45h.94Z"/><path class="cls-12" d="M93.74,150.83a1.11,1.11,0,0,0-.71-.19,1.18,1.18,0,0,0-1,.58,2.7,2.7,0,0,0-.41,1.58v3.06h-.93v-6h.93v1.23h0a2,2,0,0,1,.61-1,1.35,1.35,0,0,1,.92-.36,1.62,1.62,0,0,1,.56.08Z"/><path class="cls-12" d="M99.35,153.1H95.21a2.25,2.25,0,0,0,.53,1.54,1.78,1.78,0,0,0,1.38.55,2.81,2.81,0,0,0,1.82-.67v.9a3.27,3.27,0,0,1-2,.58,2.42,2.42,0,0,1-2-.82,3.4,3.4,0,0,1-.71-2.3A3.32,3.32,0,0,1,95,150.6a2.43,2.43,0,0,1,1.92-.88,2.17,2.17,0,0,1,1.78.76,3.22,3.22,0,0,1,.63,2.11Zm-1-.82A2.06,2.06,0,0,0,98,151a1.33,1.33,0,0,0-1.08-.46,1.5,1.5,0,0,0-1.12.48,2.23,2.23,0,0,0-.57,1.27Z"/></g></svg>